<svg width="661" height="488" viewBox="0 0 661 488" fill="none" xmlns="http://www.w3.org/2000/svg">
<path d="M548.5 261.5C548.5 384.451 442.159 484.5 310.5 484.5C178.841 484.5 72.5 384.451 72.5 261.5C72.5 138.549 178.841 38.5 310.5 38.5C442.159 38.5 548.5 138.549 548.5 261.5Z" fill="white" stroke="#5627FF" stroke-width="7"/>
<rect x="445.5" y="208.5" width="213" height="70" rx="35" fill="white" stroke="#5627FF" stroke-width="5"/>
<rect x="123.5" y="2.5" width="214" height="70" rx="35" fill="white" stroke="#5627FF" stroke-width="5"/>
<rect x="2.5" y="338.5" width="214" height="70" rx="35" fill="white" stroke="#5627FF" stroke-width="5"/>
<path d="M168.686 47V23.7273H177.413C179.201 23.7273 180.701 24.0606 181.913 24.7273C183.133 25.3939 184.054 26.3106 184.675 27.4773C185.304 28.6364 185.618 29.9545 185.618 31.4318C185.618 32.9242 185.304 34.25 184.675 35.4091C184.046 36.5682 183.118 37.4811 181.891 38.1477C180.663 38.8068 179.152 39.1364 177.357 39.1364H171.572V35.6705H176.788C177.834 35.6705 178.69 35.4886 179.357 35.125C180.023 34.7614 180.516 34.2614 180.834 33.625C181.16 32.9886 181.322 32.2576 181.322 31.4318C181.322 30.6061 181.16 29.8788 180.834 29.25C180.516 28.6212 180.019 28.1326 179.345 27.7841C178.679 27.428 177.819 27.25 176.766 27.25H172.902V47H168.686ZM189.098 47V29.5455H193.087V32.4545H193.268C193.587 31.447 194.132 30.6705 194.905 30.125C195.685 29.572 196.575 29.2955 197.575 29.2955C197.803 29.2955 198.056 29.3068 198.337 29.3295C198.625 29.3447 198.863 29.3712 199.053 29.4091V33.1932C198.878 33.1326 198.602 33.0795 198.223 33.0341C197.852 32.9811 197.492 32.9545 197.143 32.9545C196.393 32.9545 195.719 33.1174 195.121 33.4432C194.53 33.7614 194.064 34.2045 193.723 34.7727C193.382 35.3409 193.212 35.9962 193.212 36.7386V47H189.098ZM208.68 47.3409C206.976 47.3409 205.499 46.9659 204.249 46.2159C202.999 45.4659 202.029 44.4167 201.339 43.0682C200.658 41.7197 200.317 40.1439 200.317 38.3409C200.317 36.5379 200.658 34.9583 201.339 33.6023C202.029 32.2462 202.999 31.1932 204.249 30.4432C205.499 29.6932 206.976 29.3182 208.68 29.3182C210.385 29.3182 211.862 29.6932 213.112 30.4432C214.362 31.1932 215.328 32.2462 216.01 33.6023C216.699 34.9583 217.044 36.5379 217.044 38.3409C217.044 40.1439 216.699 41.7197 216.01 43.0682C215.328 44.4167 214.362 45.4659 213.112 46.2159C211.862 46.9659 210.385 47.3409 208.68 47.3409ZM208.703 44.0455C209.627 44.0455 210.4 43.7917 211.021 43.2841C211.643 42.7689 212.105 42.0795 212.408 41.2159C212.718 40.3523 212.874 39.3902 212.874 38.3295C212.874 37.2614 212.718 36.2955 212.408 35.4318C212.105 34.5606 211.643 33.8674 211.021 33.3523C210.4 32.8371 209.627 32.5795 208.703 32.5795C207.756 32.5795 206.968 32.8371 206.339 33.3523C205.718 33.8674 205.252 34.5606 204.942 35.4318C204.639 36.2955 204.487 37.2614 204.487 38.3295C204.487 39.3902 204.639 40.3523 204.942 41.2159C205.252 42.0795 205.718 42.7689 206.339 43.2841C206.968 43.7917 207.756 44.0455 208.703 44.0455ZM220.717 47V23.7273H224.831V32.4318H225.001C225.214 32.0076 225.513 31.5568 225.899 31.0795C226.286 30.5947 226.808 30.1818 227.467 29.8409C228.126 29.4924 228.967 29.3182 229.99 29.3182C231.339 29.3182 232.554 29.6629 233.638 30.3523C234.729 31.0341 235.592 32.0455 236.229 33.3864C236.873 34.7197 237.195 36.3561 237.195 38.2955C237.195 40.2121 236.88 41.8409 236.251 43.1818C235.623 44.5227 234.767 45.5455 233.683 46.25C232.6 46.9545 231.373 47.3068 230.001 47.3068C229.001 47.3068 228.172 47.1402 227.513 46.8068C226.854 46.4735 226.323 46.072 225.922 45.6023C225.528 45.125 225.221 44.6742 225.001 44.25H224.763V47H220.717ZM224.751 38.2727C224.751 39.4015 224.911 40.3902 225.229 41.2386C225.554 42.0871 226.02 42.75 226.626 43.2273C227.24 43.697 227.982 43.9318 228.854 43.9318C229.763 43.9318 230.524 43.6894 231.138 43.2045C231.751 42.7121 232.214 42.0417 232.524 41.1932C232.842 40.3371 233.001 39.3636 233.001 38.2727C233.001 37.1894 232.846 36.2273 232.536 35.3864C232.225 34.5455 231.763 33.8864 231.149 33.4091C230.536 32.9318 229.77 32.6932 228.854 32.6932C227.975 32.6932 227.229 32.9242 226.615 33.3864C226.001 33.8485 225.536 34.4962 225.217 35.3295C224.907 36.1629 224.751 37.1439 224.751 38.2727ZM244.805 23.7273V47H240.692V23.7273H244.805ZM256.763 47.3409C255.013 47.3409 253.501 46.9773 252.229 46.25C250.964 45.5152 249.99 44.4773 249.308 43.1364C248.626 41.7879 248.286 40.2008 248.286 38.375C248.286 36.5795 248.626 35.0038 249.308 33.6477C249.998 32.2841 250.96 31.2235 252.195 30.4659C253.429 29.7008 254.88 29.3182 256.547 29.3182C257.623 29.3182 258.638 29.4924 259.592 29.8409C260.554 30.1818 261.403 30.7121 262.138 31.4318C262.88 32.1515 263.464 33.0682 263.888 34.1818C264.312 35.2879 264.524 36.6061 264.524 38.1364V39.3977H250.217V36.625H260.581C260.573 35.8371 260.403 35.1364 260.07 34.5227C259.736 33.9015 259.27 33.4129 258.672 33.0568C258.081 32.7008 257.392 32.5227 256.604 32.5227C255.763 32.5227 255.024 32.7273 254.388 33.1364C253.751 33.5379 253.255 34.0682 252.899 34.7273C252.551 35.3788 252.373 36.0947 252.365 36.875V39.2955C252.365 40.3106 252.551 41.1818 252.922 41.9091C253.293 42.6288 253.812 43.1818 254.479 43.5682C255.145 43.947 255.926 44.1364 256.82 44.1364C257.418 44.1364 257.96 44.053 258.445 43.8864C258.929 43.7121 259.35 43.4583 259.706 43.125C260.062 42.7917 260.331 42.3788 260.513 41.8864L264.354 42.3182C264.111 43.3333 263.649 44.2197 262.967 44.9773C262.293 45.7273 261.429 46.3106 260.376 46.7273C259.323 47.1364 258.119 47.3409 256.763 47.3409ZM268.004 47V29.5455H271.936V32.5114H272.141C272.504 31.5114 273.107 30.7311 273.947 30.1705C274.788 29.6023 275.792 29.3182 276.959 29.3182C278.141 29.3182 279.137 29.6061 279.947 30.1818C280.766 30.75 281.341 31.5265 281.675 32.5114H281.857C282.243 31.5417 282.894 30.7689 283.811 30.1932C284.735 29.6098 285.83 29.3182 287.095 29.3182C288.701 29.3182 290.012 29.8258 291.027 30.8409C292.042 31.8561 292.55 33.3371 292.55 35.2841V47H288.425V35.9205C288.425 34.8371 288.137 34.0455 287.561 33.5455C286.985 33.0379 286.281 32.7841 285.447 32.7841C284.455 32.7841 283.679 33.0947 283.118 33.7159C282.565 34.3295 282.288 35.1288 282.288 36.1136V47H278.254V35.75C278.254 34.8485 277.982 34.1288 277.436 33.5909C276.898 33.053 276.194 32.7841 275.322 32.7841C274.732 32.7841 274.194 32.9356 273.709 33.2386C273.224 33.5341 272.838 33.9545 272.55 34.5C272.262 35.0379 272.118 35.6667 272.118 36.3864V47H268.004Z" fill="#5627FF"/>
<path d="M503.178 237.125C503.071 236.133 502.625 235.36 501.837 234.807C501.056 234.254 500.041 233.977 498.791 233.977C497.912 233.977 497.159 234.11 496.53 234.375C495.901 234.64 495.42 235 495.087 235.455C494.753 235.909 494.583 236.428 494.575 237.011C494.575 237.496 494.685 237.917 494.905 238.273C495.132 238.629 495.439 238.932 495.825 239.182C496.212 239.424 496.64 239.629 497.109 239.795C497.579 239.962 498.053 240.102 498.53 240.216L500.712 240.761C501.59 240.966 502.435 241.242 503.246 241.591C504.064 241.939 504.795 242.379 505.439 242.909C506.09 243.439 506.606 244.08 506.984 244.83C507.363 245.58 507.553 246.458 507.553 247.466C507.553 248.83 507.204 250.03 506.507 251.068C505.81 252.098 504.803 252.905 503.484 253.489C502.174 254.064 500.587 254.352 498.723 254.352C496.912 254.352 495.34 254.072 494.007 253.511C492.681 252.951 491.643 252.133 490.893 251.057C490.151 249.981 489.75 248.67 489.689 247.125H493.837C493.897 247.936 494.147 248.61 494.587 249.148C495.026 249.686 495.598 250.087 496.303 250.352C497.015 250.617 497.81 250.75 498.689 250.75C499.606 250.75 500.409 250.614 501.098 250.341C501.795 250.061 502.34 249.674 502.734 249.182C503.128 248.682 503.329 248.098 503.337 247.432C503.329 246.826 503.151 246.326 502.803 245.932C502.454 245.53 501.965 245.197 501.337 244.932C500.715 244.659 499.988 244.417 499.155 244.205L496.507 243.523C494.59 243.03 493.075 242.284 491.962 241.284C490.856 240.277 490.303 238.939 490.303 237.273C490.303 235.902 490.674 234.701 491.416 233.67C492.166 232.64 493.185 231.841 494.473 231.273C495.761 230.697 497.219 230.409 498.848 230.409C500.5 230.409 501.946 230.697 503.189 231.273C504.439 231.841 505.42 232.633 506.132 233.648C506.844 234.655 507.212 235.814 507.234 237.125H503.178ZM518.743 254.341C517.038 254.341 515.561 253.966 514.311 253.216C513.061 252.466 512.091 251.417 511.402 250.068C510.72 248.72 510.379 247.144 510.379 245.341C510.379 243.538 510.72 241.958 511.402 240.602C512.091 239.246 513.061 238.193 514.311 237.443C515.561 236.693 517.038 236.318 518.743 236.318C520.447 236.318 521.925 236.693 523.175 237.443C524.425 238.193 525.391 239.246 526.072 240.602C526.762 241.958 527.107 243.538 527.107 245.341C527.107 247.144 526.762 248.72 526.072 250.068C525.391 251.417 524.425 252.466 523.175 253.216C521.925 253.966 520.447 254.341 518.743 254.341ZM518.766 251.045C519.69 251.045 520.463 250.792 521.084 250.284C521.705 249.769 522.167 249.08 522.47 248.216C522.781 247.352 522.936 246.39 522.936 245.33C522.936 244.261 522.781 243.295 522.47 242.432C522.167 241.561 521.705 240.867 521.084 240.352C520.463 239.837 519.69 239.58 518.766 239.58C517.819 239.58 517.031 239.837 516.402 240.352C515.781 240.867 515.315 241.561 515.004 242.432C514.701 243.295 514.55 244.261 514.55 245.33C514.55 246.39 514.701 247.352 515.004 248.216C515.315 249.08 515.781 249.769 516.402 250.284C517.031 250.792 517.819 251.045 518.766 251.045ZM534.712 230.727V254H530.598V230.727H534.712ZM550.067 246.659V236.545H554.18V254H550.192V250.898H550.01C549.616 251.875 548.968 252.674 548.067 253.295C547.173 253.917 546.071 254.227 544.76 254.227C543.616 254.227 542.605 253.973 541.726 253.466C540.855 252.951 540.173 252.205 539.68 251.227C539.188 250.242 538.942 249.053 538.942 247.659V236.545H543.055V247.023C543.055 248.129 543.358 249.008 543.964 249.659C544.571 250.311 545.366 250.636 546.351 250.636C546.957 250.636 547.544 250.489 548.112 250.193C548.68 249.898 549.146 249.458 549.51 248.875C549.881 248.284 550.067 247.545 550.067 246.659ZM567.126 236.545V239.727H557.092V236.545H567.126ZM559.57 232.364H563.683V248.75C563.683 249.303 563.767 249.727 563.933 250.023C564.107 250.311 564.335 250.508 564.615 250.614C564.895 250.72 565.206 250.773 565.547 250.773C565.804 250.773 566.039 250.754 566.251 250.716C566.471 250.678 566.638 250.644 566.751 250.614L567.445 253.83C567.225 253.905 566.911 253.989 566.501 254.08C566.1 254.17 565.607 254.223 565.024 254.239C563.994 254.269 563.066 254.114 562.24 253.773C561.414 253.424 560.759 252.886 560.274 252.159C559.797 251.432 559.562 250.523 559.57 249.432V232.364ZM570.567 254V236.545H574.68V254H570.567ZM572.635 234.068C571.983 234.068 571.423 233.852 570.953 233.42C570.483 232.981 570.249 232.455 570.249 231.841C570.249 231.22 570.483 230.693 570.953 230.261C571.423 229.822 571.983 229.602 572.635 229.602C573.294 229.602 573.855 229.822 574.317 230.261C574.786 230.693 575.021 231.22 575.021 231.841C575.021 232.455 574.786 232.981 574.317 233.42C573.855 233.852 573.294 234.068 572.635 234.068ZM586.524 254.341C584.82 254.341 583.342 253.966 582.092 253.216C580.842 252.466 579.873 251.417 579.183 250.068C578.501 248.72 578.161 247.144 578.161 245.341C578.161 243.538 578.501 241.958 579.183 240.602C579.873 239.246 580.842 238.193 582.092 237.443C583.342 236.693 584.82 236.318 586.524 236.318C588.229 236.318 589.706 236.693 590.956 237.443C592.206 238.193 593.172 239.246 593.854 240.602C594.543 241.958 594.888 243.538 594.888 245.341C594.888 247.144 594.543 248.72 593.854 250.068C593.172 251.417 592.206 252.466 590.956 253.216C589.706 253.966 588.229 254.341 586.524 254.341ZM586.547 251.045C587.471 251.045 588.244 250.792 588.865 250.284C589.486 249.769 589.948 249.08 590.251 248.216C590.562 247.352 590.717 246.39 590.717 245.33C590.717 244.261 590.562 243.295 590.251 242.432C589.948 241.561 589.486 240.867 588.865 240.352C588.244 239.837 587.471 239.58 586.547 239.58C585.6 239.58 584.812 239.837 584.183 240.352C583.562 240.867 583.096 241.561 582.786 242.432C582.482 243.295 582.331 244.261 582.331 245.33C582.331 246.39 582.482 247.352 582.786 248.216C583.096 249.08 583.562 249.769 584.183 250.284C584.812 250.792 585.6 251.045 586.547 251.045ZM602.493 243.773V254H598.379V236.545H602.311V239.511H602.516C602.917 238.534 603.557 237.758 604.436 237.182C605.322 236.606 606.417 236.318 607.72 236.318C608.925 236.318 609.974 236.576 610.868 237.091C611.769 237.606 612.466 238.352 612.959 239.33C613.459 240.307 613.705 241.492 613.697 242.886V254H609.584V243.523C609.584 242.356 609.281 241.443 608.675 240.784C608.076 240.125 607.247 239.795 606.186 239.795C605.466 239.795 604.826 239.955 604.266 240.273C603.713 240.583 603.277 241.034 602.959 241.625C602.648 242.216 602.493 242.932 602.493 243.773Z" fill="#5627FF"/>
<path d="M53.3172 361.125C53.2111 360.133 52.7642 359.36 51.9763 358.807C51.196 358.254 50.1808 357.977 48.9308 357.977C48.0521 357.977 47.2983 358.11 46.6695 358.375C46.0407 358.64 45.5596 359 45.2263 359.455C44.893 359.909 44.7225 360.428 44.7149 361.011C44.7149 361.496 44.8248 361.917 45.0445 362.273C45.2718 362.629 45.5786 362.932 45.9649 363.182C46.3513 363.424 46.7793 363.629 47.249 363.795C47.7187 363.962 48.1922 364.102 48.6695 364.216L50.8513 364.761C51.7301 364.966 52.5748 365.242 53.3854 365.591C54.2036 365.939 54.9346 366.379 55.5786 366.909C56.2301 367.439 56.7452 368.08 57.124 368.83C57.5028 369.58 57.6922 370.458 57.6922 371.466C57.6922 372.83 57.3437 374.03 56.6468 375.068C55.9498 376.098 54.9422 376.905 53.624 377.489C52.3134 378.064 50.7263 378.352 48.8627 378.352C47.0521 378.352 45.4801 378.072 44.1468 377.511C42.821 376.951 41.7831 376.133 41.0331 375.057C40.2907 373.981 39.8892 372.67 39.8286 371.125H43.9763C44.0369 371.936 44.2869 372.61 44.7263 373.148C45.1657 373.686 45.7377 374.087 46.4422 374.352C47.1543 374.617 47.9498 374.75 48.8286 374.75C49.7452 374.75 50.5483 374.614 51.2377 374.341C51.9346 374.061 52.4801 373.674 52.874 373.182C53.268 372.682 53.4687 372.098 53.4763 371.432C53.4687 370.826 53.2907 370.326 52.9422 369.932C52.5937 369.53 52.1051 369.197 51.4763 368.932C50.8551 368.659 50.1278 368.417 49.2945 368.205L46.6468 367.523C44.7301 367.03 43.2149 366.284 42.1013 365.284C40.9952 364.277 40.4422 362.939 40.4422 361.273C40.4422 359.902 40.8134 358.701 41.5558 357.67C42.3058 356.64 43.3248 355.841 44.6127 355.273C45.9005 354.697 47.3589 354.409 48.9877 354.409C50.6392 354.409 52.0861 354.697 53.3286 355.273C54.5786 355.841 55.5596 356.633 56.2718 357.648C56.9839 358.655 57.3513 359.814 57.374 361.125H53.3172ZM68.9962 378.341C67.2462 378.341 65.7348 377.977 64.4621 377.25C63.1969 376.515 62.2235 375.477 61.5416 374.136C60.8598 372.788 60.5189 371.201 60.5189 369.375C60.5189 367.58 60.8598 366.004 61.5416 364.648C62.231 363.284 63.1932 362.223 64.428 361.466C65.6628 360.701 67.1136 360.318 68.7803 360.318C69.856 360.318 70.8712 360.492 71.8257 360.841C72.7878 361.182 73.6363 361.712 74.3712 362.432C75.1136 363.152 75.6969 364.068 76.1212 365.182C76.5454 366.288 76.7575 367.606 76.7575 369.136V370.398H62.4507V367.625H72.8144C72.8068 366.837 72.6363 366.136 72.303 365.523C71.9697 364.902 71.5038 364.413 70.9053 364.057C70.3144 363.701 69.625 363.523 68.8371 363.523C67.9962 363.523 67.2575 363.727 66.6212 364.136C65.9848 364.538 65.4886 365.068 65.1325 365.727C64.7841 366.379 64.606 367.095 64.5985 367.875V370.295C64.5985 371.311 64.7841 372.182 65.1553 372.909C65.5265 373.629 66.0454 374.182 66.7121 374.568C67.3788 374.947 68.1591 375.136 69.053 375.136C69.6515 375.136 70.1932 375.053 70.678 374.886C71.1628 374.712 71.5833 374.458 71.9394 374.125C72.2954 373.792 72.5644 373.379 72.7462 372.886L76.5871 373.318C76.3447 374.333 75.8825 375.22 75.2007 375.977C74.5265 376.727 73.6628 377.311 72.6098 377.727C71.5568 378.136 70.3522 378.341 68.9962 378.341ZM80.2377 378V360.545H84.2263V363.455H84.4081C84.7263 362.447 85.2718 361.67 86.0445 361.125C86.8248 360.572 87.7149 360.295 88.7149 360.295C88.9422 360.295 89.196 360.307 89.4763 360.33C89.7642 360.345 90.0028 360.371 90.1922 360.409V364.193C90.018 364.133 89.7414 364.08 89.3627 364.034C88.9914 363.981 88.6316 363.955 88.2831 363.955C87.5331 363.955 86.8589 364.117 86.2604 364.443C85.6695 364.761 85.2036 365.205 84.8627 365.773C84.5218 366.341 84.3513 366.996 84.3513 367.739V378H80.2377ZM109.047 360.545L102.831 378H98.286L92.07 360.545H96.4564L100.468 373.511H100.65L104.672 360.545H109.047ZM111.894 378V360.545H116.008V378H111.894ZM113.962 358.068C113.311 358.068 112.75 357.852 112.28 357.42C111.811 356.981 111.576 356.455 111.576 355.841C111.576 355.22 111.811 354.693 112.28 354.261C112.75 353.822 113.311 353.602 113.962 353.602C114.621 353.602 115.182 353.822 115.644 354.261C116.114 354.693 116.348 355.22 116.348 355.841C116.348 356.455 116.114 356.981 115.644 357.42C115.182 357.852 114.621 358.068 113.962 358.068ZM127.851 378.341C126.109 378.341 124.613 377.958 123.363 377.193C122.12 376.428 121.162 375.371 120.488 374.023C119.821 372.667 119.488 371.106 119.488 369.341C119.488 367.568 119.829 366.004 120.51 364.648C121.192 363.284 122.154 362.223 123.397 361.466C124.647 360.701 126.124 360.318 127.829 360.318C129.245 360.318 130.499 360.58 131.59 361.102C132.688 361.617 133.563 362.348 134.215 363.295C134.866 364.235 135.238 365.333 135.329 366.591H131.397C131.238 365.75 130.859 365.049 130.26 364.489C129.669 363.92 128.878 363.636 127.885 363.636C127.044 363.636 126.306 363.864 125.669 364.318C125.033 364.765 124.537 365.409 124.181 366.25C123.832 367.091 123.658 368.098 123.658 369.273C123.658 370.462 123.832 371.485 124.181 372.341C124.529 373.189 125.018 373.845 125.647 374.307C126.283 374.761 127.029 374.989 127.885 374.989C128.491 374.989 129.033 374.875 129.51 374.648C129.995 374.413 130.401 374.076 130.726 373.636C131.052 373.197 131.276 372.663 131.397 372.034H135.329C135.23 373.269 134.866 374.364 134.238 375.318C133.609 376.265 132.753 377.008 131.669 377.545C130.586 378.076 129.313 378.341 127.851 378.341ZM146.434 378.341C144.684 378.341 143.172 377.977 141.9 377.25C140.634 376.515 139.661 375.477 138.979 374.136C138.297 372.788 137.956 371.201 137.956 369.375C137.956 367.58 138.297 366.004 138.979 364.648C139.669 363.284 140.631 362.223 141.866 361.466C143.1 360.701 144.551 360.318 146.218 360.318C147.294 360.318 148.309 360.492 149.263 360.841C150.225 361.182 151.074 361.712 151.809 362.432C152.551 363.152 153.134 364.068 153.559 365.182C153.983 366.288 154.195 367.606 154.195 369.136V370.398H139.888V367.625H150.252C150.244 366.837 150.074 366.136 149.741 365.523C149.407 364.902 148.941 364.413 148.343 364.057C147.752 363.701 147.062 363.523 146.275 363.523C145.434 363.523 144.695 363.727 144.059 364.136C143.422 364.538 142.926 365.068 142.57 365.727C142.222 366.379 142.044 367.095 142.036 367.875V370.295C142.036 371.311 142.222 372.182 142.593 372.909C142.964 373.629 143.483 374.182 144.15 374.568C144.816 374.947 145.597 375.136 146.491 375.136C147.089 375.136 147.631 375.053 148.116 374.886C148.6 374.712 149.021 374.458 149.377 374.125C149.733 373.792 150.002 373.379 150.184 372.886L154.025 373.318C153.782 374.333 153.32 375.22 152.638 375.977C151.964 376.727 151.1 377.311 150.047 377.727C148.994 378.136 147.79 378.341 146.434 378.341ZM164.575 378V367.091H168.751C169.54 367.091 170.195 367.215 170.717 367.464C171.242 367.709 171.635 368.044 171.894 368.471C172.157 368.897 172.288 369.38 172.288 369.919C172.288 370.363 172.203 370.743 172.032 371.059C171.862 371.372 171.633 371.626 171.345 371.821C171.058 372.016 170.736 372.157 170.381 372.242V372.348C170.768 372.37 171.139 372.489 171.494 372.705C171.853 372.918 172.146 373.22 172.373 373.611C172.601 374.001 172.714 374.474 172.714 375.028C172.714 375.592 172.578 376.1 172.304 376.551C172.031 376.999 171.619 377.352 171.068 377.611C170.518 377.87 169.825 378 168.991 378H164.575ZM166.551 376.349H168.677C169.394 376.349 169.911 376.212 170.227 375.939C170.546 375.662 170.706 375.306 170.706 374.873C170.706 374.55 170.626 374.259 170.466 374C170.307 373.737 170.079 373.531 169.785 373.382C169.49 373.229 169.138 373.153 168.73 373.153H166.551V376.349ZM166.551 371.73H168.506C168.847 371.73 169.154 371.668 169.428 371.544C169.701 371.416 169.916 371.237 170.072 371.006C170.232 370.772 170.312 370.495 170.312 370.175C170.312 369.752 170.163 369.404 169.864 369.131C169.57 368.858 169.131 368.721 168.549 368.721H166.551V371.73ZM175.547 381.068C175.284 381.068 175.041 381.047 174.817 381.004C174.597 380.965 174.421 380.919 174.29 380.866L174.737 379.364C175.018 379.445 175.268 379.484 175.488 379.481C175.708 379.477 175.902 379.408 176.069 379.273C176.239 379.142 176.383 378.922 176.5 378.613L176.665 378.17L173.698 369.818H175.744L177.629 375.997H177.715L179.606 369.818H181.656L178.381 378.991C178.228 379.424 178.025 379.795 177.773 380.104C177.521 380.417 177.212 380.654 176.846 380.818C176.484 380.985 176.051 381.068 175.547 381.068ZM137.309 396H135.2L139.04 385.091H141.48L145.326 396H143.216L140.303 387.328H140.217L137.309 396ZM137.378 391.723H143.131V393.31H137.378V391.723ZM148.606 385.091V396H146.677V385.091H148.606ZM154.147 399.239C153.454 399.239 152.859 399.145 152.362 398.956C151.865 398.772 151.466 398.523 151.164 398.211C150.862 397.898 150.652 397.552 150.535 397.172L152.272 396.751C152.35 396.911 152.463 397.069 152.613 397.225C152.762 397.385 152.962 397.516 153.214 397.619C153.47 397.726 153.792 397.779 154.179 397.779C154.725 397.779 155.178 397.646 155.537 397.38C155.896 397.117 156.075 396.684 156.075 396.08V394.53H155.979C155.88 394.729 155.734 394.933 155.542 395.142C155.354 395.352 155.104 395.528 154.791 395.67C154.482 395.812 154.093 395.883 153.625 395.883C152.996 395.883 152.426 395.735 151.915 395.441C151.407 395.142 151.002 394.699 150.7 394.109C150.402 393.516 150.253 392.774 150.253 391.882C150.253 390.984 150.402 390.226 150.7 389.608C151.002 388.987 151.409 388.516 151.92 388.196C152.431 387.873 153.001 387.712 153.63 387.712C154.109 387.712 154.504 387.793 154.812 387.957C155.125 388.116 155.374 388.31 155.558 388.537C155.743 388.761 155.883 388.972 155.979 389.171H156.086V387.818H157.987V396.133C157.987 396.833 157.82 397.412 157.487 397.87C157.153 398.328 156.696 398.67 156.118 398.898C155.539 399.125 154.882 399.239 154.147 399.239ZM154.163 394.37C154.571 394.37 154.919 394.271 155.207 394.072C155.494 393.873 155.713 393.587 155.862 393.214C156.011 392.841 156.086 392.394 156.086 391.872C156.086 391.357 156.011 390.906 155.862 390.519C155.716 390.132 155.5 389.832 155.212 389.619C154.928 389.402 154.578 389.294 154.163 389.294C153.733 389.294 153.374 389.406 153.087 389.629C152.799 389.853 152.582 390.16 152.437 390.551C152.291 390.938 152.218 391.378 152.218 391.872C152.218 392.373 152.291 392.811 152.437 393.188C152.586 393.56 152.804 393.852 153.092 394.061C153.383 394.267 153.74 394.37 154.163 394.37ZM162.318 396.165C161.799 396.165 161.332 396.073 160.917 395.888C160.505 395.7 160.178 395.423 159.937 395.057C159.699 394.691 159.58 394.24 159.58 393.704C159.58 393.243 159.665 392.861 159.836 392.559C160.006 392.257 160.239 392.016 160.533 391.835C160.828 391.653 161.16 391.517 161.529 391.424C161.902 391.328 162.288 391.259 162.685 391.217C163.165 391.167 163.554 391.123 163.852 391.083C164.15 391.041 164.367 390.977 164.502 390.892C164.64 390.803 164.71 390.666 164.71 390.482V390.45C164.71 390.048 164.591 389.738 164.353 389.517C164.115 389.297 163.772 389.187 163.325 389.187C162.852 389.187 162.478 389.29 162.201 389.496C161.927 389.702 161.743 389.945 161.647 390.226L159.846 389.97C159.988 389.473 160.223 389.058 160.549 388.724C160.876 388.386 161.276 388.134 161.748 387.967C162.22 387.797 162.742 387.712 163.314 387.712C163.708 387.712 164.1 387.758 164.491 387.85C164.882 387.942 165.239 388.095 165.562 388.308C165.885 388.518 166.144 388.804 166.339 389.166C166.538 389.528 166.638 389.981 166.638 390.524V396H164.784V394.876H164.72C164.603 395.103 164.438 395.316 164.225 395.515C164.015 395.711 163.751 395.869 163.431 395.989C163.115 396.107 162.744 396.165 162.318 396.165ZM162.819 394.748C163.206 394.748 163.541 394.672 163.825 394.519C164.109 394.363 164.328 394.157 164.48 393.901C164.637 393.646 164.715 393.367 164.715 393.065V392.101C164.654 392.151 164.551 392.197 164.406 392.239C164.264 392.282 164.104 392.319 163.926 392.351C163.749 392.383 163.573 392.412 163.399 392.436C163.225 392.461 163.074 392.483 162.946 392.5C162.659 392.539 162.401 392.603 162.174 392.692C161.947 392.781 161.767 392.905 161.636 393.065C161.505 393.221 161.439 393.424 161.439 393.672C161.439 394.027 161.569 394.295 161.828 394.477C162.087 394.658 162.417 394.748 162.819 394.748ZM168.577 396V387.818H170.446V389.182H170.532C170.681 388.71 170.936 388.346 171.299 388.09C171.664 387.831 172.082 387.701 172.55 387.701C172.657 387.701 172.776 387.706 172.907 387.717C173.042 387.724 173.154 387.737 173.243 387.754V389.528C173.161 389.5 173.032 389.475 172.854 389.453C172.68 389.429 172.511 389.416 172.348 389.416C171.996 389.416 171.68 389.493 171.4 389.645C171.123 389.794 170.904 390.002 170.745 390.268C170.585 390.535 170.505 390.842 170.505 391.19V396H168.577ZM176.732 396.165C176.213 396.165 175.746 396.073 175.331 395.888C174.919 395.7 174.592 395.423 174.351 395.057C174.113 394.691 173.994 394.24 173.994 393.704C173.994 393.243 174.079 392.861 174.25 392.559C174.42 392.257 174.653 392.016 174.947 391.835C175.242 391.653 175.574 391.517 175.944 391.424C176.316 391.328 176.702 391.259 177.099 391.217C177.579 391.167 177.968 391.123 178.266 391.083C178.564 391.041 178.781 390.977 178.916 390.892C179.054 390.803 179.124 390.666 179.124 390.482V390.45C179.124 390.048 179.005 389.738 178.767 389.517C178.529 389.297 178.186 389.187 177.739 389.187C177.266 389.187 176.892 389.29 176.615 389.496C176.341 389.702 176.157 389.945 176.061 390.226L174.26 389.97C174.402 389.473 174.637 389.058 174.963 388.724C175.29 388.386 175.69 388.134 176.162 387.967C176.634 387.797 177.156 387.712 177.728 387.712C178.122 387.712 178.515 387.758 178.905 387.85C179.296 387.942 179.653 388.095 179.976 388.308C180.299 388.518 180.558 388.804 180.754 389.166C180.952 389.528 181.052 389.981 181.052 390.524V396H179.198V394.876H179.134C179.017 395.103 178.852 395.316 178.639 395.515C178.429 395.711 178.165 395.869 177.845 395.989C177.529 396.107 177.158 396.165 176.732 396.165ZM177.233 394.748C177.62 394.748 177.955 394.672 178.239 394.519C178.523 394.363 178.742 394.157 178.895 393.901C179.051 393.646 179.129 393.367 179.129 393.065V392.101C179.069 392.151 178.966 392.197 178.82 392.239C178.678 392.282 178.518 392.319 178.341 392.351C178.163 392.383 177.987 392.412 177.813 392.436C177.639 392.461 177.488 392.483 177.36 392.5C177.073 392.539 176.815 392.603 176.588 392.692C176.361 392.781 176.181 392.905 176.05 393.065C175.919 393.221 175.853 393.424 175.853 393.672C175.853 394.027 175.983 394.295 176.242 394.477C176.501 394.658 176.831 394.748 177.233 394.748Z" fill="#5627FF"/>
<rect x="133" y="88" width="48" height="8" fill="white"/>
<rect x="102" y="107" width="48" height="8" fill="white"/>
<rect x="92" y="126" width="48" height="8" fill="white"/>
<rect x="78" y="145" width="48" height="8" fill="white"/>
<rect x="73" y="164" width="48" height="8" fill="white"/>
<rect x="54" y="183" width="48" height="8" fill="white"/>
<rect x="54" y="202" width="48" height="8" fill="white"/>
<rect x="54" y="221" width="48" height="8" fill="white"/>
<rect x="49" y="240" width="48" height="8" fill="white"/>
<rect x="54" y="259" width="48" height="8" fill="white"/>
<rect x="49" y="278" width="48" height="8" fill="white"/>
<rect x="54" y="297" width="48" height="8" fill="white"/>
<rect x="49" y="315" width="48" height="8" fill="white"/>
</svg>
