<svg width="32" height="32" viewBox="0 0 32 32" fill="none" xmlns="http://www.w3.org/2000/svg">
<g id="Group 1000014266">
<g id="&#229;&#189;&#162;&#231;&#138;&#182; 1 &#230;&#139;&#183;&#232;&#180;&#157; 25">
<path id="Vector" fill-rule="evenodd" clip-rule="evenodd" d="M22.9909 0H9.00568C2.4123 0 0 2.41179 0 9.00379V22.9962C0 29.5882 2.4123 32 9.00568 32H22.9909C29.5843 32 32 29.5882 32 22.9962V9.00379C32.0067 2.41179 29.5944 0 22.9909 0Z" fill="#C8102E"/>
</g>
<path id="Vector_2" d="M6.05316 16H6.92676V20.3091H6.05316V18.5584H4.08063V20.3091H3.20703V16H4.08063V17.7333H6.05316V16ZM10.9758 18.4648C10.9758 19.1581 10.6292 19.5395 9.99823 19.5395C9.36729 19.5395 9.01369 19.1581 9.01369 18.4267V16H8.14009V18.4613C8.14009 19.6712 8.81263 20.3645 9.98436 20.3645C11.1561 20.3645 11.8494 19.6712 11.8494 18.4232V16H10.9758V18.4648ZM21.0707 18.9605L20.0932 16H19.3756L18.4049 18.964L17.4516 16H16.5225L18.0236 20.3091H18.7481L19.7222 17.4803L20.6998 20.3091H21.4313L22.9324 16H22.0241L21.0707 18.9605ZM24.4958 18.4509H26.087V17.6709H24.4958V16.7904H26.8046V16H23.6361V20.2987H26.8878V19.5221H24.4958V18.4509ZM27.9278 20.2987H28.791V16H27.9278V20.2987ZM13.5758 19.4077L13.1841 20.3021H12.2932L14.1756 16H14.9452L16.8345 20.3021H15.9332L15.5622 19.4112L13.5758 19.4077ZM13.9017 18.6312H15.2156L14.5569 17.092L13.9017 18.6312Z" fill="white"/>
<path id="Vector_3" d="M15.9994 10.5191C14.546 10.5182 13.1525 9.94047 12.1249 8.91283C11.0972 7.88517 10.5195 6.49165 10.5186 5.03833H11.2916C11.2916 6.2869 11.7876 7.48433 12.6705 8.3672C13.5534 9.25007 14.7508 9.74606 15.9994 9.74606C17.2479 9.74606 18.4453 9.25007 19.3282 8.3672C20.2111 7.48433 20.7071 6.2869 20.7071 5.03833H21.4801C21.4792 6.49165 20.9015 7.88517 19.8738 8.91283C18.8462 9.94047 17.4527 10.5182 15.9994 10.5191Z" fill="white"/>
</g>
</svg>
