<svg width="326" height="326" viewBox="0 0 326 326" fill="none" xmlns="http://www.w3.org/2000/svg">
<circle cx="160" cy="160" r="159.5" fill="#FEFAE9" stroke="#F6CB1F"/>
<circle cx="160" cy="160" r="119.5" fill="#FEFBEB" stroke="#F6CB1F"/>
<circle cx="160" cy="160" r="79.5" fill="#FEFBED" stroke="#F6CB1F"/>
<rect x="101" y="136" width="118" height="48" rx="24" fill="#28B446"/>
<path d="M129 161.43C130.723 161.43 132.12 160.034 132.12 158.31C132.12 156.587 130.723 155.19 129 155.19C127.277 155.19 125.88 156.587 125.88 158.31C125.88 160.034 127.277 161.43 129 161.43Z" stroke="white" stroke-width="1.45015"/>
<path d="M120.62 156.49C122.59 147.83 135.42 147.84 137.38 156.5C138.53 161.58 135.37 165.88 132.6 168.54C130.59 170.48 127.41 170.48 125.39 168.54C122.63 165.88 119.47 161.57 120.62 156.49Z" stroke="white" stroke-width="1.45015"/>
<path d="M150.409 166V154.364H154.341C155.254 154.364 156 154.528 156.58 154.858C157.163 155.184 157.595 155.625 157.875 156.182C158.155 156.739 158.295 157.36 158.295 158.045C158.295 158.731 158.155 159.354 157.875 159.915C157.598 160.475 157.17 160.922 156.591 161.256C156.011 161.585 155.269 161.75 154.364 161.75H151.545V160.5H154.318C154.943 160.5 155.445 160.392 155.824 160.176C156.203 159.96 156.477 159.669 156.648 159.301C156.822 158.93 156.909 158.511 156.909 158.045C156.909 157.58 156.822 157.163 156.648 156.795C156.477 156.428 156.201 156.14 155.818 155.932C155.436 155.72 154.928 155.614 154.295 155.614H151.818V166H150.409ZM160.384 166V157.273H161.679V158.591H161.77C161.929 158.159 162.217 157.809 162.634 157.54C163.05 157.271 163.52 157.136 164.043 157.136C164.141 157.136 164.264 157.138 164.412 157.142C164.56 157.146 164.671 157.152 164.747 157.159V158.523C164.702 158.511 164.598 158.494 164.435 158.472C164.276 158.445 164.107 158.432 163.929 158.432C163.505 158.432 163.126 158.521 162.793 158.699C162.463 158.873 162.202 159.116 162.009 159.426C161.819 159.733 161.724 160.083 161.724 160.477V166H160.384ZM169.616 166.182C168.829 166.182 168.137 165.994 167.543 165.619C166.952 165.244 166.49 164.72 166.156 164.045C165.827 163.371 165.662 162.583 165.662 161.682C165.662 160.773 165.827 159.979 166.156 159.301C166.49 158.623 166.952 158.097 167.543 157.722C168.137 157.347 168.829 157.159 169.616 157.159C170.404 157.159 171.094 157.347 171.685 157.722C172.279 158.097 172.741 158.623 173.071 159.301C173.404 159.979 173.571 160.773 173.571 161.682C173.571 162.583 173.404 163.371 173.071 164.045C172.741 164.72 172.279 165.244 171.685 165.619C171.094 165.994 170.404 166.182 169.616 166.182ZM169.616 164.977C170.215 164.977 170.707 164.824 171.094 164.517C171.48 164.21 171.766 163.807 171.952 163.307C172.137 162.807 172.23 162.265 172.23 161.682C172.23 161.098 172.137 160.555 171.952 160.051C171.766 159.547 171.48 159.14 171.094 158.83C170.707 158.519 170.215 158.364 169.616 158.364C169.018 158.364 168.526 158.519 168.139 158.83C167.753 159.14 167.467 159.547 167.281 160.051C167.096 160.555 167.003 161.098 167.003 161.682C167.003 162.265 167.096 162.807 167.281 163.307C167.467 163.807 167.753 164.21 168.139 164.517C168.526 164.824 169.018 164.977 169.616 164.977ZM179.163 166.182C178.345 166.182 177.641 165.989 177.05 165.602C176.459 165.216 176.004 164.684 175.686 164.006C175.368 163.328 175.209 162.553 175.209 161.682C175.209 160.795 175.372 160.013 175.697 159.335C176.027 158.653 176.485 158.121 177.072 157.739C177.663 157.352 178.353 157.159 179.141 157.159C179.754 157.159 180.307 157.273 180.8 157.5C181.292 157.727 181.696 158.045 182.01 158.455C182.324 158.864 182.519 159.341 182.595 159.886H181.254C181.152 159.489 180.925 159.136 180.572 158.83C180.224 158.519 179.754 158.364 179.163 158.364C178.641 158.364 178.182 158.5 177.788 158.773C177.398 159.042 177.093 159.422 176.874 159.915C176.658 160.403 176.55 160.977 176.55 161.636C176.55 162.311 176.656 162.898 176.868 163.398C177.084 163.898 177.387 164.286 177.777 164.562C178.171 164.839 178.633 164.977 179.163 164.977C179.512 164.977 179.828 164.917 180.112 164.795C180.396 164.674 180.637 164.5 180.834 164.273C181.031 164.045 181.171 163.773 181.254 163.455H182.595C182.519 163.97 182.332 164.434 182.033 164.847C181.737 165.256 181.345 165.581 180.857 165.824C180.372 166.062 179.807 166.182 179.163 166.182ZM185.896 160.75V166H184.555V154.364H185.896V158.636H186.01C186.214 158.186 186.521 157.828 186.93 157.562C187.343 157.294 187.893 157.159 188.578 157.159C189.173 157.159 189.694 157.278 190.141 157.517C190.588 157.752 190.934 158.114 191.18 158.602C191.43 159.087 191.555 159.705 191.555 160.455V166H190.214V160.545C190.214 159.852 190.035 159.316 189.675 158.938C189.319 158.555 188.824 158.364 188.192 158.364C187.752 158.364 187.358 158.456 187.01 158.642C186.665 158.828 186.393 159.098 186.192 159.455C185.995 159.811 185.896 160.242 185.896 160.75ZM197.668 166.182C196.827 166.182 196.101 165.996 195.491 165.625C194.885 165.25 194.418 164.727 194.088 164.057C193.762 163.383 193.599 162.598 193.599 161.705C193.599 160.811 193.762 160.023 194.088 159.341C194.418 158.655 194.876 158.121 195.463 157.739C196.054 157.352 196.743 157.159 197.531 157.159C197.986 157.159 198.435 157.235 198.878 157.386C199.321 157.538 199.724 157.784 200.088 158.125C200.452 158.462 200.741 158.909 200.957 159.466C201.173 160.023 201.281 160.708 201.281 161.523V162.091H194.554V160.932H199.918C199.918 160.439 199.819 160 199.622 159.614C199.429 159.227 199.152 158.922 198.793 158.699C198.437 158.475 198.016 158.364 197.531 158.364C196.997 158.364 196.535 158.496 196.145 158.761C195.759 159.023 195.461 159.364 195.253 159.784C195.045 160.205 194.94 160.655 194.94 161.136V161.909C194.94 162.568 195.054 163.127 195.281 163.585C195.512 164.04 195.832 164.386 196.241 164.625C196.651 164.86 197.126 164.977 197.668 164.977C198.02 164.977 198.338 164.928 198.622 164.83C198.91 164.727 199.158 164.576 199.366 164.375C199.575 164.17 199.736 163.917 199.849 163.614L201.145 163.977C201.009 164.417 200.779 164.803 200.457 165.136C200.135 165.466 199.738 165.723 199.264 165.909C198.791 166.091 198.259 166.182 197.668 166.182Z" fill="white"/>
<rect x="185.5" y="200.5" width="39" height="39" rx="19.5" fill="white"/>
<rect x="185.5" y="200.5" width="39" height="39" rx="19.5" stroke="#D9D9D9"/>
<path d="M196.01 219.219V223.709C196.01 228.199 197.81 229.999 202.3 229.999H207.69C212.18 229.999 213.98 228.199 213.98 223.709V219.219" stroke="#03070E" stroke-width="1.45015" stroke-linecap="round" stroke-linejoin="round"/>
<path d="M205 220C206.83 220 208.18 218.51 208 216.68L207.34 210H202.67L202 216.68C201.82 218.51 203.17 220 205 220Z" stroke="#03070E" stroke-width="1.45015" stroke-linecap="round" stroke-linejoin="round"/>
<path d="M211.31 220C213.33 220 214.81 218.36 214.61 216.35L214.33 213.6C213.97 211 212.97 210 210.35 210H207.3L208 217.01C208.17 218.66 209.66 220 211.31 220Z" stroke="#03070E" stroke-width="1.45015" stroke-linecap="round" stroke-linejoin="round"/>
<path d="M198.64 220C200.29 220 201.78 218.66 201.94 217.01L202.16 214.8L202.64 210H199.59C196.97 210 195.97 211 195.61 213.6L195.34 216.35C195.14 218.36 196.62 220 198.64 220Z" stroke="#03070E" stroke-width="1.45015" stroke-linecap="round" stroke-linejoin="round"/>
<path d="M205 225C203.33 225 202.5 225.83 202.5 227.5V230H207.5V227.5C207.5 225.83 206.67 225 205 225Z" stroke="#03070E" stroke-width="1.45015" stroke-linecap="round" stroke-linejoin="round"/>
<rect x="20.5" y="130.5" width="39" height="39" rx="19.5" fill="white"/>
<rect x="20.5" y="130.5" width="39" height="39" rx="19.5" stroke="#D9D9D9"/>
<path d="M31.0103 149.219V153.709C31.0103 158.199 32.8103 159.999 37.3003 159.999H42.6903C47.1803 159.999 48.9803 158.199 48.9803 153.709V149.219" stroke="#03070E" stroke-width="1.45015" stroke-linecap="round" stroke-linejoin="round"/>
<path d="M40 150C41.83 150 43.18 148.51 43 146.68L42.34 140H37.67L37 146.68C36.82 148.51 38.17 150 40 150Z" stroke="#03070E" stroke-width="1.45015" stroke-linecap="round" stroke-linejoin="round"/>
<path d="M46.3103 150C48.3303 150 49.8103 148.36 49.6103 146.35L49.3303 143.6C48.9703 141 47.9703 140 45.3503 140H42.3003L43.0003 147.01C43.1703 148.66 44.6603 150 46.3103 150Z" stroke="#03070E" stroke-width="1.45015" stroke-linecap="round" stroke-linejoin="round"/>
<path d="M33.6404 150C35.2904 150 36.7804 148.66 36.9404 147.01L37.1604 144.8L37.6404 140H34.5904C31.9704 140 30.9704 141 30.6104 143.6L30.3404 146.35C30.1404 148.36 31.6204 150 33.6404 150Z" stroke="#03070E" stroke-width="1.45015" stroke-linecap="round" stroke-linejoin="round"/>
<path d="M40.0005 155C38.3305 155 37.5005 155.83 37.5005 157.5V160H42.5005V157.5C42.5005 155.83 41.6705 155 40.0005 155Z" stroke="#03070E" stroke-width="1.45015" stroke-linecap="round" stroke-linejoin="round"/>
<rect x="286.5" y="91.5" width="39" height="39" rx="19.5" fill="white"/>
<rect x="286.5" y="91.5" width="39" height="39" rx="19.5" stroke="#D9D9D9"/>
<path d="M297.01 110.219V114.709C297.01 119.199 298.81 120.999 303.3 120.999H308.69C313.18 120.999 314.98 119.199 314.98 114.709V110.219" stroke="#03070E" stroke-width="1.45015" stroke-linecap="round" stroke-linejoin="round"/>
<path d="M306 111C307.83 111 309.18 109.51 309 107.68L308.34 101H303.67L303 107.68C302.82 109.51 304.17 111 306 111Z" stroke="#03070E" stroke-width="1.45015" stroke-linecap="round" stroke-linejoin="round"/>
<path d="M312.31 111C314.33 111 315.81 109.36 315.61 107.35L315.33 104.6C314.97 102 313.97 101 311.35 101H308.3L309 108.01C309.17 109.66 310.66 111 312.31 111Z" stroke="#03070E" stroke-width="1.45015" stroke-linecap="round" stroke-linejoin="round"/>
<path d="M299.64 111C301.29 111 302.78 109.66 302.94 108.01L303.16 105.8L303.64 101H300.59C297.97 101 296.97 102 296.61 104.6L296.34 107.35C296.14 109.36 297.62 111 299.64 111Z" stroke="#03070E" stroke-width="1.45015" stroke-linecap="round" stroke-linejoin="round"/>
<path d="M306 116C304.33 116 303.5 116.83 303.5 118.5V121H308.5V118.5C308.5 116.83 307.67 116 306 116Z" stroke="#03070E" stroke-width="1.45015" stroke-linecap="round" stroke-linejoin="round"/>
<rect x="153.5" y="25.5" width="39" height="39" rx="19.5" fill="white"/>
<rect x="153.5" y="25.5" width="39" height="39" rx="19.5" stroke="#D9D9D9"/>
<path d="M164.01 44.2195V48.7095C164.01 53.1995 165.81 54.9995 170.3 54.9995H175.69C180.18 54.9995 181.98 53.1995 181.98 48.7095V44.2195" stroke="#03070E" stroke-width="1.45015" stroke-linecap="round" stroke-linejoin="round"/>
<path d="M173 45C174.83 45 176.18 43.51 176 41.68L175.34 35H170.67L170 41.68C169.82 43.51 171.17 45 173 45Z" stroke="#03070E" stroke-width="1.45015" stroke-linecap="round" stroke-linejoin="round"/>
<path d="M179.31 45C181.33 45 182.81 43.36 182.61 41.35L182.33 38.6C181.97 36 180.97 35 178.35 35H175.3L176 42.01C176.17 43.66 177.66 45 179.31 45Z" stroke="#03070E" stroke-width="1.45015" stroke-linecap="round" stroke-linejoin="round"/>
<path d="M166.64 45C168.29 45 169.78 43.66 169.94 42.01L170.16 39.8L170.64 35H167.59C164.97 35 163.97 36 163.61 38.6L163.34 41.35C163.14 43.36 164.62 45 166.64 45Z" stroke="#03070E" stroke-width="1.45015" stroke-linecap="round" stroke-linejoin="round"/>
<path d="M173 49.9995C171.33 49.9995 170.5 50.8295 170.5 52.4995V54.9995H175.5V52.4995C175.5 50.8295 174.67 49.9995 173 49.9995Z" stroke="#03070E" stroke-width="1.45015" stroke-linecap="round" stroke-linejoin="round"/>
<rect x="77.5" y="286.5" width="39" height="39" rx="19.5" fill="white"/>
<rect x="77.5" y="286.5" width="39" height="39" rx="19.5" stroke="#D9D9D9"/>
<path d="M88.0103 305.219V309.709C88.0103 314.199 89.8103 315.999 94.3003 315.999H99.6903C104.18 315.999 105.98 314.199 105.98 309.709V305.219" stroke="#03070E" stroke-width="1.45015" stroke-linecap="round" stroke-linejoin="round"/>
<path d="M97 306C98.83 306 100.18 304.51 100 302.68L99.34 296H94.67L94 302.68C93.82 304.51 95.17 306 97 306Z" stroke="#03070E" stroke-width="1.45015" stroke-linecap="round" stroke-linejoin="round"/>
<path d="M103.31 306C105.33 306 106.81 304.36 106.61 302.35L106.33 299.6C105.97 297 104.97 296 102.35 296H99.3003L100 303.01C100.17 304.66 101.66 306 103.31 306Z" stroke="#03070E" stroke-width="1.45015" stroke-linecap="round" stroke-linejoin="round"/>
<path d="M90.6404 306C92.2904 306 93.7804 304.66 93.9404 303.01L94.1604 300.8L94.6404 296H91.5904C88.9704 296 87.9704 297 87.6104 299.6L87.3404 302.35C87.1404 304.36 88.6204 306 90.6404 306Z" stroke="#03070E" stroke-width="1.45015" stroke-linecap="round" stroke-linejoin="round"/>
<path d="M97.0005 311C95.3305 311 94.5005 311.83 94.5005 313.5V316H99.5005V313.5C99.5005 311.83 98.6705 311 97.0005 311Z" stroke="#03070E" stroke-width="1.45015" stroke-linecap="round" stroke-linejoin="round"/>
</svg>
