<svg width="64" height="64" viewBox="0 0 64 64" fill="none" xmlns="http://www.w3.org/2000/svg">
<g id="Group 4278">
<path id="Star 1" d="M26.1553 6.25355C29.3174 2.8703 34.6826 2.8703 37.8447 6.25355L38.7024 7.17124C40.2795 8.85866 42.5089 9.78213 44.8173 9.70412L46.0727 9.66169C50.7009 9.50528 54.4947 13.2991 54.3383 17.9273L54.2959 19.1827C54.2179 21.4911 55.1413 23.7205 56.8288 25.2976L57.7464 26.1553C61.1297 29.3174 61.1297 34.6826 57.7464 37.8447L56.8288 38.7024C55.1413 40.2795 54.2179 42.5089 54.2959 44.8173L54.3383 46.0727C54.4947 50.7009 50.7009 54.4947 46.0727 54.3383L44.8173 54.2959C42.5089 54.2179 40.2795 55.1413 38.7024 56.8288L37.8447 57.7464C34.6826 61.1297 29.3174 61.1297 26.1553 57.7464L25.2976 56.8288C23.7205 55.1413 21.4911 54.2179 19.1827 54.2959L17.9273 54.3383C13.2991 54.4947 9.50528 50.7009 9.66169 46.0727L9.70412 44.8173C9.78213 42.5089 8.85867 40.2795 7.17124 38.7024L6.25355 37.8447C2.8703 34.6826 2.8703 29.3174 6.25355 26.1553L7.17124 25.2976C8.85866 23.7205 9.78213 21.4911 9.70412 19.1827L9.66169 17.9273C9.50528 13.2991 13.2991 9.50528 17.9273 9.66169L19.1827 9.70412C21.4911 9.78213 23.7205 8.85867 25.2976 7.17124L26.1553 6.25355Z" fill="#5627FF"/>
<g id="vuesax/bold/like">
<g id="like">
<path id="Vector" d="M28.3901 38.49V28.33C28.3901 27.93 28.5101 27.54 28.7301 27.21L31.4601 23.15C31.8901 22.5 32.9601 22.04 33.8701 22.38C34.8501 22.71 35.5001 23.81 35.2901 24.79L34.7701 28.06C34.7301 28.36 34.8101 28.63 34.9801 28.84C35.1501 29.03 35.4001 29.15 35.6701 29.15H39.7801C40.5701 29.15 41.2501 29.47 41.6501 30.03C42.0301 30.57 42.1001 31.27 41.8501 31.98L39.3901 39.47C39.0801 40.71 37.7301 41.72 36.3901 41.72H32.4901C31.8201 41.72 30.8801 41.49 30.4501 41.06L29.1701 40.07C28.6801 39.7 28.3901 39.11 28.3901 38.49Z" fill="white"/>
<path id="Vector_2" d="M25.21 26.38H24.18C22.63 26.38 22 26.98 22 28.46V38.52C22 40 22.63 40.6 24.18 40.6H25.21C26.76 40.6 27.39 40 27.39 38.52V28.46C27.39 26.98 26.76 26.38 25.21 26.38Z" fill="white"/>
</g>
</g>
</g>
</svg>
