<svg width="64" height="64" viewBox="0 0 64 64" fill="none" xmlns="http://www.w3.org/2000/svg">
<g id="Group 4279">
<path id="Star 1" d="M26.1553 6.25355C29.3174 2.8703 34.6826 2.8703 37.8447 6.25355L38.7024 7.17124C40.2795 8.85866 42.5089 9.78213 44.8173 9.70412L46.0727 9.66169C50.7009 9.50528 54.4947 13.2991 54.3383 17.9273L54.2959 19.1827C54.2179 21.4911 55.1413 23.7205 56.8288 25.2976L57.7464 26.1553C61.1297 29.3174 61.1297 34.6826 57.7464 37.8447L56.8288 38.7024C55.1413 40.2795 54.2179 42.5089 54.2959 44.8173L54.3383 46.0727C54.4947 50.7009 50.7009 54.4947 46.0727 54.3383L44.8173 54.2959C42.5089 54.2179 40.2795 55.1413 38.7024 56.8288L37.8447 57.7464C34.6826 61.1297 29.3174 61.1297 26.1553 57.7464L25.2976 56.8288C23.7205 55.1413 21.4911 54.2179 19.1827 54.2959L17.9273 54.3383C13.2991 54.4947 9.50528 50.7009 9.66169 46.0727L9.70412 44.8173C9.78213 42.5089 8.85867 40.2795 7.17124 38.7024L6.25355 37.8447C2.8703 34.6826 2.8703 29.3174 6.25355 26.1553L7.17124 25.2976C8.85866 23.7205 9.78213 21.4911 9.70412 19.1827L9.66169 17.9273C9.50528 13.2991 13.2991 9.50528 17.9273 9.66169L19.1827 9.70412C21.4911 9.78213 23.7205 8.85867 25.2976 7.17124L26.1553 6.25355Z" fill="#5627FF"/>
<g id="vuesax/bold/star">
<g id="star">
<path id="Vector" d="M35.3899 25.21L36.7999 28.03C36.9899 28.42 37.4999 28.79 37.9299 28.87L40.4799 29.29C42.1099 29.56 42.4899 30.74 41.3199 31.92L39.3299 33.91C38.9999 34.24 38.8099 34.89 38.9199 35.36L39.4899 37.82C39.9399 39.76 38.8999 40.52 37.1899 39.5L34.7999 38.08C34.3699 37.82 33.6499 37.82 33.2199 38.08L30.8299 39.5C29.1199 40.51 28.0799 39.76 28.5299 37.82L29.0999 35.36C29.1899 34.88 28.9999 34.23 28.6699 33.9L26.6799 31.91C25.5099 30.74 25.8899 29.56 27.5199 29.28L30.0699 28.86C30.4999 28.79 31.0099 28.41 31.1999 28.02L32.6099 25.2C33.3799 23.68 34.6199 23.68 35.3899 25.21Z" fill="white"/>
<path id="Vector_2" d="M28 25.75H22C21.59 25.75 21.25 25.41 21.25 25C21.25 24.59 21.59 24.25 22 24.25H28C28.41 24.25 28.75 24.59 28.75 25C28.75 25.41 28.41 25.75 28 25.75Z" fill="white"/>
<path id="Vector_3" d="M25 39.75H22C21.59 39.75 21.25 39.41 21.25 39C21.25 38.59 21.59 38.25 22 38.25H25C25.41 38.25 25.75 38.59 25.75 39C25.75 39.41 25.41 39.75 25 39.75Z" fill="white"/>
<path id="Vector_4" d="M23 32.75H22C21.59 32.75 21.25 32.41 21.25 32C21.25 31.59 21.59 31.25 22 31.25H23C23.41 31.25 23.75 31.59 23.75 32C23.75 32.41 23.41 32.75 23 32.75Z" fill="white"/>
</g>
</g>
</g>
</svg>
