<svg width="120" height="120" viewBox="0 0 120 120" fill="none" xmlns="http://www.w3.org/2000/svg">
<path d="M0.750458 63.2254C0.750458 94.1667 25.8333 119.25 56.7746 119.25C87.7159 119.25 112.799 94.1667 112.799 63.2254C112.799 32.2841 87.7159 7.20117 56.7746 7.20117C25.8333 7.20117 0.750458 32.2841 0.750458 63.2254Z" fill="white" stroke="#05060F" stroke-width="1.5"/>
<path d="M16.2338 63.2259C16.2338 85.6157 34.3843 103.766 56.7741 103.766C79.1639 103.766 97.3145 85.6157 97.3145 63.2259C97.3145 40.8361 79.1639 22.6855 56.7741 22.6855C34.3843 22.6855 16.2338 40.8361 16.2338 63.2259Z" fill="#5627FF" stroke="#05060F" stroke-width="1.5"/>
<path d="M31.7182 63.2254C31.7182 77.0637 42.9363 88.2818 56.7746 88.2818C70.6129 88.2818 81.8311 77.0637 81.8311 63.2254C81.8311 49.3871 70.6129 38.1689 56.7746 38.1689C42.9363 38.1689 31.7182 49.3871 31.7182 63.2254Z" fill="white" stroke="#05060F" stroke-width="1.5"/>
<path d="M47.2015 63.2258C47.2015 68.5126 51.4873 72.7984 56.7741 72.7984C62.0609 72.7984 66.3467 68.5126 66.3467 63.2258C66.3467 57.939 62.0609 53.6532 56.7741 53.6532C51.4873 53.6532 47.2015 57.939 47.2015 63.2258Z" fill="#5627FF" stroke="#05060F" stroke-width="1.5"/>
<path d="M106.95 13.6387L106.459 13.5406L106.361 13.0503L104.056 1.52126L95.0077 10.5691L97.4116 22.5884L109.431 24.9923L118.479 15.9445L106.95 13.6387Z" fill="#5627FF" stroke="#05060F" stroke-width="1.5"/>
<path d="M113.025 9.57565C113.74 8.86081 113.74 7.70181 113.025 6.98696C112.31 6.27211 111.151 6.27211 110.436 6.98696L57.3194 60.1034C56.6046 60.8183 56.6046 61.9773 57.3194 62.6921C58.0342 63.407 59.1932 63.407 59.9081 62.6921L113.025 9.57565Z" fill="white" stroke="#05060F" stroke-width="1.5"/>
</svg>
