<svg width="120" height="120" viewBox="0 0 120 120" fill="none" xmlns="http://www.w3.org/2000/svg">
<path d="M0 60C0 93.1371 26.8629 120 60 120C93.1371 120 120 93.1371 120 60C120 26.8629 93.1371 0 60 0C26.8629 0 0 26.8629 0 60Z" fill="white"/>
<path d="M75.9379 80.8595C71.5551 84.8205 65.9301 87.0002 60.0942 87.0002C52.0317 87.0002 44.5551 82.8752 40.0785 75.9611C38.6723 73.8049 35.7895 73.1955 33.6332 74.5783C31.477 75.9845 30.8676 78.8674 32.2504 81.0236C38.4613 90.6095 48.8676 96.3283 60.0942 96.3283C68.2504 96.3283 76.102 93.2814 82.1957 87.7736C84.1176 86.0392 84.2582 83.1095 82.5238 81.1877C80.8129 79.2658 77.8598 79.1252 75.9379 80.8595Z" fill="#F6CB1F"/>
<path d="M69.5859 30.8203C70.4766 29.1796 70.9687 27.2578 70.8984 25.2421C70.7109 19.7812 66.3281 15.2343 60.8672 14.8593C54.5625 14.414 49.2891 19.4296 49.2891 25.6406C49.2891 27.5156 49.7812 29.2734 50.6016 30.8203C37.4531 34.9687 28.0312 47.4843 28.0312 62.1796C28.0312 63.4218 28.1016 64.664 28.2188 65.9062C28.4063 67.6171 29.8594 68.9062 31.5469 68.9062H88.6172C90.3281 68.9062 91.7578 67.6171 91.9453 65.9062C92.0859 64.664 92.1328 63.4218 92.1328 62.1796C92.1797 47.4843 82.7344 34.9687 69.5859 30.8203ZM56.8594 47.8828C50.8359 47.8828 45.9141 52.8046 45.9141 58.8281C45.9141 60.6328 44.4375 62.0859 42.6562 62.0859C40.8516 62.0859 39.3984 60.6093 39.3984 58.8281C39.4219 49.1953 47.25 41.3671 56.8828 41.3437C58.6875 41.3437 60.1406 42.8203 60.1406 44.6015C60.1406 46.4296 58.6641 47.8828 56.8594 47.8828ZM63.7734 26.2734C63.5156 27.8203 62.2734 29.0624 60.7266 29.3203C58.1719 29.7421 55.9922 27.5624 56.4141 25.0078C56.6719 23.4609 57.9141 22.2187 59.4609 21.9609C62.0156 21.539 64.1953 23.7421 63.7734 26.2734Z" fill="black"/>
</svg>
