<svg width="236" height="136" viewBox="0 0 236 136" fill="none" xmlns="http://www.w3.org/2000/svg">
<g filter="url(#filter0_d_1_157)">
<rect x="36" y="20" width="164" height="64" rx="32" fill="white"/>
<path d="M69.9593 38.6667C62.5993 38.6667 56.626 44.6401 56.626 52.0001C56.626 59.3601 62.5993 65.3334 69.9593 65.3334C77.3193 65.3334 83.2926 59.3601 83.2926 52.0001C83.2926 44.6401 77.3326 38.6667 69.9593 38.6667ZM74.9593 52.4667L69.9993 58.1067L69.4126 58.7734C68.5993 59.6934 67.9326 59.4534 67.9326 58.2134V52.9334H65.666C64.6393 52.9334 64.3593 52.3067 65.0393 51.5334L69.9993 45.8934L70.586 45.2267C71.3993 44.3067 72.066 44.5467 72.066 45.7867V51.0667H74.3326C75.3593 51.0667 75.6393 51.6934 74.9593 52.4667Z" fill="#5627FF"/>
<path d="M95.7014 59V45.9091H103.602V47.3153H97.2867V51.7386H103.193V53.1449H97.2867V57.5938H103.704V59H95.7014ZM109.144 59.2301C108.522 59.2301 107.957 59.1129 107.45 58.8786C106.943 58.6399 106.54 58.2969 106.242 57.8494C105.944 57.3977 105.794 56.8523 105.794 56.2131C105.794 55.6506 105.905 55.1946 106.127 54.8452C106.348 54.4915 106.645 54.2145 107.015 54.0142C107.386 53.8139 107.795 53.6648 108.243 53.5668C108.694 53.4645 109.148 53.3835 109.604 53.3239C110.201 53.2472 110.684 53.1896 111.055 53.1513C111.43 53.1087 111.703 53.0384 111.873 52.9403C112.048 52.8423 112.135 52.6719 112.135 52.429V52.3778C112.135 51.7472 111.963 51.2571 111.618 50.9077C111.277 50.5582 110.759 50.3835 110.064 50.3835C109.344 50.3835 108.78 50.5412 108.37 50.8565C107.961 51.1719 107.674 51.5085 107.508 51.8665L106.076 51.3551C106.331 50.7585 106.672 50.294 107.098 49.9616C107.529 49.625 107.998 49.3906 108.505 49.2585C109.016 49.1222 109.519 49.054 110.013 49.054C110.329 49.054 110.691 49.0923 111.1 49.169C111.513 49.2415 111.912 49.3928 112.295 49.6229C112.683 49.853 113.005 50.2003 113.26 50.6648C113.516 51.1293 113.644 51.7514 113.644 52.5312V59H112.135V57.6705H112.059C111.956 57.8835 111.786 58.1115 111.547 58.3544C111.309 58.5973 110.991 58.804 110.595 58.9744C110.199 59.1449 109.715 59.2301 109.144 59.2301ZM109.374 57.875C109.971 57.875 110.473 57.7578 110.883 57.5234C111.296 57.2891 111.607 56.9865 111.816 56.6158C112.029 56.245 112.135 55.8551 112.135 55.446V54.0653C112.071 54.142 111.931 54.2124 111.714 54.2763C111.5 54.3359 111.253 54.3892 110.972 54.4361C110.695 54.4787 110.424 54.517 110.16 54.5511C109.9 54.581 109.689 54.6065 109.527 54.6278C109.135 54.679 108.769 54.7621 108.428 54.8771C108.091 54.9879 107.819 55.1562 107.61 55.3821C107.405 55.6037 107.303 55.9062 107.303 56.2898C107.303 56.8139 107.497 57.2102 107.885 57.4787C108.277 57.7429 108.773 57.875 109.374 57.875ZM123.352 51.3807L121.997 51.7642C121.911 51.5384 121.786 51.3189 121.62 51.1058C121.458 50.8885 121.236 50.7095 120.955 50.5689C120.674 50.4283 120.313 50.358 119.875 50.358C119.274 50.358 118.773 50.4964 118.372 50.7734C117.976 51.0462 117.778 51.3935 117.778 51.8153C117.778 52.1903 117.914 52.4865 118.187 52.7038C118.46 52.9212 118.886 53.1023 119.465 53.2472L120.923 53.6051C121.801 53.8182 122.455 54.1442 122.885 54.5831C123.316 55.0178 123.531 55.5781 123.531 56.2642C123.531 56.8267 123.369 57.3295 123.045 57.7727C122.725 58.2159 122.278 58.5653 121.703 58.821C121.127 59.0767 120.458 59.2045 119.696 59.2045C118.694 59.2045 117.865 58.9872 117.209 58.5526C116.553 58.1179 116.137 57.483 115.963 56.6477L117.394 56.2898C117.531 56.8182 117.789 57.2145 118.168 57.4787C118.551 57.7429 119.052 57.875 119.67 57.875C120.373 57.875 120.931 57.7259 121.345 57.4276C121.762 57.125 121.971 56.7628 121.971 56.3409C121.971 56 121.852 55.7145 121.613 55.4844C121.375 55.25 121.008 55.0753 120.514 54.9602L118.877 54.5767C117.978 54.3636 117.318 54.0334 116.896 53.5859C116.478 53.1342 116.269 52.5696 116.269 51.892C116.269 51.3381 116.425 50.848 116.736 50.4219C117.051 49.9957 117.48 49.6612 118.021 49.4183C118.566 49.1754 119.184 49.054 119.875 49.054C120.846 49.054 121.609 49.267 122.163 49.6932C122.721 50.1193 123.117 50.6818 123.352 51.3807ZM125.802 59V49.1818H127.31V59H125.802ZM126.569 47.5455C126.275 47.5455 126.021 47.4453 125.808 47.245C125.599 47.0447 125.495 46.804 125.495 46.5227C125.495 46.2415 125.599 46.0007 125.808 45.8004C126.021 45.6001 126.275 45.5 126.569 45.5C126.863 45.5 127.114 45.6001 127.323 45.8004C127.536 46.0007 127.642 46.2415 127.642 46.5227C127.642 46.804 127.536 47.0447 127.323 47.245C127.114 47.4453 126.863 47.5455 126.569 47.5455ZM134.19 59.2045C133.244 59.2045 132.427 58.9957 131.741 58.5781C131.06 58.1562 130.533 57.5682 130.163 56.8139C129.796 56.0554 129.613 55.1733 129.613 54.1676C129.613 53.1619 129.796 52.2756 130.163 51.5085C130.533 50.7372 131.049 50.1364 131.709 49.706C132.374 49.2713 133.15 49.054 134.036 49.054C134.547 49.054 135.052 49.1392 135.551 49.3097C136.05 49.4801 136.503 49.7571 136.913 50.1406C137.322 50.5199 137.648 51.0227 137.891 51.6491C138.133 52.2756 138.255 53.0469 138.255 53.9631V54.6023H130.687V53.2983H136.721C136.721 52.7443 136.61 52.25 136.388 51.8153C136.171 51.3807 135.86 51.0376 135.455 50.7862C135.055 50.5348 134.582 50.4091 134.036 50.4091C133.435 50.4091 132.915 50.5582 132.476 50.8565C132.042 51.1506 131.707 51.5341 131.473 52.0071C131.239 52.4801 131.121 52.9872 131.121 53.5284V54.3977C131.121 55.1392 131.249 55.7678 131.505 56.2834C131.765 56.7947 132.125 57.1847 132.585 57.4531C133.045 57.7173 133.58 57.8494 134.19 57.8494C134.586 57.8494 134.944 57.794 135.263 57.6832C135.587 57.5682 135.866 57.3977 136.101 57.1719C136.335 56.9418 136.516 56.6562 136.644 56.3153L138.101 56.7244C137.948 57.2188 137.69 57.6534 137.328 58.0284C136.966 58.3991 136.518 58.6889 135.986 58.8977C135.453 59.1023 134.854 59.2045 134.19 59.2045ZM140.55 59V49.1818H142.007V50.6648H142.109C142.288 50.179 142.612 49.7848 143.081 49.4822C143.55 49.1797 144.078 49.0284 144.666 49.0284C144.777 49.0284 144.915 49.0305 145.082 49.0348C145.248 49.0391 145.373 49.0455 145.459 49.054V50.5881C145.408 50.5753 145.29 50.5561 145.107 50.5305C144.928 50.5007 144.739 50.4858 144.538 50.4858C144.061 50.4858 143.635 50.5859 143.26 50.7862C142.889 50.9822 142.595 51.255 142.378 51.6044C142.165 51.9496 142.058 52.3437 142.058 52.7869V59H140.55ZM152.514 59V45.9091H154.099V57.5938H160.184V59H152.514ZM162.434 59V49.1818H163.943V59H162.434ZM163.201 47.5455C162.907 47.5455 162.654 47.4453 162.441 47.245C162.232 47.0447 162.128 46.804 162.128 46.5227C162.128 46.2415 162.232 46.0007 162.441 45.8004C162.654 45.6001 162.907 45.5 163.201 45.5C163.495 45.5 163.747 45.6001 163.956 45.8004C164.169 46.0007 164.275 46.2415 164.275 46.5227C164.275 46.804 164.169 47.0447 163.956 47.245C163.747 47.4453 163.495 47.5455 163.201 47.5455ZM171.078 49.1818V50.4602H165.785V49.1818H171.078ZM167.371 59V47.8267C167.371 47.2642 167.503 46.7955 167.767 46.4205C168.031 46.0455 168.374 45.7642 168.796 45.5767C169.218 45.3892 169.663 45.2955 170.132 45.2955C170.503 45.2955 170.805 45.3253 171.04 45.3849C171.274 45.4446 171.449 45.5 171.564 45.5511L171.129 46.8551C171.052 46.8295 170.946 46.7976 170.81 46.7592C170.677 46.7209 170.503 46.7017 170.285 46.7017C169.787 46.7017 169.427 46.8274 169.205 47.0788C168.988 47.3303 168.879 47.6989 168.879 48.1847V59H167.371ZM176.904 59.2045C175.958 59.2045 175.142 58.9957 174.456 58.5781C173.774 58.1562 173.248 57.5682 172.877 56.8139C172.511 56.0554 172.328 55.1733 172.328 54.1676C172.328 53.1619 172.511 52.2756 172.877 51.5085C173.248 50.7372 173.764 50.1364 174.424 49.706C175.089 49.2713 175.865 49.054 176.751 49.054C177.262 49.054 177.767 49.1392 178.266 49.3097C178.764 49.4801 179.218 49.7571 179.627 50.1406C180.036 50.5199 180.362 51.0227 180.605 51.6491C180.848 52.2756 180.97 53.0469 180.97 53.9631V54.6023H173.402V53.2983H179.436C179.436 52.7443 179.325 52.25 179.103 51.8153C178.886 51.3807 178.575 51.0376 178.17 50.7862C177.769 50.5348 177.296 50.4091 176.751 50.4091C176.15 50.4091 175.63 50.5582 175.191 50.8565C174.757 51.1506 174.422 51.5341 174.188 52.0071C173.953 52.4801 173.836 52.9872 173.836 53.5284V54.3977C173.836 55.1392 173.964 55.7678 174.22 56.2834C174.48 56.7947 174.84 57.1847 175.3 57.4531C175.76 57.7173 176.295 57.8494 176.904 57.8494C177.301 57.8494 177.659 57.794 177.978 57.6832C178.302 57.5682 178.581 57.3977 178.816 57.1719C179.05 56.9418 179.231 56.6562 179.359 56.3153L180.816 56.7244C180.663 57.2188 180.405 57.6534 180.043 58.0284C179.681 58.3991 179.233 58.6889 178.701 58.8977C178.168 59.1023 177.569 59.2045 176.904 59.2045Z" fill="#05060F" fill-opacity="0.8"/>
</g>
<defs>
<filter id="filter0_d_1_157" x="0" y="0" width="236" height="136" filterUnits="userSpaceOnUse" color-interpolation-filters="sRGB">
<feFlood flood-opacity="0" result="BackgroundImageFix"/>
<feColorMatrix in="SourceAlpha" type="matrix" values="0 0 0 0 0 0 0 0 0 0 0 0 0 0 0 0 0 0 127 0" result="hardAlpha"/>
<feOffset dy="16"/>
<feGaussianBlur stdDeviation="18"/>
<feComposite in2="hardAlpha" operator="out"/>
<feColorMatrix type="matrix" values="0 0 0 0 0.0196078 0 0 0 0 0.0235294 0 0 0 0 0.0588235 0 0 0 0.04 0"/>
<feBlend mode="normal" in2="BackgroundImageFix" result="effect1_dropShadow_1_157"/>
<feBlend mode="normal" in="SourceGraphic" in2="effect1_dropShadow_1_157" result="shape"/>
</filter>
</defs>
</svg>
