<svg width="256" height="136" viewBox="0 0 256 136" fill="none" xmlns="http://www.w3.org/2000/svg">
<g filter="url(#filter0_d_1_141)">
<rect x="36" y="20" width="184" height="64" rx="32" fill="white"/>
<path d="M69 60.3332H66C64.5333 60.3332 63.3333 61.5332 63.3333 62.9999V63.3332H62C61.4533 63.3332 61 63.7866 61 64.3332C61 64.8799 61.4533 65.3332 62 65.3332H78C78.5467 65.3332 79 64.8799 79 64.3332C79 63.7866 78.5467 63.3332 78 63.3332H76.6667V62.9999C76.6667 61.5332 75.4667 60.3332 74 60.3332H71V57.2799C70.6667 57.3199 70.3333 57.3332 70 57.3332C69.6667 57.3332 69.3333 57.3199 69 57.2799V60.3332Z" fill="#5627FF"/>
<path d="M78.64 51.5201C79.52 51.1867 80.2934 50.6401 80.9067 50.0267C82.1467 48.6534 82.96 47.0134 82.96 45.0934C82.96 43.1734 81.4534 41.6667 79.5334 41.6667H78.7867C77.92 39.8934 76.1067 38.6667 74 38.6667H66C63.8934 38.6667 62.08 39.8934 61.2134 41.6667H60.4667C58.5467 41.6667 57.04 43.1734 57.04 45.0934C57.04 47.0134 57.8534 48.6534 59.0934 50.0267C59.7067 50.6401 60.48 51.1867 61.36 51.5201C62.7467 54.9334 66.08 57.3334 70 57.3334C73.92 57.3334 77.2534 54.9334 78.64 51.5201ZM73.7867 47.2667L72.96 48.2801C72.8267 48.4267 72.7334 48.7201 72.7467 48.9201L72.8267 50.2267C72.88 51.0267 72.3067 51.4401 71.56 51.1467L70.3467 50.6667C70.16 50.6001 69.84 50.6001 69.6534 50.6667L68.44 51.1467C67.6934 51.4401 67.12 51.0267 67.1734 50.2267L67.2534 48.9201C67.2667 48.7201 67.1734 48.4267 67.04 48.2801L66.2134 47.2667C65.6934 46.6534 65.92 45.9734 66.6934 45.7734L67.96 45.4534C68.16 45.4001 68.4 45.2134 68.5067 45.0401L69.2134 43.9467C69.6534 43.2667 70.3467 43.2667 70.7867 43.9467L71.4934 45.0401C71.6 45.2134 71.84 45.4001 72.04 45.4534L73.3067 45.7734C74.08 45.9734 74.3067 46.6534 73.7867 47.2667Z" fill="#5627FF"/>
<path d="M96.2013 59H94.5393L99.3461 45.9091H100.983L105.789 59H104.127L100.215 47.9801H100.113L96.2013 59ZM96.8149 53.8864H103.514V55.2926H96.8149V53.8864ZM111.331 59.2045C110.513 59.2045 109.791 58.9979 109.164 58.5845C108.538 58.1669 108.048 57.5788 107.694 56.8203C107.34 56.0575 107.164 55.1562 107.164 54.1165C107.164 53.0852 107.34 52.1903 107.694 51.4318C108.048 50.6733 108.54 50.0874 109.171 49.674C109.801 49.2607 110.53 49.054 111.357 49.054C111.996 49.054 112.501 49.1605 112.872 49.3736C113.247 49.5824 113.532 49.821 113.728 50.0895C113.929 50.3537 114.084 50.571 114.195 50.7415H114.323V45.9091H115.831V59H114.374V57.4915H114.195C114.084 57.6705 113.926 57.8963 113.722 58.169C113.517 58.4375 113.225 58.6783 112.846 58.8913C112.467 59.1001 111.962 59.2045 111.331 59.2045ZM111.536 57.8494C112.141 57.8494 112.652 57.6918 113.07 57.3764C113.487 57.0568 113.805 56.6158 114.022 56.0533C114.24 55.4865 114.348 54.8324 114.348 54.0909C114.348 53.358 114.242 52.7166 114.029 52.1669C113.816 51.6129 113.5 51.1825 113.083 50.8757C112.665 50.5646 112.149 50.4091 111.536 50.4091C110.897 50.4091 110.364 50.5732 109.938 50.9013C109.516 51.2251 109.198 51.6662 108.985 52.2244C108.777 52.7784 108.672 53.4006 108.672 54.0909C108.672 54.7898 108.779 55.4247 108.992 55.9957C109.209 56.5625 109.529 57.0142 109.951 57.3509C110.377 57.6832 110.905 57.8494 111.536 57.8494ZM122.511 59.2045C121.693 59.2045 120.97 58.9979 120.344 58.5845C119.718 58.1669 119.228 57.5788 118.874 56.8203C118.52 56.0575 118.343 55.1562 118.343 54.1165C118.343 53.0852 118.52 52.1903 118.874 51.4318C119.228 50.6733 119.72 50.0874 120.35 49.674C120.981 49.2607 121.71 49.054 122.536 49.054C123.176 49.054 123.681 49.1605 124.051 49.3736C124.426 49.5824 124.712 49.821 124.908 50.0895C125.108 50.3537 125.264 50.571 125.375 50.7415H125.502V45.9091H127.011V59H125.554V57.4915H125.375C125.264 57.6705 125.106 57.8963 124.902 58.169C124.697 58.4375 124.405 58.6783 124.026 58.8913C123.647 59.1001 123.142 59.2045 122.511 59.2045ZM122.715 57.8494C123.321 57.8494 123.832 57.6918 124.25 57.3764C124.667 57.0568 124.985 56.6158 125.202 56.0533C125.419 55.4865 125.528 54.8324 125.528 54.0909C125.528 53.358 125.421 52.7166 125.208 52.1669C124.995 51.6129 124.68 51.1825 124.262 50.8757C123.845 50.5646 123.329 50.4091 122.715 50.4091C122.076 50.4091 121.544 50.5732 121.117 50.9013C120.696 51.2251 120.378 51.6662 120.165 52.2244C119.956 52.7784 119.852 53.4006 119.852 54.0909C119.852 54.7898 119.958 55.4247 120.171 55.9957C120.389 56.5625 120.708 57.0142 121.13 57.3509C121.556 57.6832 122.085 57.8494 122.715 57.8494ZM134.1 59.2045C133.154 59.2045 132.338 58.9957 131.652 58.5781C130.97 58.1562 130.443 57.5682 130.073 56.8139C129.706 56.0554 129.523 55.1733 129.523 54.1676C129.523 53.1619 129.706 52.2756 130.073 51.5085C130.443 50.7372 130.959 50.1364 131.62 49.706C132.284 49.2713 133.06 49.054 133.946 49.054C134.458 49.054 134.963 49.1392 135.461 49.3097C135.96 49.4801 136.414 49.7571 136.823 50.1406C137.232 50.5199 137.558 51.0227 137.801 51.6491C138.044 52.2756 138.165 53.0469 138.165 53.9631V54.6023H130.597V53.2983H136.631C136.631 52.7443 136.52 52.25 136.299 51.8153C136.081 51.3807 135.77 51.0376 135.365 50.7862C134.965 50.5348 134.492 50.4091 133.946 50.4091C133.345 50.4091 132.826 50.5582 132.387 50.8565C131.952 51.1506 131.617 51.5341 131.383 52.0071C131.149 52.4801 131.032 52.9872 131.032 53.5284V54.3977C131.032 55.1392 131.159 55.7678 131.415 56.2834C131.675 56.7947 132.035 57.1847 132.495 57.4531C132.956 57.7173 133.49 57.8494 134.1 57.8494C134.496 57.8494 134.854 57.794 135.174 57.6832C135.497 57.5682 135.777 57.3977 136.011 57.1719C136.245 56.9418 136.426 56.6562 136.554 56.3153L138.012 56.7244C137.858 57.2188 137.6 57.6534 137.238 58.0284C136.876 58.3991 136.429 58.6889 135.896 58.8977C135.363 59.1023 134.764 59.2045 134.1 59.2045ZM144.167 59.2045C143.349 59.2045 142.627 58.9979 142 58.5845C141.374 58.1669 140.884 57.5788 140.53 56.8203C140.176 56.0575 140 55.1562 140 54.1165C140 53.0852 140.176 52.1903 140.53 51.4318C140.884 50.6733 141.376 50.0874 142.007 49.674C142.637 49.2607 143.366 49.054 144.193 49.054C144.832 49.054 145.337 49.1605 145.708 49.3736C146.083 49.5824 146.368 49.821 146.564 50.0895C146.764 50.3537 146.92 50.571 147.031 50.7415H147.159V45.9091H148.667V59H147.21V57.4915H147.031C146.92 57.6705 146.762 57.8963 146.558 58.169C146.353 58.4375 146.061 58.6783 145.682 58.8913C145.303 59.1001 144.798 59.2045 144.167 59.2045ZM144.372 57.8494C144.977 57.8494 145.488 57.6918 145.906 57.3764C146.323 57.0568 146.641 56.6158 146.858 56.0533C147.076 55.4865 147.184 54.8324 147.184 54.0909C147.184 53.358 147.078 52.7166 146.865 52.1669C146.652 51.6129 146.336 51.1825 145.919 50.8757C145.501 50.5646 144.985 50.4091 144.372 50.4091C143.733 50.4091 143.2 50.5732 142.774 50.9013C142.352 51.2251 142.034 51.6662 141.821 52.2244C141.612 52.7784 141.508 53.4006 141.508 54.0909C141.508 54.7898 141.615 55.4247 141.828 55.9957C142.045 56.5625 142.365 57.0142 142.786 57.3509C143.213 57.6832 143.741 57.8494 144.372 57.8494ZM157.443 45.9091L161.33 56.929H161.483L165.37 45.9091H167.032L162.225 59H160.588L155.782 45.9091H157.443ZM170.841 59.2301C170.219 59.2301 169.654 59.1129 169.147 58.8786C168.64 58.6399 168.237 58.2969 167.939 57.8494C167.641 57.3977 167.492 56.8523 167.492 56.2131C167.492 55.6506 167.603 55.1946 167.824 54.8452C168.046 54.4915 168.342 54.2145 168.713 54.0142C169.083 53.8139 169.492 53.6648 169.94 53.5668C170.392 53.4645 170.845 53.3835 171.301 53.3239C171.898 53.2472 172.382 53.1896 172.752 53.1513C173.127 53.1087 173.4 53.0384 173.571 52.9403C173.745 52.8423 173.833 52.6719 173.833 52.429V52.3778C173.833 51.7472 173.66 51.2571 173.315 50.9077C172.974 50.5582 172.456 50.3835 171.762 50.3835C171.041 50.3835 170.477 50.5412 170.068 50.8565C169.659 51.1719 169.371 51.5085 169.205 51.8665L167.773 51.3551C168.029 50.7585 168.37 50.294 168.796 49.9616C169.226 49.625 169.695 49.3906 170.202 49.2585C170.713 49.1222 171.216 49.054 171.71 49.054C172.026 49.054 172.388 49.0923 172.797 49.169C173.21 49.2415 173.609 49.3928 173.992 49.6229C174.38 49.853 174.702 50.2003 174.958 50.6648C175.213 51.1293 175.341 51.7514 175.341 52.5312V59H173.833V57.6705H173.756C173.654 57.8835 173.483 58.1115 173.245 58.3544C173.006 58.5973 172.688 58.804 172.292 58.9744C171.896 59.1449 171.412 59.2301 170.841 59.2301ZM171.071 57.875C171.668 57.875 172.171 57.7578 172.58 57.5234C172.993 57.2891 173.304 56.9865 173.513 56.6158C173.726 56.245 173.833 55.8551 173.833 55.446V54.0653C173.769 54.142 173.628 54.2124 173.411 54.2763C173.198 54.3359 172.951 54.3892 172.669 54.4361C172.392 54.4787 172.122 54.517 171.858 54.5511C171.598 54.581 171.387 54.6065 171.225 54.6278C170.833 54.679 170.466 54.7621 170.125 54.8771C169.789 54.9879 169.516 55.1562 169.307 55.3821C169.103 55.6037 169 55.9062 169 56.2898C169 56.8139 169.194 57.2102 169.582 57.4787C169.974 57.7429 170.47 57.875 171.071 57.875ZM179.603 45.9091V59H178.095V45.9091H179.603ZM188.554 54.9858V49.1818H190.062V59H188.554V57.3381H188.451C188.221 57.8366 187.863 58.2607 187.377 58.6101C186.892 58.9553 186.278 59.1278 185.536 59.1278C184.923 59.1278 184.377 58.9936 183.9 58.7251C183.423 58.4524 183.048 58.0433 182.775 57.4979C182.502 56.9482 182.366 56.2557 182.366 55.4205V49.1818H183.875V55.3182C183.875 56.0341 184.075 56.6051 184.475 57.0312C184.88 57.4574 185.396 57.6705 186.022 57.6705C186.397 57.6705 186.779 57.5746 187.166 57.3828C187.559 57.1911 187.887 56.897 188.151 56.5007C188.419 56.1044 188.554 55.5994 188.554 54.9858ZM196.941 59.2045C195.995 59.2045 195.179 58.9957 194.493 58.5781C193.812 58.1562 193.285 57.5682 192.915 56.8139C192.548 56.0554 192.365 55.1733 192.365 54.1676C192.365 53.1619 192.548 52.2756 192.915 51.5085C193.285 50.7372 193.801 50.1364 194.461 49.706C195.126 49.2713 195.902 49.054 196.788 49.054C197.299 49.054 197.804 49.1392 198.303 49.3097C198.802 49.4801 199.255 49.7571 199.665 50.1406C200.074 50.5199 200.4 51.0227 200.642 51.6491C200.885 52.2756 201.007 53.0469 201.007 53.9631V54.6023H193.439V53.2983H199.473C199.473 52.7443 199.362 52.25 199.14 51.8153C198.923 51.3807 198.612 51.0376 198.207 50.7862C197.807 50.5348 197.334 50.4091 196.788 50.4091C196.187 50.4091 195.667 50.5582 195.228 50.8565C194.794 51.1506 194.459 51.5341 194.225 52.0071C193.991 52.4801 193.873 52.9872 193.873 53.5284V54.3977C193.873 55.1392 194.001 55.7678 194.257 56.2834C194.517 56.7947 194.877 57.1847 195.337 57.4531C195.797 57.7173 196.332 57.8494 196.941 57.8494C197.338 57.8494 197.696 57.794 198.015 57.6832C198.339 57.5682 198.618 57.3977 198.853 57.1719C199.087 56.9418 199.268 56.6562 199.396 56.3153L200.853 56.7244C200.7 57.2188 200.442 57.6534 200.08 58.0284C199.718 58.3991 199.27 58.6889 198.738 58.8977C198.205 59.1023 197.606 59.2045 196.941 59.2045Z" fill="#05060F" fill-opacity="0.8"/>
</g>
<defs>
<filter id="filter0_d_1_141" x="0" y="0" width="256" height="136" filterUnits="userSpaceOnUse" color-interpolation-filters="sRGB">
<feFlood flood-opacity="0" result="BackgroundImageFix"/>
<feColorMatrix in="SourceAlpha" type="matrix" values="0 0 0 0 0 0 0 0 0 0 0 0 0 0 0 0 0 0 127 0" result="hardAlpha"/>
<feOffset dy="16"/>
<feGaussianBlur stdDeviation="18"/>
<feComposite in2="hardAlpha" operator="out"/>
<feColorMatrix type="matrix" values="0 0 0 0 0.0196078 0 0 0 0 0.0235294 0 0 0 0 0.0588235 0 0 0 0.04 0"/>
<feBlend mode="normal" in2="BackgroundImageFix" result="effect1_dropShadow_1_141"/>
<feBlend mode="normal" in="SourceGraphic" in2="effect1_dropShadow_1_141" result="shape"/>
</filter>
</defs>
</svg>
