<svg width="661" height="488" viewBox="0 0 661 488" fill="none" xmlns="http://www.w3.org/2000/svg">
<path d="M112.5 261.5C112.5 384.451 218.841 484.5 350.5 484.5C482.159 484.5 588.5 384.451 588.5 261.5C588.5 138.549 482.159 38.5 350.5 38.5C218.841 38.5 112.5 138.549 112.5 261.5Z" fill="white" stroke="#5627FF" stroke-width="7"/>
<rect x="-2.5" y="2.5" width="213" height="70" rx="35" transform="matrix(-1 0 0 1 213 206)" fill="white" stroke="#5627FF" stroke-width="5"/>
<rect x="-2.5" y="2.5" width="214" height="70" rx="35" transform="matrix(-1 0 0 1 535 0)" fill="white" stroke="#5627FF" stroke-width="5"/>
<rect x="-2.5" y="2.5" width="214" height="70" rx="35" transform="matrix(-1 0 0 1 656 336)" fill="white" stroke="#5627FF" stroke-width="5"/>
<path d="M384.941 46.104C384.941 45.6133 384.984 45.0373 385.069 44.376C385.155 43.7147 385.315 42.968 385.549 42.136C385.784 41.2827 386.136 40.3333 386.605 39.288L390.541 40.664C390.307 41.3253 390.104 41.9333 389.933 42.488C389.763 43.0213 389.635 43.5227 389.549 43.992C389.464 44.44 389.421 44.888 389.421 45.336C389.421 46.296 389.656 47.128 390.125 47.832C390.616 48.5573 391.277 49.112 392.109 49.496C392.963 49.9013 393.944 50.104 395.053 50.104C396.867 50.104 398.253 49.8053 399.213 49.208C400.195 48.632 400.856 47.7147 401.197 46.456C401.56 45.176 401.699 43.5227 401.613 41.496L400.973 23.576H405.485L405.965 38.712C406.008 39.7787 406.157 40.6 406.413 41.176C406.669 41.752 407.064 42.1467 407.597 42.36C408.152 42.5733 408.867 42.68 409.741 42.68C410.552 42.68 411.128 42.8933 411.469 43.32C411.811 43.7253 411.981 44.2373 411.981 44.856C411.981 45.5173 411.757 46.072 411.309 46.52C410.861 46.9467 410.232 47.16 409.421 47.16C408.952 47.16 408.451 47.096 407.917 46.968C407.384 46.84 406.872 46.6373 406.381 46.36C405.891 46.0827 405.464 45.72 405.101 45.272C404.739 44.8027 404.493 44.2267 404.365 43.544L406.093 42.68C406.093 44.8347 405.837 46.6587 405.325 48.152C404.835 49.6453 404.109 50.8507 403.149 51.768C402.211 52.6853 401.048 53.3467 399.661 53.752C398.296 54.1787 396.717 54.392 394.925 54.392C393.56 54.392 392.269 54.2213 391.053 53.88C389.859 53.5387 388.803 53.0267 387.885 52.344C386.968 51.6613 386.243 50.7973 385.709 49.752C385.197 48.728 384.941 47.512 384.941 46.104ZM409.422 47.16L409.742 42.68H414.222C414.969 42.68 415.534 42.6373 415.918 42.552C416.323 42.4667 416.601 42.3387 416.75 42.168C416.899 41.976 416.974 41.752 416.974 41.496C416.974 41.112 416.803 40.664 416.462 40.152C416.142 39.64 415.715 39.1067 415.182 38.552C414.67 37.9973 414.126 37.4427 413.55 36.888C412.974 36.312 412.419 35.7787 411.886 35.288C411.374 34.7973 410.947 34.3707 410.606 34.008C410.286 33.624 410.126 33.3467 410.126 33.176C410.126 32.5787 410.158 32.1093 410.222 31.768C410.286 31.4053 410.371 31.1173 410.478 30.904C410.606 30.6907 410.745 30.5093 410.894 30.36C411.257 29.9973 411.801 29.592 412.526 29.144C413.251 28.6747 414.105 28.184 415.086 27.672C416.089 27.1387 417.209 26.584 418.446 26.008C419.683 25.4107 420.995 24.792 422.382 24.152L424.206 28.056C422.798 28.6747 421.539 29.2507 420.43 29.784C419.342 30.296 418.361 30.776 417.486 31.224C416.633 31.6507 415.865 32.056 415.182 32.44C414.521 32.824 413.923 33.1867 413.39 33.528L413.71 31.16C414.627 31.9493 415.459 32.696 416.206 33.4C416.953 34.104 417.646 34.808 418.286 35.512C418.926 36.216 419.523 36.9413 420.078 37.688C420.654 38.4347 421.209 39.2453 421.742 40.12C422.211 40.8667 422.691 41.4213 423.182 41.784C423.694 42.1467 424.185 42.392 424.654 42.52C425.145 42.6267 425.582 42.68 425.966 42.68C426.777 42.68 427.353 42.8933 427.694 43.32C428.057 43.7253 428.238 44.2373 428.238 44.856C428.238 45.5173 428.014 46.072 427.566 46.52C427.118 46.9467 426.478 47.16 425.646 47.16C424.942 47.16 424.185 47.0427 423.374 46.808C422.563 46.552 421.806 46.1467 421.102 45.592C420.398 45.0373 419.865 44.28 419.502 43.32L421.23 43.448C420.91 44.1307 420.526 44.7173 420.078 45.208C419.651 45.6773 419.139 46.0613 418.542 46.36C417.945 46.6373 417.262 46.84 416.494 46.968C415.726 47.096 414.862 47.16 413.902 47.16H409.422ZM425.672 47.16L425.992 42.68C426.696 42.68 427.272 42.6267 427.72 42.52C428.168 42.392 428.531 42.1253 428.808 41.72C429.107 41.2933 429.363 40.664 429.576 39.832C429.811 38.9787 430.067 37.8267 430.344 36.376L434.504 37.144C434.419 37.6133 434.301 38.2 434.152 38.904C434.024 39.608 433.96 40.216 433.96 40.728C433.96 41.1333 434.035 41.4853 434.184 41.784C434.355 42.0613 434.632 42.2853 435.016 42.456C435.421 42.6053 435.976 42.68 436.68 42.68C437.235 42.68 437.704 42.6267 438.088 42.52C438.493 42.392 438.835 42.1253 439.112 41.72C439.411 41.2933 439.667 40.6427 439.88 39.768C440.115 38.872 440.339 37.6667 440.552 36.152L444.776 36.824C444.691 37.3147 444.605 37.8373 444.52 38.392C444.435 38.9467 444.36 39.4587 444.296 39.928C444.232 40.3973 444.2 40.7813 444.2 41.08C444.2 41.3573 444.275 41.624 444.424 41.88C444.595 42.1147 444.893 42.3067 445.32 42.456C445.768 42.6053 446.387 42.68 447.176 42.68C448.136 42.68 448.84 42.4773 449.288 42.072C449.757 41.6453 449.992 41.0053 449.992 40.152C449.992 39.6613 449.981 39.1387 449.96 38.584C449.939 38.008 449.896 37.368 449.832 36.664C449.789 35.9387 449.704 35.1173 449.576 34.2L453.704 33.88C453.853 35.7147 454.024 37.208 454.216 38.36C454.408 39.512 454.664 40.408 454.984 41.048C455.325 41.6667 455.773 42.0933 456.328 42.328C456.904 42.5627 457.651 42.68 458.568 42.68C459.379 42.68 459.955 42.8933 460.296 43.32C460.659 43.7253 460.84 44.2373 460.84 44.856C460.84 45.5173 460.616 46.072 460.168 46.52C459.741 46.9467 459.101 47.16 458.248 47.16C457.672 47.16 457.075 47.1067 456.456 47C455.837 46.9147 455.24 46.7333 454.664 46.456C454.088 46.1573 453.576 45.7307 453.128 45.176C452.68 44.6213 452.328 43.8853 452.072 42.968L452.648 43.16C452.349 44.2267 451.944 45.048 451.432 45.624C450.92 46.2 450.291 46.6053 449.544 46.84C448.797 47.0533 447.901 47.16 446.856 47.16C445.896 47.16 445.043 47.032 444.296 46.776C443.549 46.52 442.952 46.104 442.504 45.528C442.077 44.9307 441.853 44.1307 441.832 43.128H442.92C442.493 44.3227 442.003 45.208 441.448 45.784C440.893 46.36 440.221 46.7333 439.432 46.904C438.643 47.0747 437.651 47.16 436.456 47.16C435.731 47.16 435.016 47.0853 434.312 46.936C433.608 46.7653 432.979 46.392 432.424 45.816C431.869 45.2187 431.464 44.28 431.208 43L432.936 42.936C432.488 44.1947 431.901 45.1227 431.176 45.72C430.472 46.3173 429.661 46.712 428.744 46.904C427.827 47.0747 426.803 47.16 425.672 47.16ZM442.088 27.352C441.555 27.352 441.085 27.1493 440.68 26.744C440.296 26.3387 440.104 25.8587 440.104 25.304C440.104 24.7493 440.296 24.28 440.68 23.896C441.085 23.512 441.555 23.32 442.088 23.32C442.643 23.32 443.112 23.512 443.496 23.896C443.88 24.28 444.072 24.7493 444.072 25.304C444.072 25.8587 443.88 26.3387 443.496 26.744C443.112 27.1493 442.643 27.352 442.088 27.352ZM439.528 31.576C438.995 31.576 438.525 31.3733 438.12 30.968C437.736 30.5627 437.544 30.0827 437.544 29.528C437.544 28.9733 437.736 28.504 438.12 28.12C438.525 27.736 438.995 27.544 439.528 27.544C440.083 27.544 440.552 27.736 440.936 28.12C441.32 28.504 441.512 28.9733 441.512 29.528C441.512 30.0827 441.32 30.5627 440.936 30.968C440.552 31.3733 440.083 31.576 439.528 31.576ZM444.488 31.576C443.955 31.576 443.485 31.3733 443.08 30.968C442.696 30.5627 442.504 30.0827 442.504 29.528C442.504 28.9733 442.696 28.504 443.08 28.12C443.485 27.736 443.955 27.544 444.488 27.544C445.043 27.544 445.512 27.736 445.896 28.12C446.28 28.504 446.472 28.9733 446.472 29.528C446.472 30.0827 446.28 30.5627 445.896 30.968C445.512 31.3733 445.043 31.576 444.488 31.576ZM458.266 47.16L458.586 42.68C459.076 42.68 459.492 42.5627 459.834 42.328C460.196 42.072 460.57 41.656 460.954 41.08C461.338 40.4827 461.786 39.6827 462.298 38.68C462.938 37.4 463.599 36.3973 464.282 35.672C464.986 34.9467 465.7 34.4347 466.426 34.136C467.172 33.816 467.919 33.656 468.666 33.656C469.604 33.656 470.479 33.8587 471.29 34.264C472.1 34.6693 472.804 35.224 473.402 35.928C473.999 36.6107 474.458 37.4 474.778 38.296C475.119 39.1707 475.29 40.0773 475.29 41.016C475.29 42.1467 475.044 43.1707 474.554 44.088C474.084 44.984 473.423 45.6987 472.57 46.232C471.738 46.744 470.778 47 469.69 47C468.772 47 467.706 46.84 466.49 46.52C465.274 46.2 463.994 45.528 462.65 44.504L464.282 40.632C465.242 41.2933 466.138 41.7733 466.97 42.072C467.823 42.3707 468.527 42.52 469.082 42.52C469.508 42.52 469.86 42.4773 470.138 42.392C470.415 42.3067 470.618 42.168 470.746 41.976C470.874 41.784 470.938 41.528 470.938 41.208C470.938 40.76 470.831 40.3013 470.618 39.832C470.404 39.3627 470.116 38.968 469.754 38.648C469.412 38.3067 469.007 38.136 468.538 38.136C468.09 38.136 467.706 38.3067 467.386 38.648C467.087 38.968 466.788 39.4373 466.49 40.056C466.212 40.6533 465.871 41.3573 465.466 42.168C464.975 43.1493 464.495 43.9707 464.026 44.632C463.556 45.272 463.055 45.784 462.522 46.168C462.01 46.5307 461.402 46.7867 460.698 46.936C460.015 47.0853 459.204 47.16 458.266 47.16Z" fill="#5627FF"/>
<path d="M87.1133 253.104C87.1133 252.613 87.1559 252.037 87.2413 251.376C87.3266 250.715 87.4866 249.968 87.7213 249.136C87.9559 248.283 88.3079 247.333 88.7773 246.288L92.7133 247.664C92.4786 248.325 92.2759 248.933 92.1053 249.488C91.9346 250.021 91.8066 250.523 91.7213 250.992C91.6359 251.44 91.5933 251.888 91.5933 252.336C91.5933 253.296 91.8279 254.128 92.2973 254.832C92.7879 255.557 93.4493 256.112 94.2812 256.496C95.1346 256.901 96.1159 257.104 97.2253 257.104C99.0386 257.104 100.425 256.805 101.385 256.208C102.367 255.632 103.028 254.715 103.369 253.456C103.732 252.176 103.871 250.523 103.785 248.496L103.145 230.576H107.657L108.137 245.712C108.18 246.779 108.329 247.6 108.585 248.176C108.841 248.752 109.236 249.147 109.769 249.36C110.324 249.573 111.039 249.68 111.913 249.68C112.724 249.68 113.3 249.893 113.641 250.32C113.983 250.725 114.153 251.237 114.153 251.856C114.153 252.517 113.929 253.072 113.481 253.52C113.033 253.947 112.404 254.16 111.593 254.16C111.124 254.16 110.623 254.096 110.089 253.968C109.556 253.84 109.044 253.637 108.553 253.36C108.063 253.083 107.636 252.72 107.273 252.272C106.911 251.803 106.665 251.227 106.537 250.544L108.265 249.68C108.265 251.835 108.009 253.659 107.497 255.152C107.007 256.645 106.281 257.851 105.321 258.768C104.383 259.685 103.22 260.347 101.833 260.752C100.468 261.179 98.8893 261.392 97.0973 261.392C95.7319 261.392 94.4413 261.221 93.2253 260.88C92.0306 260.539 90.9746 260.027 90.0573 259.344C89.1399 258.661 88.4146 257.797 87.8813 256.752C87.3693 255.728 87.1133 254.512 87.1133 253.104ZM111.594 254.16L111.914 249.68C113.066 249.68 114.207 249.616 115.338 249.488C116.468 249.36 117.567 249.168 118.634 248.912C119.7 248.656 120.714 248.325 121.674 247.92C122.655 247.515 123.572 247.024 124.426 246.448C123.786 246.064 123.092 245.733 122.346 245.456C121.599 245.179 120.799 244.976 119.946 244.848C119.114 244.699 118.228 244.624 117.29 244.624C116.948 244.624 116.586 244.635 116.202 244.656C115.839 244.677 115.466 244.72 115.082 244.784C114.698 244.827 114.314 244.891 113.93 244.976L113.29 240.592C113.908 240.421 114.559 240.304 115.242 240.24C115.946 240.155 116.564 240.112 117.098 240.112C118.25 240.112 119.306 240.24 120.266 240.496C121.247 240.752 122.143 241.072 122.954 241.456C123.786 241.84 124.554 242.224 125.258 242.608C125.983 242.992 126.666 243.312 127.306 243.568C127.967 243.824 128.607 243.952 129.226 243.952H130.41L130.922 248.208C130.004 248.251 129.14 248.432 128.33 248.752C127.54 249.051 126.751 249.435 125.962 249.904C125.194 250.352 124.362 250.821 123.466 251.312C122.591 251.803 121.599 252.261 120.49 252.688C119.38 253.115 118.1 253.467 116.65 253.744C115.199 254.021 113.514 254.16 111.594 254.16Z" fill="#5627FF"/>
<path d="M501.825 378V367.091H506.001C506.79 367.091 507.445 367.215 507.967 367.464C508.492 367.709 508.885 368.044 509.144 368.471C509.407 368.897 509.538 369.38 509.538 369.919C509.538 370.363 509.453 370.743 509.282 371.059C509.112 371.372 508.883 371.626 508.595 371.821C508.308 372.016 507.986 372.157 507.631 372.242V372.348C508.018 372.37 508.389 372.489 508.744 372.705C509.103 372.918 509.396 373.22 509.623 373.611C509.851 374.001 509.964 374.474 509.964 375.028C509.964 375.592 509.828 376.1 509.554 376.551C509.281 376.999 508.869 377.352 508.318 377.611C507.768 377.87 507.075 378 506.241 378H501.825ZM503.801 376.349H505.927C506.644 376.349 507.161 376.212 507.477 375.939C507.796 375.662 507.956 375.306 507.956 374.873C507.956 374.55 507.876 374.259 507.716 374C507.557 373.737 507.329 373.531 507.035 373.382C506.74 373.229 506.388 373.153 505.98 373.153H503.801V376.349ZM503.801 371.73H505.756C506.097 371.73 506.404 371.668 506.678 371.544C506.951 371.416 507.166 371.237 507.322 371.006C507.482 370.772 507.562 370.495 507.562 370.175C507.562 369.752 507.413 369.404 507.114 369.131C506.82 368.858 506.381 368.721 505.799 368.721H503.801V371.73ZM512.797 381.068C512.534 381.068 512.291 381.047 512.067 381.004C511.847 380.965 511.671 380.919 511.54 380.866L511.987 379.364C512.268 379.445 512.518 379.484 512.738 379.481C512.958 379.477 513.152 379.408 513.319 379.273C513.489 379.142 513.633 378.922 513.75 378.613L513.915 378.17L510.948 369.818H512.994L514.879 375.997H514.965L516.856 369.818H518.906L515.631 378.991C515.478 379.424 515.275 379.795 515.023 380.104C514.771 380.417 514.462 380.654 514.096 380.818C513.734 380.985 513.301 381.068 512.797 381.068ZM544.98 378.16C543.465 378.16 542.153 377.968 541.044 377.584C539.956 377.179 539.113 376.539 538.516 375.664C537.918 374.768 537.577 373.573 537.492 372.08L536.916 359.184H541.428L541.972 370.512C542.014 371.387 542.153 372.059 542.388 372.528C542.644 372.976 543.006 373.285 543.476 373.456C543.945 373.605 544.553 373.68 545.3 373.68C546.11 373.68 546.686 373.893 547.028 374.32C547.369 374.725 547.54 375.237 547.54 375.856C547.54 376.517 547.316 377.072 546.868 377.52C546.441 377.947 545.812 378.16 544.98 378.16ZM539.124 375.184C537.694 375.504 536.318 375.653 534.996 375.632C533.673 375.589 532.489 375.355 531.444 374.928C530.398 374.48 529.566 373.84 528.948 373.008C528.35 372.176 528.052 371.12 528.052 369.84C528.052 368.709 528.297 367.685 528.788 366.768C529.3 365.829 530.004 365.008 530.9 364.304C531.817 363.6 532.884 363.003 534.1 362.512C535.316 362.021 536.638 361.648 538.068 361.392L538.516 365.936C537.598 365.979 536.766 366.107 536.02 366.32C535.294 366.512 534.665 366.768 534.132 367.088C533.62 367.408 533.225 367.771 532.948 368.176C532.67 368.56 532.532 368.976 532.532 369.424C532.532 369.787 532.66 370.085 532.916 370.32C533.172 370.555 533.513 370.747 533.94 370.896C534.366 371.024 534.857 371.099 535.411 371.12C535.966 371.141 536.532 371.109 537.108 371.024C537.705 370.939 538.292 370.8 538.868 370.608L539.124 375.184ZM544.969 378.16L545.289 373.68C545.779 373.68 546.195 373.563 546.537 373.328C546.899 373.072 547.273 372.656 547.657 372.08C548.041 371.483 548.489 370.683 549.001 369.68C549.641 368.4 550.302 367.397 550.985 366.672C551.689 365.947 552.403 365.435 553.129 365.136C553.875 364.816 554.622 364.656 555.369 364.656C556.307 364.656 557.182 364.859 557.993 365.264C558.803 365.669 559.507 366.224 560.105 366.928C560.702 367.611 561.161 368.4 561.481 369.296C561.822 370.171 561.993 371.077 561.993 372.016C561.993 373.147 561.747 374.171 561.257 375.088C560.787 375.984 560.126 376.699 559.273 377.232C558.441 377.744 557.481 378 556.393 378C555.475 378 554.409 377.84 553.193 377.52C551.977 377.2 550.697 376.528 549.353 375.504L550.985 371.632C551.945 372.293 552.841 372.773 553.673 373.072C554.526 373.371 555.23 373.52 555.785 373.52C556.211 373.52 556.563 373.477 556.841 373.392C557.118 373.307 557.321 373.168 557.449 372.976C557.577 372.784 557.641 372.528 557.641 372.208C557.641 371.76 557.534 371.301 557.321 370.832C557.107 370.363 556.819 369.968 556.457 369.648C556.115 369.307 555.71 369.136 555.241 369.136C554.793 369.136 554.409 369.307 554.089 369.648C553.79 369.968 553.491 370.437 553.193 371.056C552.915 371.653 552.574 372.357 552.169 373.168C551.678 374.149 551.198 374.971 550.729 375.632C550.259 376.272 549.758 376.784 549.225 377.168C548.713 377.531 548.105 377.787 547.401 377.936C546.718 378.085 545.907 378.16 544.969 378.16ZM570.57 373.68C571.53 373.68 572.266 373.595 572.778 373.424C573.29 373.253 573.642 373.029 573.834 372.752C574.026 372.475 574.122 372.176 574.122 371.856C574.122 371.344 573.972 370.747 573.674 370.064C573.396 369.381 573.044 368.667 572.618 367.92C572.191 367.173 571.743 366.459 571.274 365.776C570.826 365.093 570.42 364.496 570.058 363.984L573.866 361.456C574.783 362.693 575.572 363.92 576.234 365.136C576.895 366.331 577.428 367.44 577.834 368.464C578.26 369.488 578.559 370.363 578.73 371.088C578.9 371.771 579.156 372.304 579.498 372.688C579.86 373.051 580.276 373.307 580.746 373.456C581.215 373.605 581.684 373.68 582.154 373.68C582.964 373.68 583.54 373.893 583.882 374.32C584.244 374.725 584.426 375.237 584.426 375.856C584.426 376.517 584.202 377.072 583.754 377.52C583.327 377.947 582.687 378.16 581.834 378.16C580.895 378.16 580.074 378.032 579.37 377.776C578.666 377.52 578.068 377.115 577.578 376.56C577.087 376.005 576.671 375.301 576.33 374.448L578.282 374.864C578.111 375.461 577.716 376.016 577.098 376.528C576.5 377.019 575.7 377.424 574.698 377.744C573.716 378.043 572.554 378.192 571.21 378.192C570.57 378.192 569.855 378.139 569.066 378.032C568.298 377.925 567.53 377.765 566.762 377.552C566.015 377.339 565.332 377.061 564.714 376.72L566.282 372.656C567.071 372.997 567.828 373.253 568.554 373.424C569.3 373.595 569.972 373.68 570.57 373.68ZM581.875 378.16L582.195 373.68C583.347 373.68 584.488 373.616 585.619 373.488C586.75 373.36 587.848 373.168 588.915 372.912C589.982 372.656 590.995 372.325 591.955 371.92C592.936 371.515 593.854 371.024 594.707 370.448C594.067 370.064 593.374 369.733 592.627 369.456C591.88 369.179 591.08 368.976 590.227 368.848C589.395 368.699 588.51 368.624 587.571 368.624C587.23 368.624 586.867 368.635 586.483 368.656C586.12 368.677 585.747 368.72 585.363 368.784C584.979 368.827 584.595 368.891 584.211 368.976L583.571 364.592C584.19 364.421 584.84 364.304 585.523 364.24C586.227 364.155 586.846 364.112 587.379 364.112C588.531 364.112 589.587 364.24 590.547 364.496C591.528 364.752 592.424 365.072 593.235 365.456C594.067 365.84 594.835 366.224 595.539 366.608C596.264 366.992 596.947 367.312 597.587 367.568C598.248 367.824 598.888 367.952 599.507 367.952H600.691L601.203 372.208C600.286 372.251 599.422 372.432 598.611 372.752C597.822 373.051 597.032 373.435 596.243 373.904C595.475 374.352 594.643 374.821 593.747 375.312C592.872 375.803 591.88 376.261 590.771 376.688C589.662 377.115 588.382 377.467 586.931 377.744C585.48 378.021 583.795 378.16 581.875 378.16ZM587.411 361.136C586.75 361.136 586.184 360.912 585.715 360.464C585.267 360.016 585.043 359.461 585.043 358.8C585.043 358.139 585.267 357.573 585.715 357.104C586.184 356.635 586.75 356.4 587.411 356.4C588.051 356.4 588.595 356.635 589.043 357.104C589.512 357.573 589.747 358.139 589.747 358.8C589.747 359.461 589.512 360.016 589.043 360.464C588.595 360.912 588.051 361.136 587.411 361.136ZM557.309 396H555.2L559.04 385.091H561.48L565.326 396H563.216L560.303 387.328H560.217L557.309 396ZM557.378 391.723H563.131V393.31H557.378V391.723ZM568.606 385.091V396H566.677V385.091H568.606ZM574.147 399.239C573.454 399.239 572.859 399.145 572.362 398.956C571.865 398.772 571.466 398.523 571.164 398.211C570.862 397.898 570.652 397.552 570.535 397.172L572.272 396.751C572.35 396.911 572.463 397.069 572.613 397.225C572.762 397.385 572.962 397.516 573.214 397.619C573.47 397.726 573.792 397.779 574.179 397.779C574.725 397.779 575.178 397.646 575.537 397.38C575.896 397.117 576.075 396.684 576.075 396.08V394.53H575.979C575.88 394.729 575.734 394.933 575.542 395.142C575.354 395.352 575.104 395.528 574.791 395.67C574.482 395.812 574.093 395.883 573.625 395.883C572.996 395.883 572.426 395.735 571.915 395.441C571.407 395.142 571.002 394.699 570.7 394.109C570.402 393.516 570.253 392.774 570.253 391.882C570.253 390.984 570.402 390.226 570.7 389.608C571.002 388.987 571.409 388.516 571.92 388.196C572.431 387.873 573.001 387.712 573.63 387.712C574.109 387.712 574.504 387.793 574.812 387.957C575.125 388.116 575.374 388.31 575.558 388.537C575.743 388.761 575.883 388.972 575.979 389.171H576.086V387.818H577.987V396.133C577.987 396.833 577.82 397.412 577.487 397.87C577.153 398.328 576.696 398.67 576.118 398.898C575.539 399.125 574.882 399.239 574.147 399.239ZM574.163 394.37C574.571 394.37 574.919 394.271 575.207 394.072C575.494 393.873 575.713 393.587 575.862 393.214C576.011 392.841 576.086 392.394 576.086 391.872C576.086 391.357 576.011 390.906 575.862 390.519C575.716 390.132 575.5 389.832 575.212 389.619C574.928 389.402 574.578 389.294 574.163 389.294C573.733 389.294 573.374 389.406 573.087 389.629C572.799 389.853 572.582 390.16 572.437 390.551C572.291 390.938 572.218 391.378 572.218 391.872C572.218 392.373 572.291 392.811 572.437 393.188C572.586 393.56 572.804 393.852 573.092 394.061C573.383 394.267 573.74 394.37 574.163 394.37ZM582.318 396.165C581.799 396.165 581.332 396.073 580.917 395.888C580.505 395.7 580.178 395.423 579.937 395.057C579.699 394.691 579.58 394.24 579.58 393.704C579.58 393.243 579.665 392.861 579.836 392.559C580.006 392.257 580.239 392.016 580.533 391.835C580.828 391.653 581.16 391.517 581.529 391.424C581.902 391.328 582.288 391.259 582.685 391.217C583.165 391.167 583.554 391.123 583.852 391.083C584.15 391.041 584.367 390.977 584.502 390.892C584.64 390.803 584.71 390.666 584.71 390.482V390.45C584.71 390.048 584.591 389.738 584.353 389.517C584.115 389.297 583.772 389.187 583.325 389.187C582.852 389.187 582.478 389.29 582.201 389.496C581.927 389.702 581.743 389.945 581.647 390.226L579.846 389.97C579.988 389.473 580.223 389.058 580.549 388.724C580.876 388.386 581.276 388.134 581.748 387.967C582.22 387.797 582.742 387.712 583.314 387.712C583.708 387.712 584.1 387.758 584.491 387.85C584.882 387.942 585.239 388.095 585.562 388.308C585.885 388.518 586.144 388.804 586.339 389.166C586.538 389.528 586.638 389.981 586.638 390.524V396H584.784V394.876H584.72C584.603 395.103 584.438 395.316 584.225 395.515C584.015 395.711 583.751 395.869 583.431 395.989C583.115 396.107 582.744 396.165 582.318 396.165ZM582.819 394.748C583.206 394.748 583.541 394.672 583.825 394.519C584.109 394.363 584.328 394.157 584.48 393.901C584.637 393.646 584.715 393.367 584.715 393.065V392.101C584.654 392.151 584.551 392.197 584.406 392.239C584.264 392.282 584.104 392.319 583.926 392.351C583.749 392.383 583.573 392.412 583.399 392.436C583.225 392.461 583.074 392.483 582.946 392.5C582.659 392.539 582.401 392.603 582.174 392.692C581.947 392.781 581.767 392.905 581.636 393.065C581.505 393.221 581.439 393.424 581.439 393.672C581.439 394.027 581.569 394.295 581.828 394.477C582.087 394.658 582.417 394.748 582.819 394.748ZM588.577 396V387.818H590.446V389.182H590.532C590.681 388.71 590.936 388.346 591.299 388.09C591.664 387.831 592.082 387.701 592.55 387.701C592.657 387.701 592.776 387.706 592.907 387.717C593.042 387.724 593.154 387.737 593.243 387.754V389.528C593.161 389.5 593.032 389.475 592.854 389.453C592.68 389.429 592.511 389.416 592.348 389.416C591.996 389.416 591.68 389.493 591.4 389.645C591.123 389.794 590.904 390.002 590.745 390.268C590.585 390.535 590.505 390.842 590.505 391.19V396H588.577ZM596.732 396.165C596.213 396.165 595.746 396.073 595.331 395.888C594.919 395.7 594.592 395.423 594.351 395.057C594.113 394.691 593.994 394.24 593.994 393.704C593.994 393.243 594.079 392.861 594.25 392.559C594.42 392.257 594.653 392.016 594.947 391.835C595.242 391.653 595.574 391.517 595.944 391.424C596.316 391.328 596.702 391.259 597.099 391.217C597.579 391.167 597.968 391.123 598.266 391.083C598.564 391.041 598.781 390.977 598.916 390.892C599.054 390.803 599.124 390.666 599.124 390.482V390.45C599.124 390.048 599.005 389.738 598.767 389.517C598.529 389.297 598.186 389.187 597.739 389.187C597.266 389.187 596.892 389.29 596.615 389.496C596.341 389.702 596.157 389.945 596.061 390.226L594.26 389.97C594.402 389.473 594.637 389.058 594.963 388.724C595.29 388.386 595.69 388.134 596.162 387.967C596.634 387.797 597.156 387.712 597.728 387.712C598.122 387.712 598.515 387.758 598.905 387.85C599.296 387.942 599.653 388.095 599.976 388.308C600.299 388.518 600.558 388.804 600.754 389.166C600.952 389.528 601.052 389.981 601.052 390.524V396H599.198V394.876H599.134C599.017 395.103 598.852 395.316 598.639 395.515C598.429 395.711 598.165 395.869 597.845 395.989C597.529 396.107 597.158 396.165 596.732 396.165ZM597.233 394.748C597.62 394.748 597.955 394.672 598.239 394.519C598.523 394.363 598.742 394.157 598.895 393.901C599.051 393.646 599.129 393.367 599.129 393.065V392.101C599.069 392.151 598.966 392.197 598.82 392.239C598.678 392.282 598.518 392.319 598.341 392.351C598.163 392.383 597.987 392.412 597.813 392.436C597.639 392.461 597.488 392.483 597.36 392.5C597.073 392.539 596.815 392.603 596.588 392.692C596.361 392.781 596.181 392.905 596.05 393.065C595.919 393.221 595.853 393.424 595.853 393.672C595.853 394.027 595.983 394.295 596.242 394.477C596.501 394.658 596.831 394.748 597.233 394.748Z" fill="#5627FF"/>
<rect width="48" height="8" transform="matrix(-1 0 0 1 528 88)" fill="white"/>
<rect width="48" height="8" transform="matrix(-1 0 0 1 559 107)" fill="white"/>
<rect width="48" height="8" transform="matrix(-1 0 0 1 569 126)" fill="white"/>
<rect width="48" height="8" transform="matrix(-1 0 0 1 583 145)" fill="white"/>
<rect width="48" height="8" transform="matrix(-1 0 0 1 588 164)" fill="white"/>
<rect width="48" height="8" transform="matrix(-1 0 0 1 607 183)" fill="white"/>
<rect width="48" height="8" transform="matrix(-1 0 0 1 607 202)" fill="white"/>
<rect width="48" height="8" transform="matrix(-1 0 0 1 607 221)" fill="white"/>
<rect width="48" height="8" transform="matrix(-1 0 0 1 612 240)" fill="white"/>
<rect width="48" height="8" transform="matrix(-1 0 0 1 607 259)" fill="white"/>
<rect width="48" height="8" transform="matrix(-1 0 0 1 612 278)" fill="white"/>
<rect width="48" height="8" transform="matrix(-1 0 0 1 607 297)" fill="white"/>
<rect width="48" height="8" transform="matrix(-1 0 0 1 612 315)" fill="white"/>
</svg>
