<svg width="32" height="32" viewBox="0 0 32 32" fill="none" xmlns="http://www.w3.org/2000/svg">
<path fill-rule="evenodd" clip-rule="evenodd" d="M22.9909 0H9.00568C2.4123 0 0 2.41179 0 9.00379V22.9962C0 29.5882 2.4123 32 9.00568 32H22.9909C29.5843 32 32 29.5882 32 22.9962V9.00379C32.0067 2.41179 29.5944 0 22.9909 0Z" fill="#05060F"/>
<path d="M6.05316 16H6.92676V20.3091H6.05316V18.5584H4.08063V20.3091H3.20703V16H4.08063V17.7333H6.05316V16ZM10.9758 18.4648C10.9758 19.1581 10.6292 19.5395 9.99823 19.5395C9.36729 19.5395 9.01369 19.1581 9.01369 18.4267V16H8.14009V18.4613C8.14009 19.6712 8.81263 20.3645 9.98436 20.3645C11.1561 20.3645 11.8494 19.6712 11.8494 18.4232V16H10.9758V18.4648ZM21.0707 18.9605L20.0932 16H19.3756L18.4049 18.964L17.4516 16H16.5225L18.0236 20.3091H18.7481L19.7222 17.4803L20.6998 20.3091H21.4313L22.9324 16H22.0241L21.0707 18.9605ZM24.4958 18.4509H26.087V17.6709H24.4958V16.7904H26.8046V16H23.6361V20.2987H26.8878V19.5221H24.4958V18.4509ZM27.9278 20.2987H28.791V16H27.9278V20.2987ZM13.5758 19.4077L13.1841 20.3021H12.2932L14.1756 16H14.9452L16.8345 20.3021H15.9332L15.5622 19.4112L13.5758 19.4077ZM13.9017 18.6312H15.2156L14.5569 17.092L13.9017 18.6312Z" fill="white"/>
<path d="M16.0003 10.5189C14.547 10.518 13.1535 9.94023 12.1258 8.91258C11.0982 7.88493 10.5204 6.4914 10.5195 5.03809H11.2926C11.2926 6.28665 11.7886 7.48408 12.6715 8.36696C13.5543 9.24983 14.7518 9.74582 16.0003 9.74582C17.2489 9.74582 18.4463 9.24983 19.3292 8.36696C20.2121 7.48408 20.7081 6.28665 20.7081 5.03809H21.4811C21.4802 6.4914 20.9025 7.88493 19.8748 8.91258C18.8472 9.94023 17.4536 10.518 16.0003 10.5189Z" fill="white"/>
</svg>
