<svg width="33" height="32" viewBox="0 0 33 32" fill="none" xmlns="http://www.w3.org/2000/svg">
<path fill-rule="evenodd" clip-rule="evenodd" d="M23.5325 0H9.69601C3.17277 0 0.786133 2.41179 0.786133 9.00379V22.9962C0.786133 29.5882 3.17277 32 9.69601 32H23.5325C30.0557 32 32.4457 29.5882 32.4457 22.9962V9.00379C32.4524 2.41179 30.0657 0 23.5325 0Z" fill="white"/>
<path d="M6.77484 16H7.63914V20.3091H6.77484V18.5584H4.82329V20.3091H3.95898V16H4.82329V17.7333H6.77484V16ZM11.6451 18.4648C11.6451 19.1581 11.3022 19.5395 10.6779 19.5395C10.0537 19.5395 9.70387 19.1581 9.70387 18.4267V16H8.83957V18.4613C8.83957 19.6712 9.50495 20.3645 10.6642 20.3645C11.8235 20.3645 12.5094 19.6712 12.5094 18.4232V16H11.6451V18.4648ZM21.6327 18.9605L20.6655 16H19.9555L18.9952 18.964L18.052 16H17.1328L18.6179 20.3091H19.3347L20.2985 17.4803L21.2657 20.3091H21.9894L23.4745 16H22.5759L21.6327 18.9605ZM25.0213 18.4509H26.5956V17.6709H25.0213V16.7904H27.3055V16H24.1707V20.2987H27.3878V19.5221H25.0213V18.4509ZM28.4168 20.2987H29.2708V16H28.4168V20.2987ZM14.2175 19.4077L13.8299 20.3021H12.9484L14.8108 16H15.5722L17.4415 20.3021H16.5497L16.1827 19.4112L14.2175 19.4077ZM14.5399 18.6312H15.8398L15.1881 17.092L14.5399 18.6312Z" fill="#F6CB1F"/>
<path d="M16.6159 10.519C15.178 10.5181 13.7993 9.94035 12.7826 8.9127C11.7659 7.88505 11.1943 6.49152 11.1934 5.03821H11.9582C11.9582 6.28678 12.4489 7.48421 13.3224 8.36708C14.1959 9.24995 15.3806 9.74594 16.6159 9.74594C17.8511 9.74594 19.0358 9.24995 19.9093 8.36708C20.7828 7.48421 21.2735 6.28678 21.2735 5.03821H22.0383C22.0374 6.49152 21.4658 7.88505 20.4491 8.9127C19.4324 9.94035 18.0537 10.5181 16.6159 10.519Z" fill="#F6CB1F"/>
</svg>
