<svg width="327" height="151" viewBox="0 0 327 151" fill="none" xmlns="http://www.w3.org/2000/svg">
<path d="M34.7275 80.915C34.7275 119.01 67.6747 150 108.454 150C149.234 150 182.181 119.01 182.181 80.915C182.181 42.8198 149.234 11.8298 108.454 11.8298C67.6747 11.8298 34.7275 42.8198 34.7275 80.915Z" fill="white" stroke="#168EEA" stroke-width="2"/>
<rect x="-0.75" y="0.75" width="65.955" height="21.707" rx="10.8535" transform="matrix(-1 0 0 1 65.9551 63.7415)" fill="white" stroke="#168EEA" stroke-width="1.5"/>
<rect x="-0.75" y="0.75" width="66.2645" height="21.707" rx="10.8535" transform="matrix(-1 0 0 1 165.591 0)" fill="white" stroke="#168EEA" stroke-width="1.5"/>
<rect x="-0.75" y="0.75" width="66.2645" height="21.707" rx="10.8535" transform="matrix(-1 0 0 1 203.031 103.967)" fill="white" stroke="#168EEA" stroke-width="1.5"/>
<path d="M25.2925 77.664C25.2925 77.48 25.3085 77.264 25.3405 77.016C25.3725 76.768 25.4325 76.488 25.5205 76.176C25.6085 75.856 25.7405 75.5 25.9165 75.108L27.3925 75.624C27.3045 75.872 27.2285 76.1 27.1645 76.308C27.1005 76.508 27.0525 76.696 27.0205 76.872C26.9885 77.04 26.9725 77.208 26.9725 77.376C26.9725 77.736 27.0605 78.048 27.2365 78.312C27.4205 78.584 27.6685 78.792 27.9805 78.936C28.3005 79.088 28.6685 79.164 29.0845 79.164C29.7645 79.164 30.2845 79.052 30.6445 78.828C31.0125 78.612 31.2605 78.268 31.3885 77.796C31.5245 77.316 31.5765 76.696 31.5445 75.936L31.3045 69.216H32.9965L33.1765 74.892C33.1925 75.292 33.2485 75.6 33.3445 75.816C33.4405 76.032 33.5885 76.18 33.7885 76.26C33.9965 76.34 34.2645 76.38 34.5925 76.38C34.8965 76.38 35.1125 76.46 35.2405 76.62C35.3685 76.772 35.4325 76.964 35.4325 77.196C35.4325 77.444 35.3485 77.652 35.1805 77.82C35.0125 77.98 34.7765 78.06 34.4725 78.06C34.2965 78.06 34.1085 78.036 33.9085 77.988C33.7085 77.94 33.5165 77.864 33.3325 77.76C33.1485 77.656 32.9885 77.52 32.8525 77.352C32.7165 77.176 32.6245 76.96 32.5765 76.704L33.2245 76.38C33.2245 77.188 33.1285 77.872 32.9365 78.432C32.7525 78.992 32.4805 79.444 32.1205 79.788C31.7685 80.132 31.3325 80.38 30.8125 80.532C30.3005 80.692 29.7085 80.772 29.0365 80.772C28.5245 80.772 28.0405 80.708 27.5845 80.58C27.1365 80.452 26.7405 80.26 26.3965 80.004C26.0525 79.748 25.7805 79.424 25.5805 79.032C25.3885 78.648 25.2925 78.192 25.2925 77.664ZM34.4727 78.06L34.5927 76.38C35.0247 76.38 35.4527 76.356 35.8767 76.308C36.3007 76.26 36.7127 76.188 37.1127 76.092C37.5127 75.996 37.8927 75.872 38.2527 75.72C38.6207 75.568 38.9647 75.384 39.2847 75.168C39.0447 75.024 38.7847 74.9 38.5047 74.796C38.2247 74.692 37.9247 74.616 37.6047 74.568C37.2927 74.512 36.9607 74.484 36.6087 74.484C36.4807 74.484 36.3447 74.488 36.2007 74.496C36.0647 74.504 35.9247 74.52 35.7807 74.544C35.6367 74.56 35.4927 74.584 35.3487 74.616L35.1087 72.972C35.3407 72.908 35.5847 72.864 35.8407 72.84C36.1047 72.808 36.3367 72.792 36.5367 72.792C36.9687 72.792 37.3647 72.84 37.7247 72.936C38.0927 73.032 38.4287 73.152 38.7327 73.296C39.0447 73.44 39.3327 73.584 39.5967 73.728C39.8687 73.872 40.1247 73.992 40.3647 74.088C40.6127 74.184 40.8527 74.232 41.0847 74.232H41.5287L41.7207 75.828C41.3767 75.844 41.0527 75.912 40.7487 76.032C40.4527 76.144 40.1567 76.288 39.8607 76.464C39.5727 76.632 39.2607 76.808 38.9247 76.992C38.5967 77.176 38.2247 77.348 37.8087 77.508C37.3927 77.668 36.9127 77.8 36.3687 77.904C35.8247 78.008 35.1927 78.06 34.4727 78.06Z" fill="#168EEA"/>
<path d="M164.145 119.06C163.577 119.06 163.085 118.988 162.669 118.844C162.261 118.692 161.945 118.452 161.721 118.124C161.497 117.788 161.369 117.34 161.337 116.78L161.121 111.944H162.813L163.017 116.192C163.033 116.52 163.085 116.772 163.173 116.948C163.269 117.116 163.405 117.232 163.581 117.296C163.757 117.352 163.985 117.38 164.265 117.38C164.569 117.38 164.785 117.46 164.913 117.62C165.041 117.772 165.105 117.964 165.105 118.196C165.105 118.444 165.021 118.652 164.853 118.82C164.693 118.98 164.457 119.06 164.145 119.06ZM161.949 117.944C161.413 118.064 160.897 118.12 160.401 118.112C159.905 118.096 159.461 118.008 159.069 117.848C158.677 117.68 158.365 117.44 158.133 117.128C157.909 116.816 157.797 116.42 157.797 115.94C157.797 115.516 157.889 115.132 158.073 114.788C158.265 114.436 158.529 114.128 158.865 113.864C159.209 113.6 159.609 113.376 160.065 113.192C160.521 113.008 161.017 112.868 161.553 112.772L161.721 114.476C161.377 114.492 161.065 114.54 160.785 114.62C160.513 114.692 160.277 114.788 160.077 114.908C159.885 115.028 159.737 115.164 159.633 115.316C159.529 115.46 159.477 115.616 159.477 115.784C159.477 115.92 159.525 116.032 159.621 116.12C159.717 116.208 159.845 116.28 160.005 116.336C160.165 116.384 160.349 116.412 160.557 116.42C160.765 116.428 160.977 116.416 161.193 116.384C161.417 116.352 161.637 116.3 161.853 116.228L161.949 117.944ZM161.985 110.708C161.753 110.708 161.553 110.628 161.385 110.468C161.225 110.3 161.145 110.104 161.145 109.88C161.145 109.648 161.225 109.448 161.385 109.28C161.553 109.112 161.753 109.028 161.985 109.028C162.209 109.028 162.401 109.112 162.561 109.28C162.721 109.448 162.801 109.648 162.801 109.88C162.801 110.104 162.721 110.3 162.561 110.468C162.401 110.628 162.209 110.708 161.985 110.708ZM159.909 110.696C159.677 110.696 159.477 110.616 159.309 110.456C159.149 110.288 159.069 110.092 159.069 109.868C159.069 109.636 159.149 109.436 159.309 109.268C159.477 109.1 159.677 109.016 159.909 109.016C160.133 109.016 160.325 109.1 160.485 109.268C160.645 109.436 160.725 109.636 160.725 109.868C160.725 110.092 160.645 110.288 160.485 110.456C160.325 110.616 160.133 110.696 159.909 110.696ZM164.141 119.06L164.261 117.38C164.445 117.38 164.601 117.336 164.729 117.248C164.865 117.152 165.005 116.996 165.149 116.78C165.293 116.556 165.461 116.256 165.653 115.88C165.893 115.4 166.141 115.024 166.397 114.752C166.661 114.48 166.929 114.288 167.201 114.176C167.481 114.056 167.761 113.996 168.041 113.996C168.393 113.996 168.721 114.072 169.025 114.224C169.329 114.376 169.593 114.584 169.817 114.848C170.041 115.104 170.213 115.4 170.333 115.736C170.461 116.064 170.525 116.404 170.525 116.756C170.525 117.18 170.433 117.564 170.249 117.908C170.073 118.244 169.825 118.512 169.505 118.712C169.193 118.904 168.833 119 168.425 119C168.081 119 167.681 118.94 167.225 118.82C166.769 118.7 166.289 118.448 165.785 118.064L166.397 116.612C166.757 116.86 167.093 117.04 167.405 117.152C167.725 117.264 167.989 117.32 168.197 117.32C168.357 117.32 168.489 117.304 168.593 117.272C168.697 117.24 168.773 117.188 168.821 117.116C168.869 117.044 168.893 116.948 168.893 116.828C168.893 116.66 168.853 116.488 168.773 116.312C168.693 116.136 168.585 115.988 168.449 115.868C168.321 115.74 168.169 115.676 167.993 115.676C167.825 115.676 167.681 115.74 167.561 115.868C167.449 115.988 167.337 116.164 167.225 116.396C167.121 116.62 166.993 116.884 166.841 117.188C166.657 117.556 166.477 117.864 166.301 118.112C166.125 118.352 165.937 118.544 165.737 118.688C165.545 118.824 165.317 118.92 165.053 118.976C164.797 119.032 164.493 119.06 164.141 119.06ZM173.741 117.38C174.101 117.38 174.377 117.348 174.569 117.284C174.761 117.22 174.893 117.136 174.965 117.032C175.037 116.928 175.073 116.816 175.073 116.696C175.073 116.504 175.017 116.28 174.905 116.024C174.801 115.768 174.669 115.5 174.509 115.22C174.349 114.94 174.181 114.672 174.005 114.416C173.837 114.16 173.685 113.936 173.549 113.744L174.977 112.796C175.321 113.26 175.617 113.72 175.865 114.176C176.113 114.624 176.313 115.04 176.465 115.424C176.625 115.808 176.737 116.136 176.801 116.408C176.865 116.664 176.961 116.864 177.089 117.008C177.225 117.144 177.381 117.24 177.557 117.296C177.733 117.352 177.909 117.38 178.085 117.38C178.389 117.38 178.605 117.46 178.733 117.62C178.869 117.772 178.937 117.964 178.937 118.196C178.937 118.444 178.853 118.652 178.685 118.82C178.525 118.98 178.285 119.06 177.965 119.06C177.613 119.06 177.305 119.012 177.041 118.916C176.777 118.82 176.553 118.668 176.369 118.46C176.185 118.252 176.029 117.988 175.901 117.668L176.633 117.824C176.569 118.048 176.421 118.256 176.189 118.448C175.965 118.632 175.665 118.784 175.289 118.904C174.921 119.016 174.485 119.072 173.981 119.072C173.741 119.072 173.473 119.052 173.177 119.012C172.889 118.972 172.601 118.912 172.313 118.832C172.033 118.752 171.777 118.648 171.545 118.52L172.133 116.996C172.429 117.124 172.713 117.22 172.985 117.284C173.265 117.348 173.517 117.38 173.741 117.38ZM177.98 119.06L178.1 117.38C178.532 117.38 178.96 117.356 179.384 117.308C179.808 117.26 180.22 117.188 180.62 117.092C181.02 116.996 181.4 116.872 181.76 116.72C182.128 116.568 182.472 116.384 182.792 116.168C182.552 116.024 182.292 115.9 182.012 115.796C181.732 115.692 181.432 115.616 181.112 115.568C180.8 115.512 180.468 115.484 180.116 115.484C179.988 115.484 179.852 115.488 179.708 115.496C179.572 115.504 179.432 115.52 179.288 115.544C179.144 115.56 179 115.584 178.856 115.616L178.616 113.972C178.848 113.908 179.092 113.864 179.348 113.84C179.612 113.808 179.844 113.792 180.044 113.792C180.476 113.792 180.872 113.84 181.232 113.936C181.6 114.032 181.936 114.152 182.24 114.296C182.552 114.44 182.84 114.584 183.104 114.728C183.376 114.872 183.632 114.992 183.872 115.088C184.12 115.184 184.36 115.232 184.592 115.232H185.036L185.228 116.828C184.884 116.844 184.56 116.912 184.256 117.032C183.96 117.144 183.664 117.288 183.368 117.464C183.08 117.632 182.768 117.808 182.432 117.992C182.104 118.176 181.732 118.348 181.316 118.508C180.9 118.668 180.42 118.8 179.876 118.904C179.332 119.008 178.7 119.06 177.98 119.06ZM180.056 112.676C179.808 112.676 179.596 112.592 179.42 112.424C179.252 112.256 179.168 112.048 179.168 111.8C179.168 111.552 179.252 111.34 179.42 111.164C179.596 110.988 179.808 110.9 180.056 110.9C180.296 110.9 180.5 110.988 180.668 111.164C180.844 111.34 180.932 111.552 180.932 111.8C180.932 112.048 180.844 112.256 180.668 112.424C180.5 112.592 180.296 112.676 180.056 112.676Z" fill="#168EEA"/>
<path d="M115.916 14.664C115.916 14.48 115.932 14.264 115.964 14.016C115.996 13.768 116.056 13.488 116.144 13.176C116.232 12.856 116.364 12.5 116.54 12.108L118.016 12.624C117.928 12.872 117.852 13.1 117.788 13.308C117.724 13.508 117.676 13.696 117.644 13.872C117.612 14.04 117.596 14.208 117.596 14.376C117.596 14.736 117.684 15.048 117.86 15.312C118.044 15.584 118.292 15.792 118.604 15.936C118.924 16.088 119.292 16.164 119.708 16.164C120.388 16.164 120.908 16.052 121.268 15.828C121.636 15.612 121.884 15.268 122.012 14.796C122.148 14.316 122.2 13.696 122.168 12.936L121.928 6.216H123.62L123.8 11.892C123.816 12.292 123.872 12.6 123.968 12.816C124.064 13.032 124.212 13.18 124.412 13.26C124.62 13.34 124.888 13.38 125.216 13.38C125.52 13.38 125.736 13.46 125.864 13.62C125.992 13.772 126.056 13.964 126.056 14.196C126.056 14.444 125.972 14.652 125.804 14.82C125.636 14.98 125.4 15.06 125.096 15.06C124.92 15.06 124.732 15.036 124.532 14.988C124.332 14.94 124.14 14.864 123.956 14.76C123.772 14.656 123.612 14.52 123.476 14.352C123.34 14.176 123.248 13.96 123.2 13.704L123.848 13.38C123.848 14.188 123.752 14.872 123.56 15.432C123.376 15.992 123.104 16.444 122.744 16.788C122.392 17.132 121.956 17.38 121.436 17.532C120.924 17.692 120.332 17.772 119.66 17.772C119.148 17.772 118.664 17.708 118.208 17.58C117.76 17.452 117.364 17.26 117.02 17.004C116.676 16.748 116.404 16.424 116.204 16.032C116.012 15.648 115.916 15.192 115.916 14.664ZM125.096 15.06L125.216 13.38H126.896C127.176 13.38 127.388 13.364 127.532 13.332C127.684 13.3 127.788 13.252 127.844 13.188C127.9 13.116 127.928 13.032 127.928 12.936C127.928 12.792 127.864 12.624 127.736 12.432C127.616 12.24 127.456 12.04 127.256 11.832C127.064 11.624 126.86 11.416 126.644 11.208C126.428 10.992 126.22 10.792 126.02 10.608C125.828 10.424 125.668 10.264 125.54 10.128C125.42 9.984 125.36 9.88 125.36 9.816C125.36 9.592 125.372 9.416 125.396 9.288C125.42 9.152 125.452 9.044 125.492 8.964C125.54 8.884 125.592 8.816 125.648 8.76C125.784 8.624 125.988 8.472 126.26 8.304C126.532 8.128 126.852 7.944 127.22 7.752C127.596 7.552 128.016 7.344 128.48 7.128C128.944 6.904 129.436 6.672 129.956 6.432L130.64 7.896C130.112 8.128 129.64 8.344 129.224 8.544C128.816 8.736 128.448 8.916 128.12 9.084C127.8 9.244 127.512 9.396 127.256 9.54C127.008 9.684 126.784 9.82 126.584 9.948L126.704 9.06C127.048 9.356 127.36 9.636 127.64 9.9C127.92 10.164 128.18 10.428 128.42 10.692C128.66 10.956 128.884 11.228 129.092 11.508C129.308 11.788 129.516 12.092 129.716 12.42C129.892 12.7 130.072 12.908 130.256 13.044C130.448 13.18 130.632 13.272 130.808 13.32C130.992 13.36 131.156 13.38 131.3 13.38C131.604 13.38 131.82 13.46 131.948 13.62C132.084 13.772 132.152 13.964 132.152 14.196C132.152 14.444 132.068 14.652 131.9 14.82C131.732 14.98 131.492 15.06 131.18 15.06C130.916 15.06 130.632 15.016 130.328 14.928C130.024 14.832 129.74 14.68 129.476 14.472C129.212 14.264 129.012 13.98 128.876 13.62L129.524 13.668C129.404 13.924 129.26 14.144 129.092 14.328C128.932 14.504 128.74 14.648 128.516 14.76C128.292 14.864 128.036 14.94 127.748 14.988C127.46 15.036 127.136 15.06 126.776 15.06H125.096ZM131.189 15.06L131.309 13.38C131.573 13.38 131.789 13.36 131.957 13.32C132.125 13.272 132.261 13.172 132.365 13.02C132.477 12.86 132.573 12.624 132.653 12.312C132.741 11.992 132.837 11.56 132.941 11.016L134.501 11.304C134.469 11.48 134.425 11.7 134.369 11.964C134.321 12.228 134.297 12.456 134.297 12.648C134.297 12.8 134.325 12.932 134.381 13.044C134.445 13.148 134.549 13.232 134.693 13.296C134.845 13.352 135.053 13.38 135.317 13.38C135.525 13.38 135.701 13.36 135.845 13.32C135.997 13.272 136.125 13.172 136.229 13.02C136.341 12.86 136.437 12.616 136.517 12.288C136.605 11.952 136.689 11.5 136.769 10.932L138.353 11.184C138.321 11.368 138.289 11.564 138.257 11.772C138.225 11.98 138.197 12.172 138.173 12.348C138.149 12.524 138.137 12.668 138.137 12.78C138.137 12.884 138.165 12.984 138.221 13.08C138.285 13.168 138.397 13.24 138.557 13.296C138.725 13.352 138.957 13.38 139.253 13.38C139.613 13.38 139.877 13.304 140.045 13.152C140.221 12.992 140.309 12.752 140.309 12.432C140.309 12.248 140.305 12.052 140.297 11.844C140.289 11.628 140.273 11.388 140.249 11.124C140.233 10.852 140.201 10.544 140.153 10.2L141.701 10.08C141.757 10.768 141.821 11.328 141.893 11.76C141.965 12.192 142.061 12.528 142.181 12.768C142.309 13 142.477 13.16 142.685 13.248C142.901 13.336 143.181 13.38 143.525 13.38C143.829 13.38 144.045 13.46 144.173 13.62C144.309 13.772 144.377 13.964 144.377 14.196C144.377 14.444 144.293 14.652 144.125 14.82C143.965 14.98 143.725 15.06 143.405 15.06C143.189 15.06 142.965 15.04 142.733 15C142.501 14.968 142.277 14.9 142.061 14.796C141.845 14.684 141.653 14.524 141.485 14.316C141.317 14.108 141.185 13.832 141.089 13.488L141.305 13.56C141.193 13.96 141.041 14.268 140.849 14.484C140.657 14.7 140.421 14.852 140.141 14.94C139.861 15.02 139.525 15.06 139.133 15.06C138.773 15.06 138.453 15.012 138.173 14.916C137.893 14.82 137.669 14.664 137.501 14.448C137.341 14.224 137.257 13.924 137.249 13.548H137.657C137.497 13.996 137.313 14.328 137.105 14.544C136.897 14.76 136.645 14.9 136.349 14.964C136.053 15.028 135.681 15.06 135.233 15.06C134.961 15.06 134.693 15.032 134.429 14.976C134.165 14.912 133.929 14.772 133.721 14.556C133.513 14.332 133.361 13.98 133.265 13.5L133.913 13.476C133.745 13.948 133.525 14.296 133.253 14.52C132.989 14.744 132.685 14.892 132.341 14.964C131.997 15.028 131.613 15.06 131.189 15.06ZM137.345 7.632C137.145 7.632 136.969 7.556 136.817 7.404C136.673 7.252 136.601 7.072 136.601 6.864C136.601 6.656 136.673 6.48 136.817 6.336C136.969 6.192 137.145 6.12 137.345 6.12C137.553 6.12 137.729 6.192 137.873 6.336C138.017 6.48 138.089 6.656 138.089 6.864C138.089 7.072 138.017 7.252 137.873 7.404C137.729 7.556 137.553 7.632 137.345 7.632ZM136.385 9.216C136.185 9.216 136.009 9.14 135.857 8.988C135.713 8.836 135.641 8.656 135.641 8.448C135.641 8.24 135.713 8.064 135.857 7.92C136.009 7.776 136.185 7.704 136.385 7.704C136.593 7.704 136.769 7.776 136.913 7.92C137.057 8.064 137.129 8.24 137.129 8.448C137.129 8.656 137.057 8.836 136.913 8.988C136.769 9.14 136.593 9.216 136.385 9.216ZM138.245 9.216C138.045 9.216 137.869 9.14 137.717 8.988C137.573 8.836 137.501 8.656 137.501 8.448C137.501 8.24 137.573 8.064 137.717 7.92C137.869 7.776 138.045 7.704 138.245 7.704C138.453 7.704 138.629 7.776 138.773 7.92C138.917 8.064 138.989 8.24 138.989 8.448C138.989 8.656 138.917 8.836 138.773 8.988C138.629 9.14 138.453 9.216 138.245 9.216ZM143.412 15.06L143.532 13.38C143.716 13.38 143.872 13.336 144 13.248C144.136 13.152 144.276 12.996 144.42 12.78C144.564 12.556 144.732 12.256 144.924 11.88C145.164 11.4 145.412 11.024 145.668 10.752C145.932 10.48 146.2 10.288 146.472 10.176C146.752 10.056 147.032 9.996 147.312 9.996C147.664 9.996 147.992 10.072 148.296 10.224C148.6 10.376 148.864 10.584 149.088 10.848C149.312 11.104 149.484 11.4 149.604 11.736C149.732 12.064 149.796 12.404 149.796 12.756C149.796 13.18 149.704 13.564 149.52 13.908C149.344 14.244 149.096 14.512 148.776 14.712C148.464 14.904 148.104 15 147.696 15C147.352 15 146.952 14.94 146.496 14.82C146.04 14.7 145.56 14.448 145.056 14.064L145.668 12.612C146.028 12.86 146.364 13.04 146.676 13.152C146.996 13.264 147.26 13.32 147.468 13.32C147.628 13.32 147.76 13.304 147.864 13.272C147.968 13.24 148.044 13.188 148.092 13.116C148.14 13.044 148.164 12.948 148.164 12.828C148.164 12.66 148.124 12.488 148.044 12.312C147.964 12.136 147.856 11.988 147.72 11.868C147.592 11.74 147.44 11.676 147.264 11.676C147.096 11.676 146.952 11.74 146.832 11.868C146.72 11.988 146.608 12.164 146.496 12.396C146.392 12.62 146.264 12.884 146.112 13.188C145.928 13.556 145.748 13.864 145.572 14.112C145.396 14.352 145.208 14.544 145.008 14.688C144.816 14.824 144.588 14.92 144.324 14.976C144.068 15.032 143.764 15.06 143.412 15.06Z" fill="#168EEA"/>
<rect width="12" height="2" transform="matrix(-1 0 0 1 185.531 90)" fill="white"/>
<rect width="12" height="2" transform="matrix(-1 0 0 1 174.531 86)" fill="white"/>
<rect width="12" height="2" transform="matrix(-1 0 0 1 185.531 82)" fill="white"/>
<rect width="12" height="2" transform="matrix(-1 0 0 1 171.531 79)" fill="white"/>
<rect width="12" height="2" transform="matrix(-1 0 0 1 185.531 74)" fill="white"/>
<rect width="12" height="2" transform="matrix(-1 0 0 1 167.531 71)" fill="white"/>
<rect width="12" height="2" transform="matrix(-1 0 0 1 161.531 63)" fill="white"/>
<rect width="12" height="2" transform="matrix(-1 0 0 1 181.531 58)" fill="white"/>
<rect width="12" height="2" transform="matrix(-1 0 0 1 165.531 56)" fill="white"/>
<rect width="12" height="2" transform="matrix(-1 0 0 1 181.531 50)" fill="white"/>
<rect width="12" height="2" transform="matrix(-1 0 0 1 163.531 49)" fill="white"/>
<rect width="14" height="2" transform="matrix(-1 0 0 1 192.531 55)" fill="white"/>
<rect width="13" height="2" transform="matrix(-1 0 0 1 182.531 66)" fill="white"/>
<rect width="12" height="2" transform="matrix(-1 0 0 1 159.531 38)" fill="white"/>
<rect width="12" height="2" transform="matrix(-1 0 0 1 171.531 34)" fill="white"/>
<rect width="12" height="2" transform="matrix(-1 0 0 1 154.531 31)" fill="white"/>
<rect width="12" height="2" transform="matrix(-1 0 0 1 160.531 26)" fill="white"/>
<rect width="12" height="2" transform="matrix(-1 0 0 1 185.531 98)" fill="white"/>
<rect width="12" height="2" transform="matrix(-1 0 0 1 176.531 42)" fill="white"/>
<path d="M184.531 34L171.531 34" stroke="#168EEA" stroke-linecap="round"/>
<rect width="12" height="2" transform="matrix(-1 0 0 1 160.531 98)" fill="white"/>
<path d="M307.531 23H173.531" stroke="#168EEA" stroke-linecap="round"/>
<path d="M288.531 49H204.531" stroke="#168EEA" stroke-linecap="round"/>
<path d="M320.531 79H193.531" stroke="#168EEA" stroke-linecap="round"/>
<path d="M255.531 147H155.531" stroke="#168EEA" stroke-linecap="round"/>
<path d="M325.531 116L210.531 116" stroke="#168EEA" stroke-linecap="round"/>
<rect width="9" height="8" transform="matrix(-1 0 0 1 297.531 75)" fill="white"/>
<rect width="9" height="8" transform="matrix(-1 0 0 1 230.531 114)" fill="white"/>
<path d="M187.531 135L174.531 135" stroke="#168EEA" stroke-linecap="round"/>
<path d="M205.531 92L192.531 92" stroke="#168EEA" stroke-linecap="round"/>
<path d="M263.531 69L243.531 69" stroke="#168EEA" stroke-linecap="round"/>
<path d="M283.531 104L270.531 104" stroke="#168EEA" stroke-linecap="round"/>
<path d="M197.531 60L184.531 60" stroke="#168EEA" stroke-linecap="round"/>
<path d="M250.531 98L225.531 98" stroke="#168EEA" stroke-linecap="round"/>
<path d="M232.531 39L219.531 39" stroke="#168EEA" stroke-linecap="round"/>
<path d="M276.531 33L263.531 33" stroke="#168EEA" stroke-linecap="round"/>
<path d="M294.531 131L272.531 131" stroke="#168EEA" stroke-linecap="round"/>
</svg>
