<svg width="239" height="420" viewBox="0 0 239 420" fill="none" xmlns="http://www.w3.org/2000/svg">
<path d="M246.891 339.343C224.282 359.866 195.265 371.16 165.161 371.16C123.57 371.16 85.0022 349.787 61.9099 313.963C54.6557 302.791 39.7847 299.634 28.6617 306.798C17.5387 314.084 14.3952 329.021 21.5285 340.193C53.5676 389.861 107.248 419.491 165.161 419.491C207.235 419.491 247.737 403.705 279.172 375.167C289.086 366.181 289.811 351.001 280.864 341.043C272.038 331.086 256.805 330.357 246.891 339.343Z" fill="#F3F3F3"/>
<path d="M213.926 82.1376C218.511 73.7092 221.045 63.836 220.683 53.4811C219.718 25.4266 197.155 2.06792 169.042 0.141435C136.585 -2.14627 109.437 23.6205 109.437 55.528C109.437 65.1604 111.97 74.1908 116.193 82.1376C48.5044 103.449 0 167.746 0 243.24C0 249.622 0.361977 256.003 0.965266 262.385C1.93053 271.174 9.41132 277.797 18.0987 277.797H311.9C320.708 277.797 328.069 271.174 329.034 262.385C329.758 256.003 329.999 249.622 329.999 243.24C330.24 167.746 281.615 103.449 213.926 82.1376ZM148.409 169.793C117.4 169.793 92.0619 195.078 92.0619 226.022C92.0619 235.293 84.4605 242.759 75.2905 242.759C65.9998 242.759 58.519 235.173 58.519 226.022C58.6397 176.536 98.9394 136.32 148.53 136.2C157.82 136.2 165.301 143.785 165.301 152.936C165.301 162.328 157.7 169.793 148.409 169.793ZM184.003 58.7789C182.676 66.7257 176.281 73.1072 168.318 74.4316C155.166 76.599 143.945 65.4012 146.117 52.277C147.444 44.3303 153.839 37.9488 161.802 36.6243C174.954 34.457 186.175 45.7751 184.003 58.7789Z" fill="#F3F3F3"/>
</svg>
