<svg width="463" height="680" viewBox="0 0 463 680" fill="none" xmlns="http://www.w3.org/2000/svg">
<g opacity="0.5">
<path d="M47.0847 64.7148C42.7731 68.6286 37.2394 70.7824 31.4982 70.7824C23.5666 70.7824 16.2115 66.7064 11.8076 59.8746C10.4242 57.744 7.58816 57.1418 5.46692 58.5082C3.34568 59.8977 2.7462 62.7463 4.10656 64.8769C10.2167 74.3488 20.4539 79.9996 31.4982 79.9996C39.5221 79.9996 47.2461 76.9889 53.241 71.5466C55.1316 69.8329 55.27 66.938 53.5638 65.039C51.8806 63.14 48.9754 63.001 47.0847 64.7148Z" fill="#F3F3F3"/>
<path d="M40.7973 15.6642C41.6717 14.0569 42.1549 12.174 42.0859 10.1992C41.9018 4.84904 37.5989 0.394368 32.2374 0.0269727C26.0477 -0.409309 20.8704 4.5046 20.8704 10.5896C20.8704 12.4266 21.3536 14.1487 22.1589 15.6642C9.25014 19.7285 0 31.9904 0 46.3877C0 47.6047 0.0690316 48.8217 0.184083 50.0387C0.368166 51.7149 1.79481 52.9778 3.45155 52.9778H59.4817C61.1614 52.9778 62.565 51.7149 62.7491 50.0387C62.8872 48.8217 62.9332 47.6047 62.9332 46.3877C62.9792 31.9904 53.7061 19.7285 40.7973 15.6642ZM28.3027 32.3807C22.389 32.3807 17.5569 37.2028 17.5569 43.1041C17.5569 44.8722 16.1072 46.2958 14.3584 46.2958C12.5866 46.2958 11.16 44.8492 11.16 43.1041C11.183 33.6666 18.8685 25.9972 28.3257 25.9743C30.0975 25.9743 31.5241 27.4209 31.5241 29.166C31.5241 30.9571 30.0745 32.3807 28.3027 32.3807ZM35.0907 11.2096C34.8376 12.7251 33.6181 13.9421 32.0994 14.1947C29.5913 14.608 27.4513 12.4725 27.8655 9.96961C28.1186 8.4541 29.3382 7.2371 30.8568 6.98452C33.365 6.5712 35.5049 8.72965 35.0907 11.2096Z" fill="#F3F3F3"/>
<path d="M147.085 64.7148C142.773 68.6286 137.239 70.7824 131.498 70.7824C123.567 70.7824 116.211 66.7064 111.808 59.8746C110.424 57.744 107.588 57.1418 105.467 58.5082C103.346 59.8977 102.746 62.7463 104.107 64.8769C110.217 74.3488 120.454 79.9996 131.498 79.9996C139.522 79.9996 147.246 76.9889 153.241 71.5466C155.132 69.8329 155.27 66.938 153.564 65.039C151.881 63.14 148.975 63.001 147.085 64.7148Z" fill="#F3F3F3"/>
<path d="M140.797 15.6642C141.672 14.0569 142.155 12.174 142.086 10.1992C141.902 4.84904 137.599 0.394368 132.237 0.0269727C126.048 -0.409309 120.87 4.5046 120.87 10.5896C120.87 12.4266 121.354 14.1487 122.159 15.6642C109.25 19.7285 100 31.9904 100 46.3877C100 47.6047 100.069 48.8217 100.184 50.0387C100.368 51.7149 101.795 52.9778 103.452 52.9778H159.482C161.161 52.9778 162.565 51.7149 162.749 50.0387C162.887 48.8217 162.933 47.6047 162.933 46.3877C162.979 31.9904 153.706 19.7285 140.797 15.6642ZM128.303 32.3807C122.389 32.3807 117.557 37.2028 117.557 43.1041C117.557 44.8722 116.107 46.2958 114.358 46.2958C112.587 46.2958 111.16 44.8492 111.16 43.1041C111.183 33.6666 118.868 25.9972 128.326 25.9743C130.097 25.9743 131.524 27.4209 131.524 29.166C131.524 30.9571 130.074 32.3807 128.303 32.3807ZM135.091 11.2096C134.838 12.7251 133.618 13.9421 132.099 14.1947C129.591 14.608 127.451 12.4725 127.865 9.96961C128.119 8.4541 129.338 7.2371 130.857 6.98452C133.365 6.5712 135.505 8.72965 135.091 11.2096Z" fill="#F3F3F3"/>
<path d="M247.085 64.7148C242.773 68.6286 237.239 70.7824 231.498 70.7824C223.567 70.7824 216.211 66.7064 211.808 59.8746C210.424 57.744 207.588 57.1418 205.467 58.5082C203.346 59.8977 202.746 62.7463 204.107 64.8769C210.217 74.3488 220.454 79.9996 231.498 79.9996C239.522 79.9996 247.246 76.9889 253.241 71.5466C255.132 69.8329 255.27 66.938 253.564 65.039C251.881 63.14 248.975 63.001 247.085 64.7148Z" fill="#F3F3F3"/>
<path d="M240.797 15.6642C241.672 14.0569 242.155 12.174 242.086 10.1992C241.902 4.84904 237.599 0.394368 232.237 0.0269727C226.048 -0.409309 220.87 4.5046 220.87 10.5896C220.87 12.4266 221.354 14.1487 222.159 15.6642C209.25 19.7285 200 31.9904 200 46.3877C200 47.6047 200.069 48.8217 200.184 50.0387C200.368 51.7149 201.795 52.9778 203.452 52.9778H259.482C261.161 52.9778 262.565 51.7149 262.749 50.0387C262.887 48.8217 262.933 47.6047 262.933 46.3877C262.979 31.9904 253.706 19.7285 240.797 15.6642ZM228.303 32.3807C222.389 32.3807 217.557 37.2028 217.557 43.1041C217.557 44.8722 216.107 46.2958 214.358 46.2958C212.587 46.2958 211.16 44.8492 211.16 43.1041C211.183 33.6666 218.868 25.9972 228.326 25.9743C230.097 25.9743 231.524 27.4209 231.524 29.166C231.524 30.9571 230.074 32.3807 228.303 32.3807ZM235.091 11.2096C234.838 12.7251 233.618 13.9421 232.099 14.1947C229.591 14.608 227.451 12.4725 227.865 9.96961C228.119 8.4541 229.338 7.2371 230.857 6.98452C233.365 6.5712 235.505 8.72965 235.091 11.2096Z" fill="#F3F3F3"/>
<path d="M347.085 64.7148C342.773 68.6286 337.239 70.7824 331.498 70.7824C323.567 70.7824 316.211 66.7064 311.808 59.8746C310.424 57.744 307.588 57.1418 305.467 58.5082C303.346 59.8977 302.746 62.7463 304.107 64.8769C310.217 74.3488 320.454 79.9996 331.498 79.9996C339.522 79.9996 347.246 76.9889 353.241 71.5466C355.132 69.8329 355.27 66.938 353.564 65.039C351.881 63.14 348.975 63.001 347.085 64.7148Z" fill="#F3F3F3"/>
<path d="M340.797 15.6642C341.672 14.0569 342.155 12.174 342.086 10.1992C341.902 4.84904 337.599 0.394368 332.237 0.0269727C326.048 -0.409309 320.87 4.5046 320.87 10.5896C320.87 12.4266 321.354 14.1487 322.159 15.6642C309.25 19.7285 300 31.9904 300 46.3877C300 47.6047 300.069 48.8217 300.184 50.0387C300.368 51.7149 301.795 52.9778 303.452 52.9778H359.482C361.161 52.9778 362.565 51.7149 362.749 50.0387C362.887 48.8217 362.933 47.6047 362.933 46.3877C362.979 31.9904 353.706 19.7285 340.797 15.6642ZM328.303 32.3807C322.389 32.3807 317.557 37.2028 317.557 43.1041C317.557 44.8722 316.107 46.2958 314.358 46.2958C312.587 46.2958 311.16 44.8492 311.16 43.1041C311.183 33.6666 318.868 25.9972 328.326 25.9743C330.097 25.9743 331.524 27.4209 331.524 29.166C331.524 30.9571 330.074 32.3807 328.303 32.3807ZM335.091 11.2096C334.838 12.7251 333.618 13.9421 332.099 14.1947C329.591 14.608 327.451 12.4725 327.865 9.96961C328.119 8.4541 329.338 7.2371 330.857 6.98452C333.365 6.5712 335.505 8.72965 335.091 11.2096Z" fill="#F3F3F3"/>
<path d="M447.085 64.7148C442.773 68.6286 437.239 70.7824 431.498 70.7824C423.567 70.7824 416.211 66.7064 411.808 59.8746C410.424 57.744 407.588 57.1418 405.467 58.5082C403.346 59.8977 402.746 62.7463 404.107 64.8769C410.217 74.3488 420.454 79.9996 431.498 79.9996C439.522 79.9996 447.246 76.9889 453.241 71.5466C455.132 69.8329 455.27 66.938 453.564 65.039C451.881 63.14 448.975 63.001 447.085 64.7148Z" fill="#F3F3F3"/>
<path d="M440.797 15.6642C441.672 14.0569 442.155 12.174 442.086 10.1992C441.902 4.84904 437.599 0.394368 432.237 0.0269727C426.048 -0.409309 420.87 4.5046 420.87 10.5896C420.87 12.4266 421.354 14.1487 422.159 15.6642C409.25 19.7285 400 31.9904 400 46.3877C400 47.6047 400.069 48.8217 400.184 50.0387C400.368 51.7149 401.795 52.9778 403.452 52.9778H459.482C461.161 52.9778 462.565 51.7149 462.749 50.0387C462.887 48.8217 462.933 47.6047 462.933 46.3877C462.979 31.9904 453.706 19.7285 440.797 15.6642ZM428.303 32.3807C422.389 32.3807 417.557 37.2028 417.557 43.1041C417.557 44.8722 416.107 46.2958 414.358 46.2958C412.587 46.2958 411.16 44.8492 411.16 43.1041C411.183 33.6666 418.868 25.9972 428.326 25.9743C430.097 25.9743 431.524 27.4209 431.524 29.166C431.524 30.9571 430.074 32.3807 428.303 32.3807ZM435.091 11.2096C434.838 12.7251 433.618 13.9421 432.099 14.1947C429.591 14.608 427.451 12.4725 427.865 9.96961C428.119 8.4541 429.338 7.2371 430.857 6.98452C433.365 6.5712 435.505 8.72965 435.091 11.2096Z" fill="#F3F3F3"/>
<path d="M47.0847 164.715C42.7731 168.629 37.2394 170.782 31.4982 170.782C23.5666 170.782 16.2115 166.706 11.8076 159.875C10.4242 157.744 7.58816 157.142 5.46692 158.508C3.34568 159.898 2.7462 162.746 4.10656 164.877C10.2167 174.349 20.4539 180 31.4982 180C39.5221 180 47.2461 176.989 53.241 171.547C55.1316 169.833 55.27 166.938 53.5638 165.039C51.8806 163.14 48.9754 163.001 47.0847 164.715Z" fill="#F3F3F3"/>
<path d="M40.7973 115.664C41.6717 114.057 42.1549 112.174 42.0859 110.199C41.9018 104.849 37.5989 100.394 32.2374 100.027C26.0477 99.5907 20.8704 104.505 20.8704 110.59C20.8704 112.427 21.3536 114.149 22.1589 115.664C9.25014 119.729 0 131.99 0 146.388C0 147.605 0.0690316 148.822 0.184083 150.039C0.368166 151.715 1.79481 152.978 3.45155 152.978H59.4817C61.1614 152.978 62.565 151.715 62.7491 150.039C62.8872 148.822 62.9332 147.605 62.9332 146.388C62.9792 131.99 53.7061 119.729 40.7973 115.664ZM28.3027 132.381C22.389 132.381 17.5569 137.203 17.5569 143.104C17.5569 144.872 16.1072 146.296 14.3584 146.296C12.5866 146.296 11.16 144.849 11.16 143.104C11.183 133.667 18.8685 125.997 28.3257 125.974C30.0975 125.974 31.5241 127.421 31.5241 129.166C31.5241 130.957 30.0745 132.381 28.3027 132.381ZM35.0907 111.21C34.8376 112.725 33.6181 113.942 32.0994 114.195C29.5913 114.608 27.4513 112.472 27.8655 109.97C28.1186 108.454 29.3382 107.237 30.8568 106.985C33.365 106.571 35.5049 108.73 35.0907 111.21Z" fill="#F3F3F3"/>
<path d="M147.085 164.715C142.773 168.629 137.239 170.782 131.498 170.782C123.567 170.782 116.211 166.706 111.808 159.875C110.424 157.744 107.588 157.142 105.467 158.508C103.346 159.898 102.746 162.746 104.107 164.877C110.217 174.349 120.454 180 131.498 180C139.522 180 147.246 176.989 153.241 171.547C155.132 169.833 155.27 166.938 153.564 165.039C151.881 163.14 148.975 163.001 147.085 164.715Z" fill="#F3F3F3"/>
<path d="M140.797 115.664C141.672 114.057 142.155 112.174 142.086 110.199C141.902 104.849 137.599 100.394 132.237 100.027C126.048 99.5907 120.87 104.505 120.87 110.59C120.87 112.427 121.354 114.149 122.159 115.664C109.25 119.729 100 131.99 100 146.388C100 147.605 100.069 148.822 100.184 150.039C100.368 151.715 101.795 152.978 103.452 152.978H159.482C161.161 152.978 162.565 151.715 162.749 150.039C162.887 148.822 162.933 147.605 162.933 146.388C162.979 131.99 153.706 119.729 140.797 115.664ZM128.303 132.381C122.389 132.381 117.557 137.203 117.557 143.104C117.557 144.872 116.107 146.296 114.358 146.296C112.587 146.296 111.16 144.849 111.16 143.104C111.183 133.667 118.868 125.997 128.326 125.974C130.097 125.974 131.524 127.421 131.524 129.166C131.524 130.957 130.074 132.381 128.303 132.381ZM135.091 111.21C134.838 112.725 133.618 113.942 132.099 114.195C129.591 114.608 127.451 112.472 127.865 109.97C128.119 108.454 129.338 107.237 130.857 106.985C133.365 106.571 135.505 108.73 135.091 111.21Z" fill="#F3F3F3"/>
<path d="M247.085 164.715C242.773 168.629 237.239 170.782 231.498 170.782C223.567 170.782 216.211 166.706 211.808 159.875C210.424 157.744 207.588 157.142 205.467 158.508C203.346 159.898 202.746 162.746 204.107 164.877C210.217 174.349 220.454 180 231.498 180C239.522 180 247.246 176.989 253.241 171.547C255.132 169.833 255.27 166.938 253.564 165.039C251.881 163.14 248.975 163.001 247.085 164.715Z" fill="#F3F3F3"/>
<path d="M240.797 115.664C241.672 114.057 242.155 112.174 242.086 110.199C241.902 104.849 237.599 100.394 232.237 100.027C226.048 99.5907 220.87 104.505 220.87 110.59C220.87 112.427 221.354 114.149 222.159 115.664C209.25 119.729 200 131.99 200 146.388C200 147.605 200.069 148.822 200.184 150.039C200.368 151.715 201.795 152.978 203.452 152.978H259.482C261.161 152.978 262.565 151.715 262.749 150.039C262.887 148.822 262.933 147.605 262.933 146.388C262.979 131.99 253.706 119.729 240.797 115.664ZM228.303 132.381C222.389 132.381 217.557 137.203 217.557 143.104C217.557 144.872 216.107 146.296 214.358 146.296C212.587 146.296 211.16 144.849 211.16 143.104C211.183 133.667 218.868 125.997 228.326 125.974C230.097 125.974 231.524 127.421 231.524 129.166C231.524 130.957 230.074 132.381 228.303 132.381ZM235.091 111.21C234.838 112.725 233.618 113.942 232.099 114.195C229.591 114.608 227.451 112.472 227.865 109.97C228.119 108.454 229.338 107.237 230.857 106.985C233.365 106.571 235.505 108.73 235.091 111.21Z" fill="#F3F3F3"/>
<path d="M347.085 164.715C342.773 168.629 337.239 170.782 331.498 170.782C323.567 170.782 316.211 166.706 311.808 159.875C310.424 157.744 307.588 157.142 305.467 158.508C303.346 159.898 302.746 162.746 304.107 164.877C310.217 174.349 320.454 180 331.498 180C339.522 180 347.246 176.989 353.241 171.547C355.132 169.833 355.27 166.938 353.564 165.039C351.881 163.14 348.975 163.001 347.085 164.715Z" fill="#F3F3F3"/>
<path d="M340.797 115.664C341.672 114.057 342.155 112.174 342.086 110.199C341.902 104.849 337.599 100.394 332.237 100.027C326.048 99.5907 320.87 104.505 320.87 110.59C320.87 112.427 321.354 114.149 322.159 115.664C309.25 119.729 300 131.99 300 146.388C300 147.605 300.069 148.822 300.184 150.039C300.368 151.715 301.795 152.978 303.452 152.978H359.482C361.161 152.978 362.565 151.715 362.749 150.039C362.887 148.822 362.933 147.605 362.933 146.388C362.979 131.99 353.706 119.729 340.797 115.664ZM328.303 132.381C322.389 132.381 317.557 137.203 317.557 143.104C317.557 144.872 316.107 146.296 314.358 146.296C312.587 146.296 311.16 144.849 311.16 143.104C311.183 133.667 318.868 125.997 328.326 125.974C330.097 125.974 331.524 127.421 331.524 129.166C331.524 130.957 330.074 132.381 328.303 132.381ZM335.091 111.21C334.838 112.725 333.618 113.942 332.099 114.195C329.591 114.608 327.451 112.472 327.865 109.97C328.119 108.454 329.338 107.237 330.857 106.985C333.365 106.571 335.505 108.73 335.091 111.21Z" fill="#F3F3F3"/>
<path d="M447.085 164.715C442.773 168.629 437.239 170.782 431.498 170.782C423.567 170.782 416.211 166.706 411.808 159.875C410.424 157.744 407.588 157.142 405.467 158.508C403.346 159.898 402.746 162.746 404.107 164.877C410.217 174.349 420.454 180 431.498 180C439.522 180 447.246 176.989 453.241 171.547C455.132 169.833 455.27 166.938 453.564 165.039C451.881 163.14 448.975 163.001 447.085 164.715Z" fill="#F3F3F3"/>
<path d="M440.797 115.664C441.672 114.057 442.155 112.174 442.086 110.199C441.902 104.849 437.599 100.394 432.237 100.027C426.048 99.5907 420.87 104.505 420.87 110.59C420.87 112.427 421.354 114.149 422.159 115.664C409.25 119.729 400 131.99 400 146.388C400 147.605 400.069 148.822 400.184 150.039C400.368 151.715 401.795 152.978 403.452 152.978H459.482C461.161 152.978 462.565 151.715 462.749 150.039C462.887 148.822 462.933 147.605 462.933 146.388C462.979 131.99 453.706 119.729 440.797 115.664ZM428.303 132.381C422.389 132.381 417.557 137.203 417.557 143.104C417.557 144.872 416.107 146.296 414.358 146.296C412.587 146.296 411.16 144.849 411.16 143.104C411.183 133.667 418.868 125.997 428.326 125.974C430.097 125.974 431.524 127.421 431.524 129.166C431.524 130.957 430.074 132.381 428.303 132.381ZM435.091 111.21C434.838 112.725 433.618 113.942 432.099 114.195C429.591 114.608 427.451 112.472 427.865 109.97C428.119 108.454 429.338 107.237 430.857 106.985C433.365 106.571 435.505 108.73 435.091 111.21Z" fill="#F3F3F3"/>
<path d="M47.0847 264.715C42.7731 268.629 37.2394 270.782 31.4982 270.782C23.5666 270.782 16.2115 266.706 11.8076 259.875C10.4242 257.744 7.58816 257.142 5.46692 258.508C3.34568 259.898 2.7462 262.746 4.10656 264.877C10.2167 274.349 20.4539 280 31.4982 280C39.5221 280 47.2461 276.989 53.241 271.547C55.1316 269.833 55.27 266.938 53.5638 265.039C51.8806 263.14 48.9754 263.001 47.0847 264.715Z" fill="#F3F3F3"/>
<path d="M40.7973 215.664C41.6717 214.057 42.1549 212.174 42.0859 210.199C41.9018 204.849 37.5989 200.394 32.2374 200.027C26.0477 199.591 20.8704 204.505 20.8704 210.59C20.8704 212.427 21.3536 214.149 22.1589 215.664C9.25014 219.729 0 231.99 0 246.388C0 247.605 0.0690316 248.822 0.184083 250.039C0.368166 251.715 1.79481 252.978 3.45155 252.978H59.4817C61.1614 252.978 62.565 251.715 62.7491 250.039C62.8872 248.822 62.9332 247.605 62.9332 246.388C62.9792 231.99 53.7061 219.729 40.7973 215.664ZM28.3027 232.381C22.389 232.381 17.5569 237.203 17.5569 243.104C17.5569 244.872 16.1072 246.296 14.3584 246.296C12.5866 246.296 11.16 244.849 11.16 243.104C11.183 233.667 18.8685 225.997 28.3257 225.974C30.0975 225.974 31.5241 227.421 31.5241 229.166C31.5241 230.957 30.0745 232.381 28.3027 232.381ZM35.0907 211.21C34.8376 212.725 33.6181 213.942 32.0994 214.195C29.5913 214.608 27.4513 212.472 27.8655 209.97C28.1186 208.454 29.3382 207.237 30.8568 206.985C33.365 206.571 35.5049 208.73 35.0907 211.21Z" fill="#F3F3F3"/>
<path d="M147.085 264.715C142.773 268.629 137.239 270.782 131.498 270.782C123.567 270.782 116.211 266.706 111.808 259.875C110.424 257.744 107.588 257.142 105.467 258.508C103.346 259.898 102.746 262.746 104.107 264.877C110.217 274.349 120.454 280 131.498 280C139.522 280 147.246 276.989 153.241 271.547C155.132 269.833 155.27 266.938 153.564 265.039C151.881 263.14 148.975 263.001 147.085 264.715Z" fill="#F3F3F3"/>
<path d="M140.797 215.664C141.672 214.057 142.155 212.174 142.086 210.199C141.902 204.849 137.599 200.394 132.237 200.027C126.048 199.591 120.87 204.505 120.87 210.59C120.87 212.427 121.354 214.149 122.159 215.664C109.25 219.729 100 231.99 100 246.388C100 247.605 100.069 248.822 100.184 250.039C100.368 251.715 101.795 252.978 103.452 252.978H159.482C161.161 252.978 162.565 251.715 162.749 250.039C162.887 248.822 162.933 247.605 162.933 246.388C162.979 231.99 153.706 219.729 140.797 215.664ZM128.303 232.381C122.389 232.381 117.557 237.203 117.557 243.104C117.557 244.872 116.107 246.296 114.358 246.296C112.587 246.296 111.16 244.849 111.16 243.104C111.183 233.667 118.868 225.997 128.326 225.974C130.097 225.974 131.524 227.421 131.524 229.166C131.524 230.957 130.074 232.381 128.303 232.381ZM135.091 211.21C134.838 212.725 133.618 213.942 132.099 214.195C129.591 214.608 127.451 212.472 127.865 209.97C128.119 208.454 129.338 207.237 130.857 206.985C133.365 206.571 135.505 208.73 135.091 211.21Z" fill="#F3F3F3"/>
<path d="M247.085 264.715C242.773 268.629 237.239 270.782 231.498 270.782C223.567 270.782 216.211 266.706 211.808 259.875C210.424 257.744 207.588 257.142 205.467 258.508C203.346 259.898 202.746 262.746 204.107 264.877C210.217 274.349 220.454 280 231.498 280C239.522 280 247.246 276.989 253.241 271.547C255.132 269.833 255.27 266.938 253.564 265.039C251.881 263.14 248.975 263.001 247.085 264.715Z" fill="#F3F3F3"/>
<path d="M240.797 215.664C241.672 214.057 242.155 212.174 242.086 210.199C241.902 204.849 237.599 200.394 232.237 200.027C226.048 199.591 220.87 204.505 220.87 210.59C220.87 212.427 221.354 214.149 222.159 215.664C209.25 219.729 200 231.99 200 246.388C200 247.605 200.069 248.822 200.184 250.039C200.368 251.715 201.795 252.978 203.452 252.978H259.482C261.161 252.978 262.565 251.715 262.749 250.039C262.887 248.822 262.933 247.605 262.933 246.388C262.979 231.99 253.706 219.729 240.797 215.664ZM228.303 232.381C222.389 232.381 217.557 237.203 217.557 243.104C217.557 244.872 216.107 246.296 214.358 246.296C212.587 246.296 211.16 244.849 211.16 243.104C211.183 233.667 218.868 225.997 228.326 225.974C230.097 225.974 231.524 227.421 231.524 229.166C231.524 230.957 230.074 232.381 228.303 232.381ZM235.091 211.21C234.838 212.725 233.618 213.942 232.099 214.195C229.591 214.608 227.451 212.472 227.865 209.97C228.119 208.454 229.338 207.237 230.857 206.985C233.365 206.571 235.505 208.73 235.091 211.21Z" fill="#F3F3F3"/>
<path d="M347.085 264.715C342.773 268.629 337.239 270.782 331.498 270.782C323.567 270.782 316.211 266.706 311.808 259.875C310.424 257.744 307.588 257.142 305.467 258.508C303.346 259.898 302.746 262.746 304.107 264.877C310.217 274.349 320.454 280 331.498 280C339.522 280 347.246 276.989 353.241 271.547C355.132 269.833 355.27 266.938 353.564 265.039C351.881 263.14 348.975 263.001 347.085 264.715Z" fill="#F3F3F3"/>
<path d="M340.797 215.664C341.672 214.057 342.155 212.174 342.086 210.199C341.902 204.849 337.599 200.394 332.237 200.027C326.048 199.591 320.87 204.505 320.87 210.59C320.87 212.427 321.354 214.149 322.159 215.664C309.25 219.729 300 231.99 300 246.388C300 247.605 300.069 248.822 300.184 250.039C300.368 251.715 301.795 252.978 303.452 252.978H359.482C361.161 252.978 362.565 251.715 362.749 250.039C362.887 248.822 362.933 247.605 362.933 246.388C362.979 231.99 353.706 219.729 340.797 215.664ZM328.303 232.381C322.389 232.381 317.557 237.203 317.557 243.104C317.557 244.872 316.107 246.296 314.358 246.296C312.587 246.296 311.16 244.849 311.16 243.104C311.183 233.667 318.868 225.997 328.326 225.974C330.097 225.974 331.524 227.421 331.524 229.166C331.524 230.957 330.074 232.381 328.303 232.381ZM335.091 211.21C334.838 212.725 333.618 213.942 332.099 214.195C329.591 214.608 327.451 212.472 327.865 209.97C328.119 208.454 329.338 207.237 330.857 206.985C333.365 206.571 335.505 208.73 335.091 211.21Z" fill="#F3F3F3"/>
<path d="M447.085 264.715C442.773 268.629 437.239 270.782 431.498 270.782C423.567 270.782 416.211 266.706 411.808 259.875C410.424 257.744 407.588 257.142 405.467 258.508C403.346 259.898 402.746 262.746 404.107 264.877C410.217 274.349 420.454 280 431.498 280C439.522 280 447.246 276.989 453.241 271.547C455.132 269.833 455.27 266.938 453.564 265.039C451.881 263.14 448.975 263.001 447.085 264.715Z" fill="#F3F3F3"/>
<path d="M440.797 215.664C441.672 214.057 442.155 212.174 442.086 210.199C441.902 204.849 437.599 200.394 432.237 200.027C426.048 199.591 420.87 204.505 420.87 210.59C420.87 212.427 421.354 214.149 422.159 215.664C409.25 219.729 400 231.99 400 246.388C400 247.605 400.069 248.822 400.184 250.039C400.368 251.715 401.795 252.978 403.452 252.978H459.482C461.161 252.978 462.565 251.715 462.749 250.039C462.887 248.822 462.933 247.605 462.933 246.388C462.979 231.99 453.706 219.729 440.797 215.664ZM428.303 232.381C422.389 232.381 417.557 237.203 417.557 243.104C417.557 244.872 416.107 246.296 414.358 246.296C412.587 246.296 411.16 244.849 411.16 243.104C411.183 233.667 418.868 225.997 428.326 225.974C430.097 225.974 431.524 227.421 431.524 229.166C431.524 230.957 430.074 232.381 428.303 232.381ZM435.091 211.21C434.838 212.725 433.618 213.942 432.099 214.195C429.591 214.608 427.451 212.472 427.865 209.97C428.119 208.454 429.338 207.237 430.857 206.985C433.365 206.571 435.505 208.73 435.091 211.21Z" fill="#F3F3F3"/>
<path d="M47.0847 364.715C42.7731 368.629 37.2394 370.782 31.4982 370.782C23.5666 370.782 16.2115 366.706 11.8076 359.875C10.4242 357.744 7.58816 357.142 5.46692 358.508C3.34568 359.898 2.7462 362.746 4.10656 364.877C10.2167 374.349 20.4539 380 31.4982 380C39.5221 380 47.2461 376.989 53.241 371.547C55.1316 369.833 55.27 366.938 53.5638 365.039C51.8806 363.14 48.9754 363.001 47.0847 364.715Z" fill="#F3F3F3"/>
<path d="M40.7973 315.664C41.6717 314.057 42.1549 312.174 42.0859 310.199C41.9018 304.849 37.5989 300.394 32.2374 300.027C26.0477 299.591 20.8704 304.505 20.8704 310.59C20.8704 312.427 21.3536 314.149 22.1589 315.664C9.25014 319.729 0 331.99 0 346.388C0 347.605 0.0690316 348.822 0.184083 350.039C0.368166 351.715 1.79481 352.978 3.45155 352.978H59.4817C61.1614 352.978 62.565 351.715 62.7491 350.039C62.8872 348.822 62.9332 347.605 62.9332 346.388C62.9792 331.99 53.7061 319.729 40.7973 315.664ZM28.3027 332.381C22.389 332.381 17.5569 337.203 17.5569 343.104C17.5569 344.872 16.1072 346.296 14.3584 346.296C12.5866 346.296 11.16 344.849 11.16 343.104C11.183 333.667 18.8685 325.997 28.3257 325.974C30.0975 325.974 31.5241 327.421 31.5241 329.166C31.5241 330.957 30.0745 332.381 28.3027 332.381ZM35.0907 311.21C34.8376 312.725 33.6181 313.942 32.0994 314.195C29.5913 314.608 27.4513 312.472 27.8655 309.97C28.1186 308.454 29.3382 307.237 30.8568 306.985C33.365 306.571 35.5049 308.73 35.0907 311.21Z" fill="#F3F3F3"/>
<path d="M147.085 364.715C142.773 368.629 137.239 370.782 131.498 370.782C123.567 370.782 116.211 366.706 111.808 359.875C110.424 357.744 107.588 357.142 105.467 358.508C103.346 359.898 102.746 362.746 104.107 364.877C110.217 374.349 120.454 380 131.498 380C139.522 380 147.246 376.989 153.241 371.547C155.132 369.833 155.27 366.938 153.564 365.039C151.881 363.14 148.975 363.001 147.085 364.715Z" fill="#F3F3F3"/>
<path d="M140.797 315.664C141.672 314.057 142.155 312.174 142.086 310.199C141.902 304.849 137.599 300.394 132.237 300.027C126.048 299.591 120.87 304.505 120.87 310.59C120.87 312.427 121.354 314.149 122.159 315.664C109.25 319.729 100 331.99 100 346.388C100 347.605 100.069 348.822 100.184 350.039C100.368 351.715 101.795 352.978 103.452 352.978H159.482C161.161 352.978 162.565 351.715 162.749 350.039C162.887 348.822 162.933 347.605 162.933 346.388C162.979 331.99 153.706 319.729 140.797 315.664ZM128.303 332.381C122.389 332.381 117.557 337.203 117.557 343.104C117.557 344.872 116.107 346.296 114.358 346.296C112.587 346.296 111.16 344.849 111.16 343.104C111.183 333.667 118.868 325.997 128.326 325.974C130.097 325.974 131.524 327.421 131.524 329.166C131.524 330.957 130.074 332.381 128.303 332.381ZM135.091 311.21C134.838 312.725 133.618 313.942 132.099 314.195C129.591 314.608 127.451 312.472 127.865 309.97C128.119 308.454 129.338 307.237 130.857 306.985C133.365 306.571 135.505 308.73 135.091 311.21Z" fill="#F3F3F3"/>
<path d="M247.085 364.715C242.773 368.629 237.239 370.782 231.498 370.782C223.567 370.782 216.211 366.706 211.808 359.875C210.424 357.744 207.588 357.142 205.467 358.508C203.346 359.898 202.746 362.746 204.107 364.877C210.217 374.349 220.454 380 231.498 380C239.522 380 247.246 376.989 253.241 371.547C255.132 369.833 255.27 366.938 253.564 365.039C251.881 363.14 248.975 363.001 247.085 364.715Z" fill="#F3F3F3"/>
<path d="M240.797 315.664C241.672 314.057 242.155 312.174 242.086 310.199C241.902 304.849 237.599 300.394 232.237 300.027C226.048 299.591 220.87 304.505 220.87 310.59C220.87 312.427 221.354 314.149 222.159 315.664C209.25 319.729 200 331.99 200 346.388C200 347.605 200.069 348.822 200.184 350.039C200.368 351.715 201.795 352.978 203.452 352.978H259.482C261.161 352.978 262.565 351.715 262.749 350.039C262.887 348.822 262.933 347.605 262.933 346.388C262.979 331.99 253.706 319.729 240.797 315.664ZM228.303 332.381C222.389 332.381 217.557 337.203 217.557 343.104C217.557 344.872 216.107 346.296 214.358 346.296C212.587 346.296 211.16 344.849 211.16 343.104C211.183 333.667 218.868 325.997 228.326 325.974C230.097 325.974 231.524 327.421 231.524 329.166C231.524 330.957 230.074 332.381 228.303 332.381ZM235.091 311.21C234.838 312.725 233.618 313.942 232.099 314.195C229.591 314.608 227.451 312.472 227.865 309.97C228.119 308.454 229.338 307.237 230.857 306.985C233.365 306.571 235.505 308.73 235.091 311.21Z" fill="#F3F3F3"/>
<path d="M347.085 364.715C342.773 368.629 337.239 370.782 331.498 370.782C323.567 370.782 316.211 366.706 311.808 359.875C310.424 357.744 307.588 357.142 305.467 358.508C303.346 359.898 302.746 362.746 304.107 364.877C310.217 374.349 320.454 380 331.498 380C339.522 380 347.246 376.989 353.241 371.547C355.132 369.833 355.27 366.938 353.564 365.039C351.881 363.14 348.975 363.001 347.085 364.715Z" fill="#F3F3F3"/>
<path d="M340.797 315.664C341.672 314.057 342.155 312.174 342.086 310.199C341.902 304.849 337.599 300.394 332.237 300.027C326.048 299.591 320.87 304.505 320.87 310.59C320.87 312.427 321.354 314.149 322.159 315.664C309.25 319.729 300 331.99 300 346.388C300 347.605 300.069 348.822 300.184 350.039C300.368 351.715 301.795 352.978 303.452 352.978H359.482C361.161 352.978 362.565 351.715 362.749 350.039C362.887 348.822 362.933 347.605 362.933 346.388C362.979 331.99 353.706 319.729 340.797 315.664ZM328.303 332.381C322.389 332.381 317.557 337.203 317.557 343.104C317.557 344.872 316.107 346.296 314.358 346.296C312.587 346.296 311.16 344.849 311.16 343.104C311.183 333.667 318.868 325.997 328.326 325.974C330.097 325.974 331.524 327.421 331.524 329.166C331.524 330.957 330.074 332.381 328.303 332.381ZM335.091 311.21C334.838 312.725 333.618 313.942 332.099 314.195C329.591 314.608 327.451 312.472 327.865 309.97C328.119 308.454 329.338 307.237 330.857 306.985C333.365 306.571 335.505 308.73 335.091 311.21Z" fill="#F3F3F3"/>
<path d="M447.085 364.715C442.773 368.629 437.239 370.782 431.498 370.782C423.567 370.782 416.211 366.706 411.808 359.875C410.424 357.744 407.588 357.142 405.467 358.508C403.346 359.898 402.746 362.746 404.107 364.877C410.217 374.349 420.454 380 431.498 380C439.522 380 447.246 376.989 453.241 371.547C455.132 369.833 455.27 366.938 453.564 365.039C451.881 363.14 448.975 363.001 447.085 364.715Z" fill="#F3F3F3"/>
<path d="M440.797 315.664C441.672 314.057 442.155 312.174 442.086 310.199C441.902 304.849 437.599 300.394 432.237 300.027C426.048 299.591 420.87 304.505 420.87 310.59C420.87 312.427 421.354 314.149 422.159 315.664C409.25 319.729 400 331.99 400 346.388C400 347.605 400.069 348.822 400.184 350.039C400.368 351.715 401.795 352.978 403.452 352.978H459.482C461.161 352.978 462.565 351.715 462.749 350.039C462.887 348.822 462.933 347.605 462.933 346.388C462.979 331.99 453.706 319.729 440.797 315.664ZM428.303 332.381C422.389 332.381 417.557 337.203 417.557 343.104C417.557 344.872 416.107 346.296 414.358 346.296C412.587 346.296 411.16 344.849 411.16 343.104C411.183 333.667 418.868 325.997 428.326 325.974C430.097 325.974 431.524 327.421 431.524 329.166C431.524 330.957 430.074 332.381 428.303 332.381ZM435.091 311.21C434.838 312.725 433.618 313.942 432.099 314.195C429.591 314.608 427.451 312.472 427.865 309.97C428.119 308.454 429.338 307.237 430.857 306.985C433.365 306.571 435.505 308.73 435.091 311.21Z" fill="#F3F3F3"/>
<path d="M47.0847 464.715C42.7731 468.629 37.2394 470.782 31.4982 470.782C23.5666 470.782 16.2115 466.706 11.8076 459.875C10.4242 457.744 7.58816 457.142 5.46692 458.508C3.34568 459.898 2.7462 462.746 4.10656 464.877C10.2167 474.349 20.4539 480 31.4982 480C39.5221 480 47.2461 476.989 53.241 471.547C55.1316 469.833 55.27 466.938 53.5638 465.039C51.8806 463.14 48.9754 463.001 47.0847 464.715Z" fill="#F3F3F3"/>
<path d="M40.7973 415.664C41.6717 414.057 42.1549 412.174 42.0859 410.199C41.9018 404.849 37.5989 400.394 32.2374 400.027C26.0477 399.591 20.8704 404.505 20.8704 410.59C20.8704 412.427 21.3536 414.149 22.1589 415.664C9.25014 419.729 0 431.99 0 446.388C0 447.605 0.0690316 448.822 0.184083 450.039C0.368166 451.715 1.79481 452.978 3.45155 452.978H59.4817C61.1614 452.978 62.565 451.715 62.7491 450.039C62.8872 448.822 62.9332 447.605 62.9332 446.388C62.9792 431.99 53.7061 419.729 40.7973 415.664ZM28.3027 432.381C22.389 432.381 17.5569 437.203 17.5569 443.104C17.5569 444.872 16.1072 446.296 14.3584 446.296C12.5866 446.296 11.16 444.849 11.16 443.104C11.183 433.667 18.8685 425.997 28.3257 425.974C30.0975 425.974 31.5241 427.421 31.5241 429.166C31.5241 430.957 30.0745 432.381 28.3027 432.381ZM35.0907 411.21C34.8376 412.725 33.6181 413.942 32.0994 414.195C29.5913 414.608 27.4513 412.472 27.8655 409.97C28.1186 408.454 29.3382 407.237 30.8568 406.985C33.365 406.571 35.5049 408.73 35.0907 411.21Z" fill="#F3F3F3"/>
<path d="M147.085 464.715C142.773 468.629 137.239 470.782 131.498 470.782C123.567 470.782 116.211 466.706 111.808 459.875C110.424 457.744 107.588 457.142 105.467 458.508C103.346 459.898 102.746 462.746 104.107 464.877C110.217 474.349 120.454 480 131.498 480C139.522 480 147.246 476.989 153.241 471.547C155.132 469.833 155.27 466.938 153.564 465.039C151.881 463.14 148.975 463.001 147.085 464.715Z" fill="#F3F3F3"/>
<path d="M140.797 415.664C141.672 414.057 142.155 412.174 142.086 410.199C141.902 404.849 137.599 400.394 132.237 400.027C126.048 399.591 120.87 404.505 120.87 410.59C120.87 412.427 121.354 414.149 122.159 415.664C109.25 419.729 100 431.99 100 446.388C100 447.605 100.069 448.822 100.184 450.039C100.368 451.715 101.795 452.978 103.452 452.978H159.482C161.161 452.978 162.565 451.715 162.749 450.039C162.887 448.822 162.933 447.605 162.933 446.388C162.979 431.99 153.706 419.729 140.797 415.664ZM128.303 432.381C122.389 432.381 117.557 437.203 117.557 443.104C117.557 444.872 116.107 446.296 114.358 446.296C112.587 446.296 111.16 444.849 111.16 443.104C111.183 433.667 118.868 425.997 128.326 425.974C130.097 425.974 131.524 427.421 131.524 429.166C131.524 430.957 130.074 432.381 128.303 432.381ZM135.091 411.21C134.838 412.725 133.618 413.942 132.099 414.195C129.591 414.608 127.451 412.472 127.865 409.97C128.119 408.454 129.338 407.237 130.857 406.985C133.365 406.571 135.505 408.73 135.091 411.21Z" fill="#F3F3F3"/>
<path d="M247.085 464.715C242.773 468.629 237.239 470.782 231.498 470.782C223.567 470.782 216.211 466.706 211.808 459.875C210.424 457.744 207.588 457.142 205.467 458.508C203.346 459.898 202.746 462.746 204.107 464.877C210.217 474.349 220.454 480 231.498 480C239.522 480 247.246 476.989 253.241 471.547C255.132 469.833 255.27 466.938 253.564 465.039C251.881 463.14 248.975 463.001 247.085 464.715Z" fill="#F3F3F3"/>
<path d="M240.797 415.664C241.672 414.057 242.155 412.174 242.086 410.199C241.902 404.849 237.599 400.394 232.237 400.027C226.048 399.591 220.87 404.505 220.87 410.59C220.87 412.427 221.354 414.149 222.159 415.664C209.25 419.729 200 431.99 200 446.388C200 447.605 200.069 448.822 200.184 450.039C200.368 451.715 201.795 452.978 203.452 452.978H259.482C261.161 452.978 262.565 451.715 262.749 450.039C262.887 448.822 262.933 447.605 262.933 446.388C262.979 431.99 253.706 419.729 240.797 415.664ZM228.303 432.381C222.389 432.381 217.557 437.203 217.557 443.104C217.557 444.872 216.107 446.296 214.358 446.296C212.587 446.296 211.16 444.849 211.16 443.104C211.183 433.667 218.868 425.997 228.326 425.974C230.097 425.974 231.524 427.421 231.524 429.166C231.524 430.957 230.074 432.381 228.303 432.381ZM235.091 411.21C234.838 412.725 233.618 413.942 232.099 414.195C229.591 414.608 227.451 412.472 227.865 409.97C228.119 408.454 229.338 407.237 230.857 406.985C233.365 406.571 235.505 408.73 235.091 411.21Z" fill="#F3F3F3"/>
<path d="M347.085 464.715C342.773 468.629 337.239 470.782 331.498 470.782C323.567 470.782 316.211 466.706 311.808 459.875C310.424 457.744 307.588 457.142 305.467 458.508C303.346 459.898 302.746 462.746 304.107 464.877C310.217 474.349 320.454 480 331.498 480C339.522 480 347.246 476.989 353.241 471.547C355.132 469.833 355.27 466.938 353.564 465.039C351.881 463.14 348.975 463.001 347.085 464.715Z" fill="#F3F3F3"/>
<path d="M340.797 415.664C341.672 414.057 342.155 412.174 342.086 410.199C341.902 404.849 337.599 400.394 332.237 400.027C326.048 399.591 320.87 404.505 320.87 410.59C320.87 412.427 321.354 414.149 322.159 415.664C309.25 419.729 300 431.99 300 446.388C300 447.605 300.069 448.822 300.184 450.039C300.368 451.715 301.795 452.978 303.452 452.978H359.482C361.161 452.978 362.565 451.715 362.749 450.039C362.887 448.822 362.933 447.605 362.933 446.388C362.979 431.99 353.706 419.729 340.797 415.664ZM328.303 432.381C322.389 432.381 317.557 437.203 317.557 443.104C317.557 444.872 316.107 446.296 314.358 446.296C312.587 446.296 311.16 444.849 311.16 443.104C311.183 433.667 318.868 425.997 328.326 425.974C330.097 425.974 331.524 427.421 331.524 429.166C331.524 430.957 330.074 432.381 328.303 432.381ZM335.091 411.21C334.838 412.725 333.618 413.942 332.099 414.195C329.591 414.608 327.451 412.472 327.865 409.97C328.119 408.454 329.338 407.237 330.857 406.985C333.365 406.571 335.505 408.73 335.091 411.21Z" fill="#F3F3F3"/>
<path d="M447.085 464.715C442.773 468.629 437.239 470.782 431.498 470.782C423.567 470.782 416.211 466.706 411.808 459.875C410.424 457.744 407.588 457.142 405.467 458.508C403.346 459.898 402.746 462.746 404.107 464.877C410.217 474.349 420.454 480 431.498 480C439.522 480 447.246 476.989 453.241 471.547C455.132 469.833 455.27 466.938 453.564 465.039C451.881 463.14 448.975 463.001 447.085 464.715Z" fill="#F3F3F3"/>
<path d="M440.797 415.664C441.672 414.057 442.155 412.174 442.086 410.199C441.902 404.849 437.599 400.394 432.237 400.027C426.048 399.591 420.87 404.505 420.87 410.59C420.87 412.427 421.354 414.149 422.159 415.664C409.25 419.729 400 431.99 400 446.388C400 447.605 400.069 448.822 400.184 450.039C400.368 451.715 401.795 452.978 403.452 452.978H459.482C461.161 452.978 462.565 451.715 462.749 450.039C462.887 448.822 462.933 447.605 462.933 446.388C462.979 431.99 453.706 419.729 440.797 415.664ZM428.303 432.381C422.389 432.381 417.557 437.203 417.557 443.104C417.557 444.872 416.107 446.296 414.358 446.296C412.587 446.296 411.16 444.849 411.16 443.104C411.183 433.667 418.868 425.997 428.326 425.974C430.097 425.974 431.524 427.421 431.524 429.166C431.524 430.957 430.074 432.381 428.303 432.381ZM435.091 411.21C434.838 412.725 433.618 413.942 432.099 414.195C429.591 414.608 427.451 412.472 427.865 409.97C428.119 408.454 429.338 407.237 430.857 406.985C433.365 406.571 435.505 408.73 435.091 411.21Z" fill="#F3F3F3"/>
<path d="M47.0847 564.715C42.7731 568.629 37.2394 570.782 31.4982 570.782C23.5666 570.782 16.2115 566.706 11.8076 559.875C10.4242 557.744 7.58816 557.142 5.46692 558.508C3.34568 559.898 2.7462 562.746 4.10656 564.877C10.2167 574.349 20.4539 580 31.4982 580C39.5221 580 47.2461 576.989 53.241 571.547C55.1316 569.833 55.27 566.938 53.5638 565.039C51.8806 563.14 48.9754 563.001 47.0847 564.715Z" fill="#F3F3F3"/>
<path d="M40.7973 515.664C41.6717 514.057 42.1549 512.174 42.0859 510.199C41.9018 504.849 37.5989 500.394 32.2374 500.027C26.0477 499.591 20.8704 504.505 20.8704 510.59C20.8704 512.427 21.3536 514.149 22.1589 515.664C9.25014 519.729 0 531.99 0 546.388C0 547.605 0.0690316 548.822 0.184083 550.039C0.368166 551.715 1.79481 552.978 3.45155 552.978H59.4817C61.1614 552.978 62.565 551.715 62.7491 550.039C62.8872 548.822 62.9332 547.605 62.9332 546.388C62.9792 531.99 53.7061 519.729 40.7973 515.664ZM28.3027 532.381C22.389 532.381 17.5569 537.203 17.5569 543.104C17.5569 544.872 16.1072 546.296 14.3584 546.296C12.5866 546.296 11.16 544.849 11.16 543.104C11.183 533.667 18.8685 525.997 28.3257 525.974C30.0975 525.974 31.5241 527.421 31.5241 529.166C31.5241 530.957 30.0745 532.381 28.3027 532.381ZM35.0907 511.21C34.8376 512.725 33.6181 513.942 32.0994 514.195C29.5913 514.608 27.4513 512.472 27.8655 509.97C28.1186 508.454 29.3382 507.237 30.8568 506.985C33.365 506.571 35.5049 508.73 35.0907 511.21Z" fill="#F3F3F3"/>
<path d="M147.085 564.715C142.773 568.629 137.239 570.782 131.498 570.782C123.567 570.782 116.211 566.706 111.808 559.875C110.424 557.744 107.588 557.142 105.467 558.508C103.346 559.898 102.746 562.746 104.107 564.877C110.217 574.349 120.454 580 131.498 580C139.522 580 147.246 576.989 153.241 571.547C155.132 569.833 155.27 566.938 153.564 565.039C151.881 563.14 148.975 563.001 147.085 564.715Z" fill="#F3F3F3"/>
<path d="M140.797 515.664C141.672 514.057 142.155 512.174 142.086 510.199C141.902 504.849 137.599 500.394 132.237 500.027C126.048 499.591 120.87 504.505 120.87 510.59C120.87 512.427 121.354 514.149 122.159 515.664C109.25 519.729 100 531.99 100 546.388C100 547.605 100.069 548.822 100.184 550.039C100.368 551.715 101.795 552.978 103.452 552.978H159.482C161.161 552.978 162.565 551.715 162.749 550.039C162.887 548.822 162.933 547.605 162.933 546.388C162.979 531.99 153.706 519.729 140.797 515.664ZM128.303 532.381C122.389 532.381 117.557 537.203 117.557 543.104C117.557 544.872 116.107 546.296 114.358 546.296C112.587 546.296 111.16 544.849 111.16 543.104C111.183 533.667 118.868 525.997 128.326 525.974C130.097 525.974 131.524 527.421 131.524 529.166C131.524 530.957 130.074 532.381 128.303 532.381ZM135.091 511.21C134.838 512.725 133.618 513.942 132.099 514.195C129.591 514.608 127.451 512.472 127.865 509.97C128.119 508.454 129.338 507.237 130.857 506.985C133.365 506.571 135.505 508.73 135.091 511.21Z" fill="#F3F3F3"/>
<path d="M247.085 564.715C242.773 568.629 237.239 570.782 231.498 570.782C223.567 570.782 216.211 566.706 211.808 559.875C210.424 557.744 207.588 557.142 205.467 558.508C203.346 559.898 202.746 562.746 204.107 564.877C210.217 574.349 220.454 580 231.498 580C239.522 580 247.246 576.989 253.241 571.547C255.132 569.833 255.27 566.938 253.564 565.039C251.881 563.14 248.975 563.001 247.085 564.715Z" fill="#F3F3F3"/>
<path d="M240.797 515.664C241.672 514.057 242.155 512.174 242.086 510.199C241.902 504.849 237.599 500.394 232.237 500.027C226.048 499.591 220.87 504.505 220.87 510.59C220.87 512.427 221.354 514.149 222.159 515.664C209.25 519.729 200 531.99 200 546.388C200 547.605 200.069 548.822 200.184 550.039C200.368 551.715 201.795 552.978 203.452 552.978H259.482C261.161 552.978 262.565 551.715 262.749 550.039C262.887 548.822 262.933 547.605 262.933 546.388C262.979 531.99 253.706 519.729 240.797 515.664ZM228.303 532.381C222.389 532.381 217.557 537.203 217.557 543.104C217.557 544.872 216.107 546.296 214.358 546.296C212.587 546.296 211.16 544.849 211.16 543.104C211.183 533.667 218.868 525.997 228.326 525.974C230.097 525.974 231.524 527.421 231.524 529.166C231.524 530.957 230.074 532.381 228.303 532.381ZM235.091 511.21C234.838 512.725 233.618 513.942 232.099 514.195C229.591 514.608 227.451 512.472 227.865 509.97C228.119 508.454 229.338 507.237 230.857 506.985C233.365 506.571 235.505 508.73 235.091 511.21Z" fill="#F3F3F3"/>
<path d="M347.085 564.715C342.773 568.629 337.239 570.782 331.498 570.782C323.567 570.782 316.211 566.706 311.808 559.875C310.424 557.744 307.588 557.142 305.467 558.508C303.346 559.898 302.746 562.746 304.107 564.877C310.217 574.349 320.454 580 331.498 580C339.522 580 347.246 576.989 353.241 571.547C355.132 569.833 355.27 566.938 353.564 565.039C351.881 563.14 348.975 563.001 347.085 564.715Z" fill="#F3F3F3"/>
<path d="M340.797 515.664C341.672 514.057 342.155 512.174 342.086 510.199C341.902 504.849 337.599 500.394 332.237 500.027C326.048 499.591 320.87 504.505 320.87 510.59C320.87 512.427 321.354 514.149 322.159 515.664C309.25 519.729 300 531.99 300 546.388C300 547.605 300.069 548.822 300.184 550.039C300.368 551.715 301.795 552.978 303.452 552.978H359.482C361.161 552.978 362.565 551.715 362.749 550.039C362.887 548.822 362.933 547.605 362.933 546.388C362.979 531.99 353.706 519.729 340.797 515.664ZM328.303 532.381C322.389 532.381 317.557 537.203 317.557 543.104C317.557 544.872 316.107 546.296 314.358 546.296C312.587 546.296 311.16 544.849 311.16 543.104C311.183 533.667 318.868 525.997 328.326 525.974C330.097 525.974 331.524 527.421 331.524 529.166C331.524 530.957 330.074 532.381 328.303 532.381ZM335.091 511.21C334.838 512.725 333.618 513.942 332.099 514.195C329.591 514.608 327.451 512.472 327.865 509.97C328.119 508.454 329.338 507.237 330.857 506.985C333.365 506.571 335.505 508.73 335.091 511.21Z" fill="#F3F3F3"/>
<path d="M447.085 564.715C442.773 568.629 437.239 570.782 431.498 570.782C423.567 570.782 416.211 566.706 411.808 559.875C410.424 557.744 407.588 557.142 405.467 558.508C403.346 559.898 402.746 562.746 404.107 564.877C410.217 574.349 420.454 580 431.498 580C439.522 580 447.246 576.989 453.241 571.547C455.132 569.833 455.27 566.938 453.564 565.039C451.881 563.14 448.975 563.001 447.085 564.715Z" fill="#F3F3F3"/>
<path d="M440.797 515.664C441.672 514.057 442.155 512.174 442.086 510.199C441.902 504.849 437.599 500.394 432.237 500.027C426.048 499.591 420.87 504.505 420.87 510.59C420.87 512.427 421.354 514.149 422.159 515.664C409.25 519.729 400 531.99 400 546.388C400 547.605 400.069 548.822 400.184 550.039C400.368 551.715 401.795 552.978 403.452 552.978H459.482C461.161 552.978 462.565 551.715 462.749 550.039C462.887 548.822 462.933 547.605 462.933 546.388C462.979 531.99 453.706 519.729 440.797 515.664ZM428.303 532.381C422.389 532.381 417.557 537.203 417.557 543.104C417.557 544.872 416.107 546.296 414.358 546.296C412.587 546.296 411.16 544.849 411.16 543.104C411.183 533.667 418.868 525.997 428.326 525.974C430.097 525.974 431.524 527.421 431.524 529.166C431.524 530.957 430.074 532.381 428.303 532.381ZM435.091 511.21C434.838 512.725 433.618 513.942 432.099 514.195C429.591 514.608 427.451 512.472 427.865 509.97C428.119 508.454 429.338 507.237 430.857 506.985C433.365 506.571 435.505 508.73 435.091 511.21Z" fill="#F3F3F3"/>
<path d="M47.0847 664.715C42.7731 668.629 37.2394 670.782 31.4982 670.782C23.5666 670.782 16.2115 666.706 11.8076 659.875C10.4242 657.744 7.58816 657.142 5.46692 658.508C3.34568 659.898 2.7462 662.746 4.10656 664.877C10.2167 674.349 20.4539 680 31.4982 680C39.5221 680 47.2461 676.989 53.241 671.547C55.1316 669.833 55.27 666.938 53.5638 665.039C51.8806 663.14 48.9754 663.001 47.0847 664.715Z" fill="#F3F3F3"/>
<path d="M40.7973 615.664C41.6717 614.057 42.1549 612.174 42.0859 610.199C41.9018 604.849 37.5989 600.394 32.2374 600.027C26.0477 599.591 20.8704 604.505 20.8704 610.59C20.8704 612.427 21.3536 614.149 22.1589 615.664C9.25014 619.729 0 631.99 0 646.388C0 647.605 0.0690316 648.822 0.184083 650.039C0.368166 651.715 1.79481 652.978 3.45155 652.978H59.4817C61.1614 652.978 62.565 651.715 62.7491 650.039C62.8872 648.822 62.9332 647.605 62.9332 646.388C62.9792 631.99 53.7061 619.729 40.7973 615.664ZM28.3027 632.381C22.389 632.381 17.5569 637.203 17.5569 643.104C17.5569 644.872 16.1072 646.296 14.3584 646.296C12.5866 646.296 11.16 644.849 11.16 643.104C11.183 633.667 18.8685 625.997 28.3257 625.974C30.0975 625.974 31.5241 627.421 31.5241 629.166C31.5241 630.957 30.0745 632.381 28.3027 632.381ZM35.0907 611.21C34.8376 612.725 33.6181 613.942 32.0994 614.195C29.5913 614.608 27.4513 612.472 27.8655 609.97C28.1186 608.454 29.3382 607.237 30.8568 606.984C33.365 606.571 35.5049 608.73 35.0907 611.21Z" fill="#F3F3F3"/>
<path d="M147.085 664.715C142.773 668.629 137.239 670.782 131.498 670.782C123.567 670.782 116.211 666.706 111.808 659.875C110.424 657.744 107.588 657.142 105.467 658.508C103.346 659.898 102.746 662.746 104.107 664.877C110.217 674.349 120.454 680 131.498 680C139.522 680 147.246 676.989 153.241 671.547C155.132 669.833 155.27 666.938 153.564 665.039C151.881 663.14 148.975 663.001 147.085 664.715Z" fill="#F3F3F3"/>
<path d="M140.797 615.664C141.672 614.057 142.155 612.174 142.086 610.199C141.902 604.849 137.599 600.394 132.237 600.027C126.048 599.591 120.87 604.505 120.87 610.59C120.87 612.427 121.354 614.149 122.159 615.664C109.25 619.729 100 631.99 100 646.388C100 647.605 100.069 648.822 100.184 650.039C100.368 651.715 101.795 652.978 103.452 652.978H159.482C161.161 652.978 162.565 651.715 162.749 650.039C162.887 648.822 162.933 647.605 162.933 646.388C162.979 631.99 153.706 619.729 140.797 615.664ZM128.303 632.381C122.389 632.381 117.557 637.203 117.557 643.104C117.557 644.872 116.107 646.296 114.358 646.296C112.587 646.296 111.16 644.849 111.16 643.104C111.183 633.667 118.868 625.997 128.326 625.974C130.097 625.974 131.524 627.421 131.524 629.166C131.524 630.957 130.074 632.381 128.303 632.381ZM135.091 611.21C134.838 612.725 133.618 613.942 132.099 614.195C129.591 614.608 127.451 612.472 127.865 609.97C128.119 608.454 129.338 607.237 130.857 606.984C133.365 606.571 135.505 608.73 135.091 611.21Z" fill="#F3F3F3"/>
<path d="M247.085 664.715C242.773 668.629 237.239 670.782 231.498 670.782C223.567 670.782 216.211 666.706 211.808 659.875C210.424 657.744 207.588 657.142 205.467 658.508C203.346 659.898 202.746 662.746 204.107 664.877C210.217 674.349 220.454 680 231.498 680C239.522 680 247.246 676.989 253.241 671.547C255.132 669.833 255.27 666.938 253.564 665.039C251.881 663.14 248.975 663.001 247.085 664.715Z" fill="#F3F3F3"/>
<path d="M240.797 615.664C241.672 614.057 242.155 612.174 242.086 610.199C241.902 604.849 237.599 600.394 232.237 600.027C226.048 599.591 220.87 604.505 220.87 610.59C220.87 612.427 221.354 614.149 222.159 615.664C209.25 619.729 200 631.99 200 646.388C200 647.605 200.069 648.822 200.184 650.039C200.368 651.715 201.795 652.978 203.452 652.978H259.482C261.161 652.978 262.565 651.715 262.749 650.039C262.887 648.822 262.933 647.605 262.933 646.388C262.979 631.99 253.706 619.729 240.797 615.664ZM228.303 632.381C222.389 632.381 217.557 637.203 217.557 643.104C217.557 644.872 216.107 646.296 214.358 646.296C212.587 646.296 211.16 644.849 211.16 643.104C211.183 633.667 218.868 625.997 228.326 625.974C230.097 625.974 231.524 627.421 231.524 629.166C231.524 630.957 230.074 632.381 228.303 632.381ZM235.091 611.21C234.838 612.725 233.618 613.942 232.099 614.195C229.591 614.608 227.451 612.472 227.865 609.97C228.119 608.454 229.338 607.237 230.857 606.984C233.365 606.571 235.505 608.73 235.091 611.21Z" fill="#F3F3F3"/>
<path d="M347.085 664.715C342.773 668.629 337.239 670.782 331.498 670.782C323.567 670.782 316.211 666.706 311.808 659.875C310.424 657.744 307.588 657.142 305.467 658.508C303.346 659.898 302.746 662.746 304.107 664.877C310.217 674.349 320.454 680 331.498 680C339.522 680 347.246 676.989 353.241 671.547C355.132 669.833 355.27 666.938 353.564 665.039C351.881 663.14 348.975 663.001 347.085 664.715Z" fill="#F3F3F3"/>
<path d="M340.797 615.664C341.672 614.057 342.155 612.174 342.086 610.199C341.902 604.849 337.599 600.394 332.237 600.027C326.048 599.591 320.87 604.505 320.87 610.59C320.87 612.427 321.354 614.149 322.159 615.664C309.25 619.729 300 631.99 300 646.388C300 647.605 300.069 648.822 300.184 650.039C300.368 651.715 301.795 652.978 303.452 652.978H359.482C361.161 652.978 362.565 651.715 362.749 650.039C362.887 648.822 362.933 647.605 362.933 646.388C362.979 631.99 353.706 619.729 340.797 615.664ZM328.303 632.381C322.389 632.381 317.557 637.203 317.557 643.104C317.557 644.872 316.107 646.296 314.358 646.296C312.587 646.296 311.16 644.849 311.16 643.104C311.183 633.667 318.868 625.997 328.326 625.974C330.097 625.974 331.524 627.421 331.524 629.166C331.524 630.957 330.074 632.381 328.303 632.381ZM335.091 611.21C334.838 612.725 333.618 613.942 332.099 614.195C329.591 614.608 327.451 612.472 327.865 609.97C328.119 608.454 329.338 607.237 330.857 606.984C333.365 606.571 335.505 608.73 335.091 611.21Z" fill="#F3F3F3"/>
<path d="M447.085 664.715C442.773 668.629 437.239 670.782 431.498 670.782C423.567 670.782 416.211 666.706 411.808 659.875C410.424 657.744 407.588 657.142 405.467 658.508C403.346 659.898 402.746 662.746 404.107 664.877C410.217 674.349 420.454 680 431.498 680C439.522 680 447.246 676.989 453.241 671.547C455.132 669.833 455.27 666.938 453.564 665.039C451.881 663.14 448.975 663.001 447.085 664.715Z" fill="#F3F3F3"/>
<path d="M440.797 615.664C441.672 614.057 442.155 612.174 442.086 610.199C441.902 604.849 437.599 600.394 432.237 600.027C426.048 599.591 420.87 604.505 420.87 610.59C420.87 612.427 421.354 614.149 422.159 615.664C409.25 619.729 400 631.99 400 646.388C400 647.605 400.069 648.822 400.184 650.039C400.368 651.715 401.795 652.978 403.452 652.978H459.482C461.161 652.978 462.565 651.715 462.749 650.039C462.887 648.822 462.933 647.605 462.933 646.388C462.979 631.99 453.706 619.729 440.797 615.664ZM428.303 632.381C422.389 632.381 417.557 637.203 417.557 643.104C417.557 644.872 416.107 646.296 414.358 646.296C412.587 646.296 411.16 644.849 411.16 643.104C411.183 633.667 418.868 625.997 428.326 625.974C430.097 625.974 431.524 627.421 431.524 629.166C431.524 630.957 430.074 632.381 428.303 632.381ZM435.091 611.21C434.838 612.725 433.618 613.942 432.099 614.195C429.591 614.608 427.451 612.472 427.865 609.97C428.119 608.454 429.338 607.237 430.857 606.984C433.365 606.571 435.505 608.73 435.091 611.21Z" fill="#F3F3F3"/>
</g>
</svg>
