<svg width="64" height="64" viewBox="0 0 64 64" fill="none" xmlns="http://www.w3.org/2000/svg">
<path d="M26.1553 6.25355C29.3174 2.8703 34.6826 2.8703 37.8447 6.25355L38.7024 7.17124C40.2795 8.85866 42.5089 9.78213 44.8173 9.70412L46.0727 9.66169C50.7009 9.50528 54.4947 13.2991 54.3383 17.9273L54.2959 19.1827C54.2179 21.4911 55.1413 23.7205 56.8288 25.2976L57.7464 26.1553C61.1297 29.3174 61.1297 34.6826 57.7464 37.8447L56.8288 38.7024C55.1413 40.2795 54.2179 42.5089 54.2959 44.8173L54.3383 46.0727C54.4947 50.7009 50.7009 54.4947 46.0727 54.3383L44.8173 54.2959C42.5089 54.2179 40.2795 55.1413 38.7024 56.8288L37.8447 57.7464C34.6826 61.1297 29.3174 61.1297 26.1553 57.7464L25.2976 56.8288C23.7205 55.1413 21.4911 54.2179 19.1827 54.2959L17.9273 54.3383C13.2991 54.4947 9.50528 50.7009 9.66169 46.0727L9.70412 44.8173C9.78213 42.5089 8.85867 40.2795 7.17124 38.7024L6.25355 37.8447C2.8703 34.6826 2.8703 29.3174 6.25355 26.1553L7.17124 25.2976C8.85866 23.7205 9.78213 21.4911 9.70412 19.1827L9.66169 17.9273C9.50528 13.2991 13.2991 9.50528 17.9273 9.66169L19.1827 9.70412C21.4911 9.78213 23.7205 8.85867 25.2976 7.17124L26.1553 6.25355Z" fill="#037EF3"/>
<path d="M26.67 34H24C22.9 34 22 34.9 22 36V41C22 41.55 22.45 42 23 42H26.67C27.22 42 27.67 41.55 27.67 41V35C27.67 34.45 27.22 34 26.67 34Z" fill="white"/>
<path d="M33.3302 30H30.6602C29.5602 30 28.6602 30.9 28.6602 32V41C28.6602 41.55 29.1102 42 29.6602 42H34.3302C34.8802 42 35.3302 41.55 35.3302 41V32C35.3302 30.9 34.4402 30 33.3302 30Z" fill="white"/>
<path d="M40.0001 37H37.3301C36.7801 37 36.3301 37.45 36.3301 38V41C36.3301 41.55 36.7801 42 37.3301 42H41.0001C41.5501 42 42.0001 41.55 42.0001 41V39C42.0001 37.9 41.1001 37 40.0001 37Z" fill="white"/>
<path d="M35.0099 24.85C35.3199 24.54 35.4399 24.17 35.3399 23.85C35.2399 23.53 34.9299 23.3 34.4899 23.23L33.5299 23.07C33.4899 23.07 33.3999 23 33.3799 22.96L32.8499 21.9C32.4499 21.09 31.5399 21.09 31.1399 21.9L30.6099 22.96C30.5999 23 30.5099 23.07 30.4699 23.07L29.5099 23.23C29.0699 23.3 28.7699 23.53 28.6599 23.85C28.5599 24.17 28.6799 24.54 28.9899 24.85L29.7299 25.6C29.7699 25.63 29.7999 25.75 29.7899 25.79L29.5799 26.71C29.4199 27.4 29.6799 27.71 29.8499 27.83C30.0199 27.95 30.3899 28.11 30.9999 27.75L31.8999 27.22C31.9399 27.19 32.0699 27.19 32.1099 27.22L32.9999 27.75C33.2799 27.92 33.5099 27.97 33.6899 27.97C33.8999 27.97 34.0499 27.89 34.1399 27.83C34.3099 27.71 34.5699 27.4 34.4099 26.71L34.1999 25.79C34.1899 25.74 34.2199 25.63 34.2599 25.6L35.0099 24.85Z" fill="white"/>
</svg>
