<svg width="64" height="64" viewBox="0 0 64 64" fill="none" xmlns="http://www.w3.org/2000/svg">
<g id="Group 4276">
<path id="Star 1" d="M26.1553 6.25355C29.3174 2.8703 34.6826 2.8703 37.8447 6.25355L38.7024 7.17124C40.2795 8.85866 42.5089 9.78213 44.8173 9.70412L46.0727 9.66169C50.7009 9.50528 54.4947 13.2991 54.3383 17.9273L54.2959 19.1827C54.2179 21.4911 55.1413 23.7205 56.8288 25.2976L57.7464 26.1553C61.1297 29.3174 61.1297 34.6826 57.7464 37.8447L56.8288 38.7024C55.1413 40.2795 54.2179 42.5089 54.2959 44.8173L54.3383 46.0727C54.4947 50.7009 50.7009 54.4947 46.0727 54.3383L44.8173 54.2959C42.5089 54.2179 40.2795 55.1413 38.7024 56.8288L37.8447 57.7464C34.6826 61.1297 29.3174 61.1297 26.1553 57.7464L25.2976 56.8288C23.7205 55.1413 21.4911 54.2179 19.1827 54.2959L17.9273 54.3383C13.2991 54.4947 9.50528 50.7009 9.66169 46.0727L9.70412 44.8173C9.78213 42.5089 8.85867 40.2795 7.17124 38.7024L6.25355 37.8447C2.8703 34.6826 2.8703 29.3174 6.25355 26.1553L7.17124 25.2976C8.85866 23.7205 9.78213 21.4911 9.70412 19.1827L9.66169 17.9273C9.50528 13.2991 13.2991 9.50528 17.9273 9.66169L19.1827 9.70412C21.4911 9.78213 23.7205 8.85867 25.2976 7.17124L26.1553 6.25355Z" fill="#5627FF"/>
<g id="vuesax/bold/medal-star">
<g id="medal-star">
<path id="Vector" d="M41.2502 38.47L39.6002 38.86C39.2302 38.95 38.9402 39.23 38.8602 39.6L38.5102 41.07C38.3202 41.87 37.3002 42.12 36.7702 41.49L33.7802 38.05C33.5402 37.77 33.6702 37.33 34.0302 37.24C35.8002 36.81 37.3902 35.82 38.5602 34.41C38.7502 34.18 39.0902 34.15 39.3002 34.36L41.5202 36.58C42.2802 37.34 42.0102 38.29 41.2502 38.47Z" fill="white"/>
<path id="Vector_2" d="M22.7002 38.47L24.3502 38.86C24.7202 38.95 25.0102 39.23 25.0902 39.6L25.4402 41.07C25.6302 41.87 26.6502 42.12 27.1802 41.49L30.1702 38.05C30.4102 37.77 30.2802 37.33 29.9202 37.24C28.1502 36.81 26.5602 35.82 25.3902 34.41C25.2002 34.18 24.8602 34.15 24.6502 34.36L22.4302 36.58C21.6702 37.34 21.9402 38.29 22.7002 38.47Z" fill="white"/>
<path id="Vector_3" d="M32 22C28.13 22 25 25.13 25 29C25 30.45 25.43 31.78 26.17 32.89C27.25 34.49 28.96 35.62 30.95 35.91C31.29 35.97 31.64 36 32 36C32.36 36 32.71 35.97 33.05 35.91C35.04 35.62 36.75 34.49 37.83 32.89C38.57 31.78 39 30.45 39 29C39 25.13 35.87 22 32 22ZM35.06 28.78L34.23 29.61C34.09 29.75 34.01 30.02 34.06 30.22L34.3 31.25C34.49 32.06 34.06 32.38 33.34 31.95L32.34 31.36C32.16 31.25 31.86 31.25 31.68 31.36L30.68 31.95C29.96 32.37 29.53 32.06 29.72 31.25L29.96 30.22C30 30.03 29.93 29.75 29.79 29.61L28.94 28.78C28.45 28.29 28.61 27.8 29.29 27.69L30.36 27.51C30.54 27.48 30.75 27.32 30.83 27.16L31.42 25.98C31.74 25.34 32.26 25.34 32.58 25.98L33.17 27.16C33.25 27.32 33.46 27.48 33.65 27.51L34.72 27.69C35.39 27.8 35.55 28.29 35.06 28.78Z" fill="white"/>
</g>
</g>
</g>
</svg>
