<svg width="64" height="64" viewBox="0 0 64 64" fill="none" xmlns="http://www.w3.org/2000/svg">
<path d="M26.1553 6.25355C29.3174 2.8703 34.6826 2.8703 37.8447 6.25355L38.7024 7.17124C40.2795 8.85866 42.5089 9.78213 44.8173 9.70412L46.0727 9.66169C50.7009 9.50528 54.4947 13.2991 54.3383 17.9273L54.2959 19.1827C54.2179 21.4911 55.1413 23.7205 56.8288 25.2976L57.7464 26.1553C61.1297 29.3174 61.1297 34.6826 57.7464 37.8447L56.8288 38.7024C55.1413 40.2795 54.2179 42.5089 54.2959 44.8173L54.3383 46.0727C54.4947 50.7009 50.7009 54.4947 46.0727 54.3383L44.8173 54.2959C42.5089 54.2179 40.2795 55.1413 38.7024 56.8288L37.8447 57.7464C34.6826 61.1297 29.3174 61.1297 26.1553 57.7464L25.2976 56.8288C23.7205 55.1413 21.4911 54.2179 19.1827 54.2959L17.9273 54.3383C13.2991 54.4947 9.50528 50.7009 9.66169 46.0727L9.70412 44.8173C9.78213 42.5089 8.85867 40.2795 7.17124 38.7024L6.25355 37.8447C2.8703 34.6826 2.8703 29.3174 6.25355 26.1553L7.17124 25.2976C8.85866 23.7205 9.78213 21.4911 9.70412 19.1827L9.66169 17.9273C9.50528 13.2991 13.2991 9.50528 17.9273 9.66169L19.1827 9.70412C21.4911 9.78213 23.7205 8.85867 25.2976 7.17124L26.1553 6.25355Z" fill="#037EF3"/>
<path d="M32 35C35.7279 35 38.75 32.0899 38.75 28.5C38.75 24.9101 35.7279 22 32 22C28.2721 22 25.25 24.9101 25.25 28.5C25.25 32.0899 28.2721 35 32 35Z" fill="white"/>
<path d="M35.79 35.61C36.12 35.44 36.5 35.69 36.5 36.06V40.91C36.5 41.81 35.87 42.25 35.09 41.88L32.41 40.61C32.18 40.51 31.82 40.51 31.59 40.61L28.91 41.88C28.13 42.24 27.5 41.8 27.5 40.9L27.52 36.06C27.52 35.69 27.91 35.45 28.23 35.61C29.36 36.18 30.64 36.5 32 36.5C33.36 36.5 34.65 36.18 35.79 35.61Z" fill="white"/>
</svg>
