<svg width="64" height="64" viewBox="0 0 64 64" fill="none" xmlns="http://www.w3.org/2000/svg">
<g id="Group 4280">
<path id="Star 1" d="M26.1553 6.25355C29.3174 2.8703 34.6826 2.8703 37.8447 6.25355L38.7024 7.17124C40.2795 8.85866 42.5089 9.78213 44.8173 9.70412L46.0727 9.66169C50.7009 9.50528 54.4947 13.2991 54.3383 17.9273L54.2959 19.1827C54.2179 21.4911 55.1413 23.7205 56.8288 25.2976L57.7464 26.1553C61.1297 29.3174 61.1297 34.6826 57.7464 37.8447L56.8288 38.7024C55.1413 40.2795 54.2179 42.5089 54.2959 44.8173L54.3383 46.0727C54.4947 50.7009 50.7009 54.4947 46.0727 54.3383L44.8173 54.2959C42.5089 54.2179 40.2795 55.1413 38.7024 56.8288L37.8447 57.7464C34.6826 61.1297 29.3174 61.1297 26.1553 57.7464L25.2976 56.8288C23.7205 55.1413 21.4911 54.2179 19.1827 54.2959L17.9273 54.3383C13.2991 54.4947 9.50528 50.7009 9.66169 46.0727L9.70412 44.8173C9.78213 42.5089 8.85867 40.2795 7.17124 38.7024L6.25355 37.8447C2.8703 34.6826 2.8703 29.3174 6.25355 26.1553L7.17124 25.2976C8.85866 23.7205 9.78213 21.4911 9.70412 19.1827L9.66169 17.9273C9.50528 13.2991 13.2991 9.50528 17.9273 9.66169L19.1827 9.70412C21.4911 9.78213 23.7205 8.85867 25.2976 7.17124L26.1553 6.25355Z" fill="#5627FF"/>
<g id="vuesax/bold/verify">
<g id="verify">
<path id="Vector" d="M41.5599 30.7401L40.1999 29.1601C39.9399 28.8601 39.7299 28.3001 39.7299 27.9001V26.2001C39.7299 25.1401 38.8599 24.2701 37.7999 24.2701H36.0999C35.7099 24.2701 35.1399 24.0601 34.8399 23.8001L33.2599 22.4401C32.5699 21.8501 31.4399 21.8501 30.7399 22.4401L29.1699 23.8101C28.8699 24.0601 28.2999 24.2701 27.9099 24.2701H26.1799C25.1199 24.2701 24.2499 25.1401 24.2499 26.2001V27.9101C24.2499 28.3001 24.0399 28.8601 23.7899 29.1601L22.4399 30.7501C21.8599 31.4401 21.8599 32.5601 22.4399 33.2501L23.7899 34.8401C24.0399 35.1401 24.2499 35.7001 24.2499 36.0901V37.8001C24.2499 38.8601 25.1199 39.7301 26.1799 39.7301H27.9099C28.2999 39.7301 28.8699 39.9401 29.1699 40.2001L30.7499 41.5601C31.4399 42.1501 32.5699 42.1501 33.2699 41.5601L34.8499 40.2001C35.1499 39.9401 35.7099 39.7301 36.1099 39.7301H37.8099C38.8699 39.7301 39.7399 38.8601 39.7399 37.8001V36.1001C39.7399 35.7101 39.9499 35.1401 40.2099 34.8401L41.5699 33.2601C42.1499 32.5701 42.1499 31.4301 41.5599 30.7401ZM36.1599 30.1101L31.3299 34.9401C31.1899 35.0801 30.9999 35.1601 30.7999 35.1601C30.5999 35.1601 30.4099 35.0801 30.2699 34.9401L27.8499 32.5201C27.5599 32.2301 27.5599 31.7501 27.8499 31.4601C28.1399 31.1701 28.6199 31.1701 28.9099 31.4601L30.7999 33.3501L35.0999 29.0501C35.3899 28.7601 35.8699 28.7601 36.1599 29.0501C36.4499 29.3401 36.4499 29.8201 36.1599 30.1101Z" fill="white"/>
</g>
</g>
</g>
</svg>
