<svg width="327" height="151" viewBox="0 0 327 151" fill="none" xmlns="http://www.w3.org/2000/svg">
<path d="M291.803 80.915C291.803 119.01 258.856 150 218.077 150C177.297 150 144.35 119.01 144.35 80.915C144.35 42.8198 177.297 11.8298 218.077 11.8298C258.856 11.8298 291.803 42.8198 291.803 80.915Z" fill="white" stroke="#168EEA" stroke-width="2"/>
<rect x="259.826" y="64.4915" width="65.955" height="21.707" rx="10.8535" fill="white" stroke="#168EEA" stroke-width="1.5"/>
<rect x="159.75" y="0.75" width="74.5" height="21.5" rx="10.75" fill="white" stroke="#168EEA" stroke-width="1.5"/>
<rect x="122.75" y="104.717" width="66.2645" height="21.707" rx="10.8535" fill="white" stroke="#168EEA" stroke-width="1.5"/>
<path d="M274.192 72.6719C274.152 72.2997 273.984 72.0099 273.689 71.8026C273.396 71.5952 273.015 71.4915 272.547 71.4915C272.217 71.4915 271.934 71.5412 271.699 71.6406C271.463 71.7401 271.282 71.875 271.157 72.0455C271.032 72.2159 270.969 72.4105 270.966 72.6293C270.966 72.8111 271.007 72.9687 271.089 73.1023C271.175 73.2358 271.29 73.3494 271.434 73.4432C271.579 73.5341 271.74 73.6108 271.916 73.6733C272.092 73.7358 272.27 73.7884 272.449 73.831L273.267 74.0355C273.596 74.1122 273.913 74.2159 274.217 74.3466C274.524 74.4773 274.798 74.642 275.04 74.8409C275.284 75.0398 275.477 75.2798 275.619 75.5611C275.761 75.8423 275.832 76.1719 275.832 76.5497C275.832 77.0611 275.702 77.5114 275.44 77.9006C275.179 78.2869 274.801 78.5895 274.307 78.8082C273.815 79.0241 273.22 79.1321 272.521 79.1321C271.842 79.1321 271.253 79.027 270.753 78.8168C270.256 78.6065 269.866 78.2997 269.585 77.8963C269.307 77.4929 269.156 77.0014 269.133 76.4219H270.689C270.711 76.7259 270.805 76.9787 270.97 77.1804C271.135 77.3821 271.349 77.5327 271.613 77.6321C271.881 77.7315 272.179 77.7812 272.508 77.7812C272.852 77.7812 273.153 77.7301 273.412 77.6278C273.673 77.5227 273.878 77.3778 274.025 77.1932C274.173 77.0057 274.248 76.7869 274.251 76.5369C274.248 76.3097 274.182 76.1222 274.051 75.9744C273.92 75.8239 273.737 75.6989 273.501 75.5994C273.268 75.4972 272.996 75.4062 272.683 75.3267L271.69 75.071C270.971 74.8864 270.403 74.6065 269.986 74.2315C269.571 73.8537 269.363 73.3523 269.363 72.7273C269.363 72.2131 269.503 71.7628 269.781 71.3764C270.062 70.9901 270.444 70.6903 270.927 70.4773C271.41 70.2614 271.957 70.1534 272.568 70.1534C273.187 70.1534 273.73 70.2614 274.196 70.4773C274.665 70.6903 275.032 70.9872 275.3 71.3679C275.567 71.7457 275.704 72.1804 275.713 72.6719H274.192ZM280.029 79.1278C279.389 79.1278 278.835 78.9872 278.367 78.706C277.898 78.4247 277.534 78.0312 277.276 77.5256C277.02 77.0199 276.892 76.429 276.892 75.7528C276.892 75.0767 277.02 74.4844 277.276 73.9759C277.534 73.4673 277.898 73.0724 278.367 72.7912C278.835 72.5099 279.389 72.3693 280.029 72.3693C280.668 72.3693 281.222 72.5099 281.691 72.7912C282.159 73.0724 282.521 73.4673 282.777 73.9759C283.036 74.4844 283.165 75.0767 283.165 75.7528C283.165 76.429 283.036 77.0199 282.777 77.5256C282.521 78.0312 282.159 78.4247 281.691 78.706C281.222 78.9872 280.668 79.1278 280.029 79.1278ZM280.037 77.892C280.384 77.892 280.673 77.7969 280.906 77.6065C281.139 77.4134 281.313 77.1548 281.426 76.831C281.543 76.5071 281.601 76.1463 281.601 75.7486C281.601 75.348 281.543 74.9858 281.426 74.6619C281.313 74.3352 281.139 74.0753 280.906 73.8821C280.673 73.6889 280.384 73.5923 280.037 73.5923C279.682 73.5923 279.387 73.6889 279.151 73.8821C278.918 74.0753 278.743 74.3352 278.627 74.6619C278.513 74.9858 278.456 75.348 278.456 75.7486C278.456 76.1463 278.513 76.5071 278.627 76.831C278.743 77.1548 278.918 77.4134 279.151 77.6065C279.387 77.7969 279.682 77.892 280.037 77.892ZM286.017 70.2727V79H284.474V70.2727H286.017ZM291.775 76.2472V72.4545H293.318V79H291.822V77.8366H291.754C291.606 78.2031 291.363 78.5028 291.025 78.7358C290.69 78.9687 290.276 79.0852 289.785 79.0852C289.356 79.0852 288.977 78.9901 288.647 78.7997C288.32 78.6065 288.065 78.3267 287.88 77.9602C287.695 77.5909 287.603 77.1449 287.603 76.6222V72.4545H289.146V76.3835C289.146 76.7983 289.259 77.1278 289.487 77.3722C289.714 77.6165 290.012 77.7386 290.382 77.7386C290.609 77.7386 290.829 77.6832 291.042 77.5724C291.255 77.4616 291.43 77.2969 291.566 77.0781C291.705 76.8565 291.775 76.5795 291.775 76.2472ZM298.172 72.4545V73.6477H294.41V72.4545H298.172ZM295.339 70.8864H296.881V77.0312C296.881 77.2386 296.912 77.3977 296.975 77.5085C297.04 77.6165 297.126 77.6903 297.231 77.7301C297.336 77.7699 297.452 77.7898 297.58 77.7898C297.677 77.7898 297.765 77.7827 297.844 77.7685C297.927 77.7543 297.989 77.7415 298.032 77.7301L298.292 78.9361C298.209 78.9645 298.091 78.9957 297.938 79.0298C297.787 79.0639 297.603 79.0838 297.384 79.0895C296.998 79.1009 296.65 79.0426 296.34 78.9148C296.03 78.7841 295.785 78.5824 295.603 78.3097C295.424 78.0369 295.336 77.696 295.339 77.2869V70.8864ZM299.463 79V72.4545H301.005V79H299.463ZM300.238 71.5256C299.994 71.5256 299.784 71.4446 299.607 71.2827C299.431 71.1179 299.343 70.9205 299.343 70.6903C299.343 70.4574 299.431 70.2599 299.607 70.098C299.784 69.9332 299.994 69.8509 300.238 69.8509C300.485 69.8509 300.695 69.9332 300.869 70.098C301.045 70.2599 301.133 70.4574 301.133 70.6903C301.133 70.9205 301.045 71.1179 300.869 71.2827C300.695 71.4446 300.485 71.5256 300.238 71.5256ZM305.447 79.1278C304.807 79.1278 304.253 78.9872 303.785 78.706C303.316 78.4247 302.952 78.0312 302.694 77.5256C302.438 77.0199 302.31 76.429 302.31 75.7528C302.31 75.0767 302.438 74.4844 302.694 73.9759C302.952 73.4673 303.316 73.0724 303.785 72.7912C304.253 72.5099 304.807 72.3693 305.447 72.3693C306.086 72.3693 306.64 72.5099 307.108 72.7912C307.577 73.0724 307.939 73.4673 308.195 73.9759C308.454 74.4844 308.583 75.0767 308.583 75.7528C308.583 76.429 308.454 77.0199 308.195 77.5256C307.939 78.0312 307.577 78.4247 307.108 78.706C306.64 78.9872 306.086 79.1278 305.447 79.1278ZM305.455 77.892C305.802 77.892 306.091 77.7969 306.324 77.6065C306.557 77.4134 306.731 77.1548 306.844 76.831C306.961 76.5071 307.019 76.1463 307.019 75.7486C307.019 75.348 306.961 74.9858 306.844 74.6619C306.731 74.3352 306.557 74.0753 306.324 73.8821C306.091 73.6889 305.802 73.5923 305.455 73.5923C305.1 73.5923 304.805 73.6889 304.569 73.8821C304.336 74.0753 304.161 74.3352 304.045 74.6619C303.931 74.9858 303.874 75.348 303.874 75.7486C303.874 76.1463 303.931 76.5071 304.045 76.831C304.161 77.1548 304.336 77.4134 304.569 77.6065C304.805 77.7969 305.1 77.892 305.455 77.892ZM311.435 75.1648V79H309.892V72.4545H311.367V73.5668H311.443C311.594 73.2003 311.834 72.9091 312.164 72.6932C312.496 72.4773 312.906 72.3693 313.395 72.3693C313.847 72.3693 314.24 72.4659 314.575 72.6591C314.914 72.8523 315.175 73.1321 315.36 73.4986C315.547 73.8651 315.639 74.3097 315.637 74.8324V79H314.094V75.071C314.094 74.6335 313.98 74.2912 313.753 74.044C313.529 73.7969 313.218 73.6733 312.82 73.6733C312.55 73.6733 312.31 73.733 312.1 73.8523C311.892 73.9687 311.729 74.1378 311.61 74.3594C311.493 74.581 311.435 74.8494 311.435 75.1648Z" fill="#168EEA"/>
<path d="M139.131 113.672C139.091 113.3 138.924 113.01 138.628 112.803C138.336 112.595 137.955 112.491 137.486 112.491C137.157 112.491 136.874 112.541 136.638 112.641C136.402 112.74 136.222 112.875 136.097 113.045C135.972 113.216 135.908 113.411 135.905 113.629C135.905 113.811 135.946 113.969 136.029 114.102C136.114 114.236 136.229 114.349 136.374 114.443C136.519 114.534 136.679 114.611 136.855 114.673C137.032 114.736 137.209 114.788 137.388 114.831L138.206 115.036C138.536 115.112 138.853 115.216 139.157 115.347C139.463 115.477 139.738 115.642 139.979 115.841C140.223 116.04 140.417 116.28 140.559 116.561C140.701 116.842 140.772 117.172 140.772 117.55C140.772 118.061 140.641 118.511 140.38 118.901C140.118 119.287 139.74 119.589 139.246 119.808C138.755 120.024 138.159 120.132 137.461 120.132C136.782 120.132 136.192 120.027 135.692 119.817C135.195 119.607 134.806 119.3 134.525 118.896C134.246 118.493 134.096 118.001 134.073 117.422H135.628C135.651 117.726 135.745 117.979 135.909 118.18C136.074 118.382 136.289 118.533 136.553 118.632C136.82 118.732 137.118 118.781 137.448 118.781C137.792 118.781 138.093 118.73 138.351 118.628C138.613 118.523 138.817 118.378 138.965 118.193C139.113 118.006 139.188 117.787 139.191 117.537C139.188 117.31 139.121 117.122 138.99 116.974C138.86 116.824 138.676 116.699 138.441 116.599C138.208 116.497 137.935 116.406 137.623 116.327L136.63 116.071C135.911 115.886 135.343 115.607 134.925 115.232C134.51 114.854 134.303 114.352 134.303 113.727C134.303 113.213 134.442 112.763 134.721 112.376C135.002 111.99 135.384 111.69 135.867 111.477C136.35 111.261 136.897 111.153 137.507 111.153C138.127 111.153 138.669 111.261 139.135 111.477C139.604 111.69 139.972 111.987 140.239 112.368C140.506 112.746 140.644 113.18 140.652 113.672H139.131ZM145.011 120.128C144.354 120.128 143.788 119.991 143.31 119.719C142.836 119.443 142.471 119.054 142.215 118.551C141.96 118.045 141.832 117.45 141.832 116.766C141.832 116.092 141.96 115.501 142.215 114.993C142.474 114.482 142.835 114.084 143.298 113.8C143.761 113.513 144.305 113.369 144.93 113.369C145.333 113.369 145.714 113.435 146.072 113.565C146.433 113.693 146.751 113.892 147.026 114.162C147.305 114.432 147.523 114.776 147.683 115.193C147.842 115.608 147.921 116.102 147.921 116.676V117.149H142.556V116.109H146.442C146.44 115.814 146.376 115.551 146.251 115.321C146.126 115.088 145.951 114.905 145.727 114.771C145.505 114.638 145.246 114.571 144.951 114.571C144.636 114.571 144.359 114.648 144.12 114.801C143.881 114.952 143.695 115.151 143.562 115.398C143.431 115.642 143.364 115.911 143.362 116.203V117.111C143.362 117.491 143.431 117.818 143.57 118.091C143.71 118.361 143.904 118.568 144.154 118.713C144.404 118.855 144.697 118.926 145.032 118.926C145.256 118.926 145.46 118.895 145.641 118.832C145.823 118.767 145.981 118.672 146.114 118.547C146.248 118.422 146.349 118.267 146.417 118.082L147.857 118.244C147.766 118.625 147.593 118.957 147.337 119.241C147.085 119.523 146.761 119.741 146.366 119.898C145.971 120.051 145.519 120.128 145.011 120.128ZM149.226 120V113.455H150.722V114.545H150.79C150.909 114.168 151.114 113.876 151.404 113.672C151.696 113.464 152.03 113.361 152.405 113.361C152.49 113.361 152.586 113.365 152.691 113.374C152.799 113.379 152.888 113.389 152.959 113.403V114.822C152.894 114.8 152.79 114.78 152.648 114.763C152.509 114.743 152.374 114.733 152.243 114.733C151.962 114.733 151.709 114.794 151.485 114.916C151.263 115.036 151.088 115.202 150.961 115.415C150.833 115.628 150.769 115.874 150.769 116.152V120H149.226ZM160.03 113.455L157.699 120H155.994L153.663 113.455H155.308L156.812 118.317H156.881L158.389 113.455H160.03ZM161.097 120V113.455H162.64V120H161.097ZM161.873 112.526C161.629 112.526 161.418 112.445 161.242 112.283C161.066 112.118 160.978 111.92 160.978 111.69C160.978 111.457 161.066 111.26 161.242 111.098C161.418 110.933 161.629 110.851 161.873 110.851C162.12 110.851 162.33 110.933 162.504 111.098C162.68 111.26 162.768 111.457 162.768 111.69C162.768 111.92 162.68 112.118 162.504 112.283C162.33 112.445 162.12 112.526 161.873 112.526ZM167.081 120.128C166.428 120.128 165.867 119.984 165.398 119.697C164.932 119.411 164.573 119.014 164.32 118.509C164.07 118 163.945 117.415 163.945 116.753C163.945 116.088 164.073 115.501 164.328 114.993C164.584 114.482 164.945 114.084 165.411 113.8C165.88 113.513 166.434 113.369 167.073 113.369C167.604 113.369 168.074 113.467 168.483 113.663C168.895 113.857 169.223 114.131 169.468 114.486C169.712 114.838 169.851 115.25 169.885 115.722H168.411C168.351 115.406 168.209 115.143 167.985 114.933C167.763 114.72 167.466 114.614 167.094 114.614C166.779 114.614 166.502 114.699 166.263 114.869C166.025 115.037 165.838 115.278 165.705 115.594C165.574 115.909 165.509 116.287 165.509 116.727C165.509 117.173 165.574 117.557 165.705 117.878C165.836 118.196 166.019 118.442 166.255 118.615C166.493 118.786 166.773 118.871 167.094 118.871C167.321 118.871 167.525 118.828 167.703 118.743C167.885 118.655 168.037 118.528 168.159 118.364C168.282 118.199 168.365 117.999 168.411 117.763H169.885C169.848 118.226 169.712 118.636 169.476 118.994C169.24 119.349 168.919 119.628 168.513 119.83C168.107 120.028 167.63 120.128 167.081 120.128ZM174.05 120.128C173.393 120.128 172.827 119.991 172.349 119.719C171.875 119.443 171.51 119.054 171.254 118.551C170.999 118.045 170.871 117.45 170.871 116.766C170.871 116.092 170.999 115.501 171.254 114.993C171.513 114.482 171.874 114.084 172.337 113.8C172.8 113.513 173.344 113.369 173.969 113.369C174.372 113.369 174.753 113.435 175.111 113.565C175.472 113.693 175.79 113.892 176.065 114.162C176.344 114.432 176.563 114.776 176.722 115.193C176.881 115.608 176.96 116.102 176.96 116.676V117.149H171.595V116.109H175.482C175.479 115.814 175.415 115.551 175.29 115.321C175.165 115.088 174.99 114.905 174.766 114.771C174.544 114.638 174.286 114.571 173.99 114.571C173.675 114.571 173.398 114.648 173.159 114.801C172.92 114.952 172.734 115.151 172.601 115.398C172.47 115.642 172.403 115.911 172.401 116.203V117.111C172.401 117.491 172.47 117.818 172.609 118.091C172.749 118.361 172.943 118.568 173.193 118.713C173.443 118.855 173.736 118.926 174.071 118.926C174.295 118.926 174.499 118.895 174.68 118.832C174.862 118.767 175.02 118.672 175.153 118.547C175.287 118.422 175.388 118.267 175.456 118.082L176.896 118.244C176.805 118.625 176.632 118.957 176.376 119.241C176.124 119.523 175.8 119.741 175.405 119.898C175.01 120.051 174.558 120.128 174.05 120.128Z" fill="#168EEA"/>
<path d="M170.263 15V6.27273H173.536C174.206 6.27273 174.769 6.39773 175.223 6.64773C175.681 6.89773 176.026 7.24148 176.259 7.67898C176.495 8.11364 176.613 8.60795 176.613 9.16193C176.613 9.72159 176.495 10.2187 176.259 10.6534C176.023 11.0881 175.675 11.4304 175.215 11.6804C174.755 11.9276 174.188 12.0511 173.515 12.0511H171.346V10.7514H173.301C173.694 10.7514 174.015 10.6832 174.265 10.5469C174.515 10.4105 174.699 10.223 174.819 9.98438C174.941 9.74574 175.002 9.47159 175.002 9.16193C175.002 8.85227 174.941 8.57955 174.819 8.34375C174.699 8.10795 174.513 7.92472 174.26 7.79403C174.01 7.66051 173.688 7.59375 173.293 7.59375H171.844V15H170.263ZM177.918 15V8.45455H179.413V9.54545H179.482C179.601 9.16761 179.805 8.87642 180.095 8.67188C180.388 8.46449 180.722 8.3608 181.097 8.3608C181.182 8.3608 181.277 8.36506 181.382 8.37358C181.49 8.37926 181.58 8.3892 181.651 8.40341V9.82244C181.585 9.79972 181.482 9.77983 181.339 9.76278C181.2 9.7429 181.065 9.73295 180.935 9.73295C180.653 9.73295 180.401 9.79403 180.176 9.91619C179.955 10.0355 179.78 10.2017 179.652 10.4148C179.524 10.6278 179.46 10.8736 179.46 11.152V15H177.918ZM185.261 15.1278C184.622 15.1278 184.068 14.9872 183.599 14.706C183.13 14.4247 182.767 14.0312 182.508 13.5256C182.252 13.0199 182.125 12.429 182.125 11.7528C182.125 11.0767 182.252 10.4844 182.508 9.97585C182.767 9.46733 183.13 9.07244 183.599 8.79119C184.068 8.50994 184.622 8.36932 185.261 8.36932C185.9 8.36932 186.454 8.50994 186.923 8.79119C187.392 9.07244 187.754 9.46733 188.01 9.97585C188.268 10.4844 188.397 11.0767 188.397 11.7528C188.397 12.429 188.268 13.0199 188.01 13.5256C187.754 14.0312 187.392 14.4247 186.923 14.706C186.454 14.9872 185.9 15.1278 185.261 15.1278ZM185.27 13.892C185.616 13.892 185.906 13.7969 186.139 13.6065C186.372 13.4134 186.545 13.1548 186.659 12.831C186.775 12.5071 186.833 12.1463 186.833 11.7486C186.833 11.348 186.775 10.9858 186.659 10.6619C186.545 10.3352 186.372 10.0753 186.139 9.8821C185.906 9.68892 185.616 9.59233 185.27 9.59233C184.914 9.59233 184.619 9.68892 184.383 9.8821C184.15 10.0753 183.975 10.3352 183.859 10.6619C183.745 10.9858 183.689 11.348 183.689 11.7486C183.689 12.1463 183.745 12.5071 183.859 12.831C183.975 13.1548 184.15 13.4134 184.383 13.6065C184.619 13.7969 184.914 13.892 185.27 13.892ZM189.775 15V6.27273H191.317V9.53693H191.381C191.461 9.37784 191.573 9.20881 191.718 9.02983C191.863 8.84801 192.059 8.69318 192.306 8.56534C192.553 8.43466 192.869 8.36932 193.252 8.36932C193.758 8.36932 194.214 8.49858 194.62 8.7571C195.029 9.01278 195.353 9.39205 195.592 9.89489C195.833 10.3949 195.954 11.0085 195.954 11.7358C195.954 12.4545 195.836 13.0653 195.6 13.5682C195.364 14.071 195.043 14.4545 194.637 14.7188C194.231 14.983 193.771 15.1151 193.256 15.1151C192.881 15.1151 192.57 15.0526 192.323 14.9276C192.076 14.8026 191.877 14.652 191.727 14.4759C191.579 14.2969 191.464 14.1278 191.381 13.9688H191.292V15H189.775ZM191.288 11.7273C191.288 12.1506 191.347 12.5213 191.467 12.8395C191.589 13.1577 191.763 13.4062 191.991 13.5852C192.221 13.7614 192.499 13.8494 192.826 13.8494C193.167 13.8494 193.452 13.7585 193.683 13.5767C193.913 13.392 194.086 13.1406 194.202 12.8224C194.322 12.5014 194.381 12.1364 194.381 11.7273C194.381 11.321 194.323 10.9602 194.207 10.6449C194.09 10.3295 193.917 10.0824 193.687 9.90341C193.457 9.72443 193.17 9.63494 192.826 9.63494C192.496 9.63494 192.217 9.72159 191.987 9.89489C191.756 10.0682 191.582 10.3111 191.462 10.6236C191.346 10.9361 191.288 11.304 191.288 11.7273ZM198.808 6.27273V15H197.265V6.27273H198.808ZM203.292 15.1278C202.636 15.1278 202.069 14.9915 201.592 14.7188C201.117 14.4432 200.752 14.054 200.496 13.5511C200.241 13.0455 200.113 12.4503 200.113 11.7656C200.113 11.0923 200.241 10.5014 200.496 9.9929C200.755 9.48153 201.116 9.08381 201.579 8.79972C202.042 8.51278 202.586 8.36932 203.211 8.36932C203.614 8.36932 203.995 8.43466 204.353 8.56534C204.714 8.69318 205.032 8.89205 205.308 9.16193C205.586 9.43182 205.805 9.77557 205.964 10.1932C206.123 10.608 206.202 11.1023 206.202 11.6761V12.1491H200.837V11.1094H204.724C204.721 10.8139 204.657 10.5511 204.532 10.321C204.407 10.0881 204.232 9.90483 204.008 9.77131C203.786 9.63778 203.528 9.57102 203.232 9.57102C202.917 9.57102 202.64 9.64773 202.401 9.80114C202.163 9.9517 201.977 10.1506 201.843 10.3977C201.712 10.642 201.646 10.9105 201.643 11.2031V12.1108C201.643 12.4915 201.712 12.8182 201.852 13.0909C201.991 13.3608 202.185 13.5682 202.435 13.7131C202.685 13.8551 202.978 13.9261 203.313 13.9261C203.538 13.9261 203.741 13.8949 203.923 13.8324C204.104 13.767 204.262 13.6719 204.396 13.5469C204.529 13.4219 204.63 13.267 204.698 13.0824L206.138 13.2443C206.048 13.625 205.874 13.9574 205.619 14.2415C205.366 14.5227 205.042 14.7415 204.647 14.8977C204.252 15.0511 203.8 15.1278 203.292 15.1278ZM202.602 7.59375L201.293 5.64631H202.806L203.756 7.59375H202.602ZM207.507 15V8.45455H208.982V9.56676H209.059C209.195 9.19176 209.421 8.89915 209.736 8.68892C210.051 8.47585 210.428 8.36932 210.865 8.36932C211.309 8.36932 211.682 8.47727 211.986 8.69318C212.293 8.90625 212.509 9.19744 212.634 9.56676H212.702C212.847 9.20312 213.091 8.91335 213.435 8.69744C213.782 8.47869 214.192 8.36932 214.667 8.36932C215.269 8.36932 215.76 8.55966 216.141 8.94034C216.522 9.32102 216.712 9.87642 216.712 10.6065V15H215.165V10.8452C215.165 10.4389 215.057 10.142 214.841 9.95455C214.625 9.7642 214.361 9.66903 214.049 9.66903C213.676 9.66903 213.385 9.78551 213.175 10.0185C212.968 10.2486 212.864 10.5483 212.864 10.9176V15H211.351V10.7812C211.351 10.4432 211.249 10.1733 211.044 9.97159C210.843 9.76989 210.578 9.66903 210.252 9.66903C210.03 9.66903 209.828 9.72585 209.647 9.83949C209.465 9.95028 209.32 10.108 209.212 10.3125C209.104 10.5142 209.05 10.75 209.05 11.0199V15H207.507ZM221.175 15.1278C220.518 15.1278 219.952 14.9915 219.474 14.7188C219 14.4432 218.635 14.054 218.379 13.5511C218.124 13.0455 217.996 12.4503 217.996 11.7656C217.996 11.0923 218.124 10.5014 218.379 9.9929C218.638 9.48153 218.999 9.08381 219.462 8.79972C219.925 8.51278 220.469 8.36932 221.094 8.36932C221.497 8.36932 221.878 8.43466 222.236 8.56534C222.597 8.69318 222.915 8.89205 223.19 9.16193C223.469 9.43182 223.688 9.77557 223.847 10.1932C224.006 10.608 224.085 11.1023 224.085 11.6761V12.1491H218.72V11.1094H222.607C222.604 10.8139 222.54 10.5511 222.415 10.321C222.29 10.0881 222.115 9.90483 221.891 9.77131C221.669 9.63778 221.411 9.57102 221.115 9.57102C220.8 9.57102 220.523 9.64773 220.284 9.80114C220.045 9.9517 219.859 10.1506 219.726 10.3977C219.595 10.642 219.528 10.9105 219.526 11.2031V12.1108C219.526 12.4915 219.595 12.8182 219.734 13.0909C219.874 13.3608 220.068 13.5682 220.318 13.7131C220.568 13.8551 220.861 13.9261 221.196 13.9261C221.42 13.9261 221.624 13.8949 221.805 13.8324C221.987 13.767 222.145 13.6719 222.278 13.5469C222.412 13.4219 222.513 13.267 222.581 13.0824L224.021 13.2443C223.93 13.625 223.757 13.9574 223.501 14.2415C223.249 14.5227 222.925 14.7415 222.53 14.8977C222.135 15.0511 221.683 15.1278 221.175 15.1278Z" fill="#168EEA"/>
<rect x="141" y="90" width="12" height="2" fill="white"/>
<rect x="152" y="86" width="12" height="2" fill="white"/>
<rect x="141" y="82" width="12" height="2" fill="white"/>
<rect x="155" y="79" width="12" height="2" fill="white"/>
<rect x="141" y="74" width="12" height="2" fill="white"/>
<rect x="159" y="71" width="12" height="2" fill="white"/>
<rect x="165" y="63" width="12" height="2" fill="white"/>
<rect x="145" y="58" width="12" height="2" fill="white"/>
<rect x="161" y="56" width="12" height="2" fill="white"/>
<rect x="145" y="50" width="12" height="2" fill="white"/>
<rect x="163" y="49" width="12" height="2" fill="white"/>
<rect x="134" y="55" width="14" height="2" fill="white"/>
<rect x="144" y="66" width="13" height="2" fill="white"/>
<rect x="167" y="38" width="12" height="2" fill="white"/>
<rect x="155" y="34" width="12" height="2" fill="white"/>
<rect x="172" y="31" width="12" height="2" fill="white"/>
<rect x="166" y="26" width="12" height="2" fill="white"/>
<rect x="141" y="98" width="12" height="2" fill="white"/>
<rect x="150" y="42" width="12" height="2" fill="white"/>
<path d="M142 34L155 34" stroke="#168EEA" stroke-linecap="round"/>
<rect x="166" y="98" width="12" height="2" fill="white"/>
<path d="M19 23H153" stroke="#168EEA" stroke-linecap="round"/>
<path d="M38 49H122" stroke="#168EEA" stroke-linecap="round"/>
<path d="M6 79H133" stroke="#168EEA" stroke-linecap="round"/>
<path d="M71 147H171" stroke="#168EEA" stroke-linecap="round"/>
<path d="M1 116L116 116" stroke="#168EEA" stroke-linecap="round"/>
<rect x="29" y="75" width="9" height="8" fill="white"/>
<rect x="96" y="114" width="9" height="8" fill="white"/>
<path d="M139 135L152 135" stroke="#168EEA" stroke-linecap="round"/>
<path d="M121 92L134 92" stroke="#168EEA" stroke-linecap="round"/>
<path d="M63 69L83 69" stroke="#168EEA" stroke-linecap="round"/>
<path d="M43 104L56 104" stroke="#168EEA" stroke-linecap="round"/>
<path d="M129 60L142 60" stroke="#168EEA" stroke-linecap="round"/>
<path d="M76 98L101 98" stroke="#168EEA" stroke-linecap="round"/>
<path d="M94 39L107 39" stroke="#168EEA" stroke-linecap="round"/>
<path d="M50 33L63 33" stroke="#168EEA" stroke-linecap="round"/>
<path d="M32 131L54 131" stroke="#168EEA" stroke-linecap="round"/>
</svg>
