<svg width="29" height="32" viewBox="0 0 29 32" fill="none" xmlns="http://www.w3.org/2000/svg">
<path fill-rule="evenodd" clip-rule="evenodd" d="M0.574331 0.489706C0.210893 0.877486 0.000976562 1.47001 0.000976562 2.24557V29.7531C0.000976562 30.5287 0.210893 31.1212 0.586864 31.4935L0.683989 31.5773L16.2492 16.1653V15.821L0.671457 0.405945L0.574331 0.489706Z" fill="white"/>
<path fill-rule="evenodd" clip-rule="evenodd" d="M21.4298 21.3184L16.2383 16.1779V15.8181L21.4298 10.6777L21.5426 10.7459L27.6835 14.2018C29.4412 15.1821 29.4412 16.8015 27.6835 17.7942L21.5426 21.2501L21.4298 21.3184Z" fill="white"/>
<path fill-rule="evenodd" clip-rule="evenodd" d="M21.5399 21.2501L16.2355 15.998L0.573242 31.5061C1.1466 32.1141 2.10846 32.1824 3.1831 31.5898L21.5399 21.2501Z" fill="white"/>
<path fill-rule="evenodd" clip-rule="evenodd" d="M21.5399 10.7467L3.1831 0.422409C2.10846 -0.18563 1.14346 -0.101869 0.573242 0.50617L16.2355 15.9988L21.5399 10.7467Z" fill="white"/>
<path opacity="0.2" fill-rule="evenodd" clip-rule="evenodd" d="M21.4283 21.1383L3.19679 31.3943C2.17853 31.9744 1.26993 31.9341 0.684041 31.4067L0.586914 31.5029L0.684041 31.5866C1.26993 32.1109 2.17853 32.1543 3.19679 31.5742L21.5537 21.25L21.4283 21.1383Z" fill="#F6CB1F"/>
<path opacity="0.12" fill-rule="evenodd" clip-rule="evenodd" d="M27.6824 17.6143L21.4131 21.1384L21.5259 21.2501L27.6667 17.7942C28.5471 17.2978 28.9795 16.6464 28.9795 15.998C28.9262 16.5936 28.4782 17.1582 27.6824 17.6143Z" fill="#F6CB1F"/>
<path opacity="0.25" fill-rule="evenodd" clip-rule="evenodd" d="M3.18419 0.601655L27.6818 14.3818C28.4776 14.8254 28.9256 15.4055 28.9946 15.9981C28.9946 15.3497 28.5622 14.6982 27.6818 14.2019L3.18419 0.421724C1.42653 -0.574095 0.000976562 0.257306 0.000976562 2.24584V2.42577C0.000976562 0.434133 1.42653 -0.381755 3.18419 0.601655Z" fill="white"/>
</svg>
