<svg width="327" height="151" viewBox="0 0 327 151" fill="none" xmlns="http://www.w3.org/2000/svg">
<path d="M291.803 80.915C291.803 119.01 258.856 150 218.077 150C177.297 150 144.35 119.01 144.35 80.915C144.35 42.8198 177.297 11.8298 218.077 11.8298C258.856 11.8298 291.803 42.8198 291.803 80.915Z" fill="white" stroke="#168EEA" stroke-width="2"/>
<rect x="259.826" y="64.4915" width="65.955" height="21.707" rx="10.8535" fill="white" stroke="#168EEA" stroke-width="1.5"/>
<rect x="160.19" y="0.75" width="66.2645" height="21.707" rx="10.8535" fill="white" stroke="#168EEA" stroke-width="1.5"/>
<rect x="122.75" y="104.717" width="66.2645" height="21.707" rx="10.8535" fill="white" stroke="#168EEA" stroke-width="1.5"/>
<path d="M274.192 72.6719C274.152 72.2997 273.984 72.0099 273.689 71.8026C273.396 71.5952 273.015 71.4915 272.547 71.4915C272.217 71.4915 271.934 71.5412 271.699 71.6406C271.463 71.7401 271.282 71.875 271.157 72.0455C271.032 72.2159 270.969 72.4105 270.966 72.6293C270.966 72.8111 271.007 72.9687 271.089 73.1023C271.175 73.2358 271.29 73.3494 271.434 73.4432C271.579 73.5341 271.74 73.6108 271.916 73.6733C272.092 73.7358 272.27 73.7884 272.449 73.831L273.267 74.0355C273.596 74.1122 273.913 74.2159 274.217 74.3466C274.524 74.4773 274.798 74.642 275.04 74.8409C275.284 75.0398 275.477 75.2798 275.619 75.5611C275.761 75.8423 275.832 76.1719 275.832 76.5497C275.832 77.0611 275.702 77.5114 275.44 77.9006C275.179 78.2869 274.801 78.5895 274.307 78.8082C273.815 79.0241 273.22 79.1321 272.521 79.1321C271.842 79.1321 271.253 79.027 270.753 78.8168C270.256 78.6065 269.866 78.2997 269.585 77.8963C269.307 77.4929 269.156 77.0014 269.133 76.4219H270.689C270.711 76.7259 270.805 76.9787 270.97 77.1804C271.135 77.3821 271.349 77.5327 271.613 77.6321C271.881 77.7315 272.179 77.7812 272.508 77.7812C272.852 77.7812 273.153 77.7301 273.412 77.6278C273.673 77.5227 273.878 77.3778 274.025 77.1932C274.173 77.0057 274.248 76.7869 274.251 76.5369C274.248 76.3097 274.182 76.1222 274.051 75.9744C273.92 75.8239 273.737 75.6989 273.501 75.5994C273.268 75.4972 272.996 75.4062 272.683 75.3267L271.69 75.071C270.971 74.8864 270.403 74.6065 269.986 74.2315C269.571 73.8537 269.363 73.3523 269.363 72.7273C269.363 72.2131 269.503 71.7628 269.781 71.3764C270.062 70.9901 270.444 70.6903 270.927 70.4773C271.41 70.2614 271.957 70.1534 272.568 70.1534C273.187 70.1534 273.73 70.2614 274.196 70.4773C274.665 70.6903 275.032 70.9872 275.3 71.3679C275.567 71.7457 275.704 72.1804 275.713 72.6719H274.192ZM280.029 79.1278C279.389 79.1278 278.835 78.9872 278.367 78.706C277.898 78.4247 277.534 78.0312 277.276 77.5256C277.02 77.0199 276.892 76.429 276.892 75.7528C276.892 75.0767 277.02 74.4844 277.276 73.9759C277.534 73.4673 277.898 73.0724 278.367 72.7912C278.835 72.5099 279.389 72.3693 280.029 72.3693C280.668 72.3693 281.222 72.5099 281.691 72.7912C282.159 73.0724 282.521 73.4673 282.777 73.9759C283.036 74.4844 283.165 75.0767 283.165 75.7528C283.165 76.429 283.036 77.0199 282.777 77.5256C282.521 78.0312 282.159 78.4247 281.691 78.706C281.222 78.9872 280.668 79.1278 280.029 79.1278ZM280.037 77.892C280.384 77.892 280.673 77.7969 280.906 77.6065C281.139 77.4134 281.313 77.1548 281.426 76.831C281.543 76.5071 281.601 76.1463 281.601 75.7486C281.601 75.348 281.543 74.9858 281.426 74.6619C281.313 74.3352 281.139 74.0753 280.906 73.8821C280.673 73.6889 280.384 73.5923 280.037 73.5923C279.682 73.5923 279.387 73.6889 279.151 73.8821C278.918 74.0753 278.743 74.3352 278.627 74.6619C278.513 74.9858 278.456 75.348 278.456 75.7486C278.456 76.1463 278.513 76.5071 278.627 76.831C278.743 77.1548 278.918 77.4134 279.151 77.6065C279.387 77.7969 279.682 77.892 280.037 77.892ZM286.017 70.2727V79H284.474V70.2727H286.017ZM291.775 76.2472V72.4545H293.318V79H291.822V77.8366H291.754C291.606 78.2031 291.363 78.5028 291.025 78.7358C290.69 78.9687 290.276 79.0852 289.785 79.0852C289.356 79.0852 288.977 78.9901 288.647 78.7997C288.32 78.6065 288.065 78.3267 287.88 77.9602C287.695 77.5909 287.603 77.1449 287.603 76.6222V72.4545H289.146V76.3835C289.146 76.7983 289.259 77.1278 289.487 77.3722C289.714 77.6165 290.012 77.7386 290.382 77.7386C290.609 77.7386 290.829 77.6832 291.042 77.5724C291.255 77.4616 291.43 77.2969 291.566 77.0781C291.705 76.8565 291.775 76.5795 291.775 76.2472ZM298.172 72.4545V73.6477H294.41V72.4545H298.172ZM295.339 70.8864H296.881V77.0312C296.881 77.2386 296.912 77.3977 296.975 77.5085C297.04 77.6165 297.126 77.6903 297.231 77.7301C297.336 77.7699 297.452 77.7898 297.58 77.7898C297.677 77.7898 297.765 77.7827 297.844 77.7685C297.927 77.7543 297.989 77.7415 298.032 77.7301L298.292 78.9361C298.209 78.9645 298.091 78.9957 297.938 79.0298C297.787 79.0639 297.603 79.0838 297.384 79.0895C296.998 79.1009 296.65 79.0426 296.34 78.9148C296.03 78.7841 295.785 78.5824 295.603 78.3097C295.424 78.0369 295.336 77.696 295.339 77.2869V70.8864ZM299.463 79V72.4545H301.005V79H299.463ZM300.238 71.5256C299.994 71.5256 299.784 71.4446 299.607 71.2827C299.431 71.1179 299.343 70.9205 299.343 70.6903C299.343 70.4574 299.431 70.2599 299.607 70.098C299.784 69.9332 299.994 69.8509 300.238 69.8509C300.485 69.8509 300.695 69.9332 300.869 70.098C301.045 70.2599 301.133 70.4574 301.133 70.6903C301.133 70.9205 301.045 71.1179 300.869 71.2827C300.695 71.4446 300.485 71.5256 300.238 71.5256ZM305.447 79.1278C304.807 79.1278 304.253 78.9872 303.785 78.706C303.316 78.4247 302.952 78.0312 302.694 77.5256C302.438 77.0199 302.31 76.429 302.31 75.7528C302.31 75.0767 302.438 74.4844 302.694 73.9759C302.952 73.4673 303.316 73.0724 303.785 72.7912C304.253 72.5099 304.807 72.3693 305.447 72.3693C306.086 72.3693 306.64 72.5099 307.108 72.7912C307.577 73.0724 307.939 73.4673 308.195 73.9759C308.454 74.4844 308.583 75.0767 308.583 75.7528C308.583 76.429 308.454 77.0199 308.195 77.5256C307.939 78.0312 307.577 78.4247 307.108 78.706C306.64 78.9872 306.086 79.1278 305.447 79.1278ZM305.455 77.892C305.802 77.892 306.091 77.7969 306.324 77.6065C306.557 77.4134 306.731 77.1548 306.844 76.831C306.961 76.5071 307.019 76.1463 307.019 75.7486C307.019 75.348 306.961 74.9858 306.844 74.6619C306.731 74.3352 306.557 74.0753 306.324 73.8821C306.091 73.6889 305.802 73.5923 305.455 73.5923C305.1 73.5923 304.805 73.6889 304.569 73.8821C304.336 74.0753 304.161 74.3352 304.045 74.6619C303.931 74.9858 303.874 75.348 303.874 75.7486C303.874 76.1463 303.931 76.5071 304.045 76.831C304.161 77.1548 304.336 77.4134 304.569 77.6065C304.805 77.7969 305.1 77.892 305.455 77.892ZM311.435 75.1648V79H309.892V72.4545H311.367V73.5668H311.443C311.594 73.2003 311.834 72.9091 312.164 72.6932C312.496 72.4773 312.906 72.3693 313.395 72.3693C313.847 72.3693 314.24 72.4659 314.575 72.6591C314.914 72.8523 315.175 73.1321 315.36 73.4986C315.547 73.8651 315.639 74.3097 315.637 74.8324V79H314.094V75.071C314.094 74.6335 313.98 74.2912 313.753 74.044C313.529 73.7969 313.218 73.6733 312.82 73.6733C312.55 73.6733 312.31 73.733 312.1 73.8523C311.892 73.9687 311.729 74.1378 311.61 74.3594C311.493 74.581 311.435 74.8494 311.435 75.1648Z" fill="#168EEA"/>
<path d="M139.131 113.672C139.091 113.3 138.924 113.01 138.628 112.803C138.336 112.595 137.955 112.491 137.486 112.491C137.157 112.491 136.874 112.541 136.638 112.641C136.402 112.74 136.222 112.875 136.097 113.045C135.972 113.216 135.908 113.411 135.905 113.629C135.905 113.811 135.946 113.969 136.029 114.102C136.114 114.236 136.229 114.349 136.374 114.443C136.519 114.534 136.679 114.611 136.855 114.673C137.032 114.736 137.209 114.788 137.388 114.831L138.206 115.036C138.536 115.112 138.853 115.216 139.157 115.347C139.463 115.477 139.738 115.642 139.979 115.841C140.223 116.04 140.417 116.28 140.559 116.561C140.701 116.842 140.772 117.172 140.772 117.55C140.772 118.061 140.641 118.511 140.38 118.901C140.118 119.287 139.74 119.589 139.246 119.808C138.755 120.024 138.159 120.132 137.461 120.132C136.782 120.132 136.192 120.027 135.692 119.817C135.195 119.607 134.806 119.3 134.525 118.896C134.246 118.493 134.096 118.001 134.073 117.422H135.628C135.651 117.726 135.745 117.979 135.909 118.18C136.074 118.382 136.289 118.533 136.553 118.632C136.82 118.732 137.118 118.781 137.448 118.781C137.792 118.781 138.093 118.73 138.351 118.628C138.613 118.523 138.817 118.378 138.965 118.193C139.113 118.006 139.188 117.787 139.191 117.537C139.188 117.31 139.121 117.122 138.99 116.974C138.86 116.824 138.676 116.699 138.441 116.599C138.208 116.497 137.935 116.406 137.623 116.327L136.63 116.071C135.911 115.886 135.343 115.607 134.925 115.232C134.51 114.854 134.303 114.352 134.303 113.727C134.303 113.213 134.442 112.763 134.721 112.376C135.002 111.99 135.384 111.69 135.867 111.477C136.35 111.261 136.897 111.153 137.507 111.153C138.127 111.153 138.669 111.261 139.135 111.477C139.604 111.69 139.972 111.987 140.239 112.368C140.506 112.746 140.644 113.18 140.652 113.672H139.131ZM145.011 120.128C144.354 120.128 143.788 119.991 143.31 119.719C142.836 119.443 142.471 119.054 142.215 118.551C141.96 118.045 141.832 117.45 141.832 116.766C141.832 116.092 141.96 115.501 142.215 114.993C142.474 114.482 142.835 114.084 143.298 113.8C143.761 113.513 144.305 113.369 144.93 113.369C145.333 113.369 145.714 113.435 146.072 113.565C146.433 113.693 146.751 113.892 147.026 114.162C147.305 114.432 147.523 114.776 147.683 115.193C147.842 115.608 147.921 116.102 147.921 116.676V117.149H142.556V116.109H146.442C146.44 115.814 146.376 115.551 146.251 115.321C146.126 115.088 145.951 114.905 145.727 114.771C145.505 114.638 145.246 114.571 144.951 114.571C144.636 114.571 144.359 114.648 144.12 114.801C143.881 114.952 143.695 115.151 143.562 115.398C143.431 115.642 143.364 115.911 143.362 116.203V117.111C143.362 117.491 143.431 117.818 143.57 118.091C143.71 118.361 143.904 118.568 144.154 118.713C144.404 118.855 144.697 118.926 145.032 118.926C145.256 118.926 145.46 118.895 145.641 118.832C145.823 118.767 145.981 118.672 146.114 118.547C146.248 118.422 146.349 118.267 146.417 118.082L147.857 118.244C147.766 118.625 147.593 118.957 147.337 119.241C147.085 119.523 146.761 119.741 146.366 119.898C145.971 120.051 145.519 120.128 145.011 120.128ZM149.226 120V113.455H150.722V114.545H150.79C150.909 114.168 151.114 113.876 151.404 113.672C151.696 113.464 152.03 113.361 152.405 113.361C152.49 113.361 152.586 113.365 152.691 113.374C152.799 113.379 152.888 113.389 152.959 113.403V114.822C152.894 114.8 152.79 114.78 152.648 114.763C152.509 114.743 152.374 114.733 152.243 114.733C151.962 114.733 151.709 114.794 151.485 114.916C151.263 115.036 151.088 115.202 150.961 115.415C150.833 115.628 150.769 115.874 150.769 116.152V120H149.226ZM160.03 113.455L157.699 120H155.994L153.663 113.455H155.308L156.812 118.317H156.881L158.389 113.455H160.03ZM161.097 120V113.455H162.64V120H161.097ZM161.873 112.526C161.629 112.526 161.418 112.445 161.242 112.283C161.066 112.118 160.978 111.92 160.978 111.69C160.978 111.457 161.066 111.26 161.242 111.098C161.418 110.933 161.629 110.851 161.873 110.851C162.12 110.851 162.33 110.933 162.504 111.098C162.68 111.26 162.768 111.457 162.768 111.69C162.768 111.92 162.68 112.118 162.504 112.283C162.33 112.445 162.12 112.526 161.873 112.526ZM167.081 120.128C166.428 120.128 165.867 119.984 165.398 119.697C164.932 119.411 164.573 119.014 164.32 118.509C164.07 118 163.945 117.415 163.945 116.753C163.945 116.088 164.073 115.501 164.328 114.993C164.584 114.482 164.945 114.084 165.411 113.8C165.88 113.513 166.434 113.369 167.073 113.369C167.604 113.369 168.074 113.467 168.483 113.663C168.895 113.857 169.223 114.131 169.468 114.486C169.712 114.838 169.851 115.25 169.885 115.722H168.411C168.351 115.406 168.209 115.143 167.985 114.933C167.763 114.72 167.466 114.614 167.094 114.614C166.779 114.614 166.502 114.699 166.263 114.869C166.025 115.037 165.838 115.278 165.705 115.594C165.574 115.909 165.509 116.287 165.509 116.727C165.509 117.173 165.574 117.557 165.705 117.878C165.836 118.196 166.019 118.442 166.255 118.615C166.493 118.786 166.773 118.871 167.094 118.871C167.321 118.871 167.525 118.828 167.703 118.743C167.885 118.655 168.037 118.528 168.159 118.364C168.282 118.199 168.365 117.999 168.411 117.763H169.885C169.848 118.226 169.712 118.636 169.476 118.994C169.24 119.349 168.919 119.628 168.513 119.83C168.107 120.028 167.63 120.128 167.081 120.128ZM174.05 120.128C173.393 120.128 172.827 119.991 172.349 119.719C171.875 119.443 171.51 119.054 171.254 118.551C170.999 118.045 170.871 117.45 170.871 116.766C170.871 116.092 170.999 115.501 171.254 114.993C171.513 114.482 171.874 114.084 172.337 113.8C172.8 113.513 173.344 113.369 173.969 113.369C174.372 113.369 174.753 113.435 175.111 113.565C175.472 113.693 175.79 113.892 176.065 114.162C176.344 114.432 176.563 114.776 176.722 115.193C176.881 115.608 176.96 116.102 176.96 116.676V117.149H171.595V116.109H175.482C175.479 115.814 175.415 115.551 175.29 115.321C175.165 115.088 174.99 114.905 174.766 114.771C174.544 114.638 174.286 114.571 173.99 114.571C173.675 114.571 173.398 114.648 173.159 114.801C172.92 114.952 172.734 115.151 172.601 115.398C172.47 115.642 172.403 115.911 172.401 116.203V117.111C172.401 117.491 172.47 117.818 172.609 118.091C172.749 118.361 172.943 118.568 173.193 118.713C173.443 118.855 173.736 118.926 174.071 118.926C174.295 118.926 174.499 118.895 174.68 118.832C174.862 118.767 175.02 118.672 175.153 118.547C175.287 118.422 175.388 118.267 175.456 118.082L176.896 118.244C176.805 118.625 176.632 118.957 176.376 119.241C176.124 119.523 175.8 119.741 175.405 119.898C175.01 120.051 174.558 120.128 174.05 120.128Z" fill="#168EEA"/>
<path d="M169.32 15V6.27273H172.593C173.263 6.27273 173.825 6.39773 174.28 6.64773C174.737 6.89773 175.083 7.24148 175.316 7.67898C175.551 8.11364 175.669 8.60795 175.669 9.16193C175.669 9.72159 175.551 10.2187 175.316 10.6534C175.08 11.0881 174.732 11.4304 174.271 11.6804C173.811 11.9276 173.244 12.0511 172.571 12.0511H170.402V10.7514H172.358C172.75 10.7514 173.071 10.6832 173.321 10.5469C173.571 10.4105 173.756 10.223 173.875 9.98438C173.997 9.74574 174.058 9.47159 174.058 9.16193C174.058 8.85227 173.997 8.57955 173.875 8.34375C173.756 8.10795 173.57 7.92472 173.317 7.79403C173.067 7.66051 172.744 7.59375 172.35 7.59375H170.901V15H169.32ZM176.974 15V8.45455H178.47V9.54545H178.538C178.657 9.16761 178.862 8.87642 179.152 8.67188C179.444 8.46449 179.778 8.3608 180.153 8.3608C180.238 8.3608 180.334 8.36506 180.439 8.37358C180.547 8.37926 180.636 8.3892 180.707 8.40341V9.82244C180.642 9.79972 180.538 9.77983 180.396 9.76278C180.257 9.7429 180.122 9.73295 179.991 9.73295C179.71 9.73295 179.457 9.79403 179.233 9.91619C179.011 10.0355 178.836 10.2017 178.709 10.4148C178.581 10.6278 178.517 10.8736 178.517 11.152V15H176.974ZM184.318 15.1278C183.678 15.1278 183.124 14.9872 182.656 14.706C182.187 14.4247 181.823 14.0312 181.565 13.5256C181.309 13.0199 181.181 12.429 181.181 11.7528C181.181 11.0767 181.309 10.4844 181.565 9.97585C181.823 9.46733 182.187 9.07244 182.656 8.79119C183.124 8.50994 183.678 8.36932 184.318 8.36932C184.957 8.36932 185.511 8.50994 185.98 8.79119C186.448 9.07244 186.811 9.46733 187.066 9.97585C187.325 10.4844 187.454 11.0767 187.454 11.7528C187.454 12.429 187.325 13.0199 187.066 13.5256C186.811 14.0312 186.448 14.4247 185.98 14.706C185.511 14.9872 184.957 15.1278 184.318 15.1278ZM184.326 13.892C184.673 13.892 184.963 13.7969 185.195 13.6065C185.428 13.4134 185.602 13.1548 185.715 12.831C185.832 12.5071 185.89 12.1463 185.89 11.7486C185.89 11.348 185.832 10.9858 185.715 10.6619C185.602 10.3352 185.428 10.0753 185.195 9.8821C184.963 9.68892 184.673 9.59233 184.326 9.59233C183.971 9.59233 183.676 9.68892 183.44 9.8821C183.207 10.0753 183.032 10.3352 182.916 10.6619C182.802 10.9858 182.745 11.348 182.745 11.7486C182.745 12.1463 182.802 12.5071 182.916 12.831C183.032 13.1548 183.207 13.4134 183.44 13.6065C183.676 13.7969 183.971 13.892 184.326 13.892ZM188.831 15V6.27273H190.374V9.53693H190.438C190.518 9.37784 190.63 9.20881 190.775 9.02983C190.92 8.84801 191.116 8.69318 191.363 8.56534C191.61 8.43466 191.925 8.36932 192.309 8.36932C192.814 8.36932 193.27 8.49858 193.677 8.7571C194.086 9.01278 194.41 9.39205 194.648 9.89489C194.89 10.3949 195.01 11.0085 195.01 11.7358C195.01 12.4545 194.893 13.0653 194.657 13.5682C194.421 14.071 194.1 14.4545 193.694 14.7188C193.287 14.983 192.827 15.1151 192.313 15.1151C191.938 15.1151 191.627 15.0526 191.38 14.9276C191.133 14.8026 190.934 14.652 190.783 14.4759C190.635 14.2969 190.52 14.1278 190.438 13.9688H190.349V15H188.831ZM190.344 11.7273C190.344 12.1506 190.404 12.5213 190.523 12.8395C190.645 13.1577 190.82 13.4062 191.047 13.5852C191.278 13.7614 191.556 13.8494 191.883 13.8494C192.224 13.8494 192.509 13.7585 192.739 13.5767C192.969 13.392 193.143 13.1406 193.259 12.8224C193.378 12.5014 193.438 12.1364 193.438 11.7273C193.438 11.321 193.38 10.9602 193.263 10.6449C193.147 10.3295 192.974 10.0824 192.743 9.90341C192.513 9.72443 192.226 9.63494 191.883 9.63494C191.553 9.63494 191.273 9.72159 191.043 9.89489C190.813 10.0682 190.638 10.3111 190.519 10.6236C190.403 10.9361 190.344 11.304 190.344 11.7273ZM197.865 6.27273V15H196.322V6.27273H197.865ZM202.349 15.1278C201.692 15.1278 201.126 14.9915 200.648 14.7188C200.174 14.4432 199.809 14.054 199.553 13.5511C199.297 13.0455 199.17 12.4503 199.17 11.7656C199.17 11.0923 199.297 10.5014 199.553 9.9929C199.812 9.48153 200.172 9.08381 200.635 8.79972C201.099 8.51278 201.643 8.36932 202.268 8.36932C202.671 8.36932 203.052 8.43466 203.41 8.56534C203.77 8.69318 204.089 8.89205 204.364 9.16193C204.643 9.43182 204.861 9.77557 205.02 10.1932C205.18 10.608 205.259 11.1023 205.259 11.6761V12.1491H199.894V11.1094H203.78C203.778 10.8139 203.714 10.5511 203.589 10.321C203.464 10.0881 203.289 9.90483 203.064 9.77131C202.843 9.63778 202.584 9.57102 202.289 9.57102C201.974 9.57102 201.697 9.64773 201.458 9.80114C201.219 9.9517 201.033 10.1506 200.9 10.3977C200.769 10.642 200.702 10.9105 200.699 11.2031V12.1108C200.699 12.4915 200.769 12.8182 200.908 13.0909C201.047 13.3608 201.242 13.5682 201.492 13.7131C201.742 13.8551 202.035 13.9261 202.37 13.9261C202.594 13.9261 202.797 13.8949 202.979 13.8324C203.161 13.767 203.319 13.6719 203.452 13.5469C203.586 13.4219 203.687 13.267 203.755 13.0824L205.195 13.2443C205.104 13.625 204.931 13.9574 204.675 14.2415C204.422 14.5227 204.099 14.7415 203.704 14.8977C203.309 15.0511 202.857 15.1278 202.349 15.1278ZM206.564 15V8.45455H208.039V9.56676H208.115C208.252 9.19176 208.477 8.89915 208.793 8.68892C209.108 8.47585 209.485 8.36932 209.922 8.36932C210.365 8.36932 210.739 8.47727 211.043 8.69318C211.35 8.90625 211.566 9.19744 211.691 9.56676H211.759C211.904 9.20312 212.148 8.91335 212.492 8.69744C212.838 8.47869 213.249 8.36932 213.723 8.36932C214.325 8.36932 214.817 8.55966 215.198 8.94034C215.578 9.32102 215.769 9.87642 215.769 10.6065V15H214.222V10.8452C214.222 10.4389 214.114 10.142 213.898 9.95455C213.682 9.7642 213.418 9.66903 213.105 9.66903C212.733 9.66903 212.442 9.78551 212.232 10.0185C212.024 10.2486 211.921 10.5483 211.921 10.9176V15H210.408V10.7812C210.408 10.4432 210.306 10.1733 210.101 9.97159C209.899 9.76989 209.635 9.66903 209.308 9.66903C209.087 9.66903 208.885 9.72585 208.703 9.83949C208.521 9.95028 208.377 10.108 208.269 10.3125C208.161 10.5142 208.107 10.75 208.107 11.0199V15H206.564Z" fill="#168EEA"/>
<rect x="141" y="90" width="12" height="2" fill="white"/>
<rect x="152" y="86" width="12" height="2" fill="white"/>
<rect x="141" y="82" width="12" height="2" fill="white"/>
<rect x="155" y="79" width="12" height="2" fill="white"/>
<rect x="141" y="74" width="12" height="2" fill="white"/>
<rect x="159" y="71" width="12" height="2" fill="white"/>
<rect x="165" y="63" width="12" height="2" fill="white"/>
<rect x="145" y="58" width="12" height="2" fill="white"/>
<rect x="161" y="56" width="12" height="2" fill="white"/>
<rect x="145" y="50" width="12" height="2" fill="white"/>
<rect x="163" y="49" width="12" height="2" fill="white"/>
<rect x="134" y="55" width="14" height="2" fill="white"/>
<rect x="144" y="66" width="13" height="2" fill="white"/>
<rect x="167" y="38" width="12" height="2" fill="white"/>
<rect x="155" y="34" width="12" height="2" fill="white"/>
<rect x="172" y="31" width="12" height="2" fill="white"/>
<rect x="166" y="26" width="12" height="2" fill="white"/>
<rect x="141" y="98" width="12" height="2" fill="white"/>
<rect x="150" y="42" width="12" height="2" fill="white"/>
<path d="M142 34L155 34" stroke="#168EEA" stroke-linecap="round"/>
<rect x="166" y="98" width="12" height="2" fill="white"/>
<path d="M19 23H153" stroke="#168EEA" stroke-linecap="round"/>
<path d="M38 49H122" stroke="#168EEA" stroke-linecap="round"/>
<path d="M6 79H133" stroke="#168EEA" stroke-linecap="round"/>
<path d="M71 147H171" stroke="#168EEA" stroke-linecap="round"/>
<path d="M1 116L116 116" stroke="#168EEA" stroke-linecap="round"/>
<rect x="29" y="75" width="9" height="8" fill="white"/>
<rect x="96" y="114" width="9" height="8" fill="white"/>
<path d="M139 135L152 135" stroke="#168EEA" stroke-linecap="round"/>
<path d="M121 92L134 92" stroke="#168EEA" stroke-linecap="round"/>
<path d="M63 69L83 69" stroke="#168EEA" stroke-linecap="round"/>
<path d="M43 104L56 104" stroke="#168EEA" stroke-linecap="round"/>
<path d="M129 60L142 60" stroke="#168EEA" stroke-linecap="round"/>
<path d="M76 98L101 98" stroke="#168EEA" stroke-linecap="round"/>
<path d="M94 39L107 39" stroke="#168EEA" stroke-linecap="round"/>
<path d="M50 33L63 33" stroke="#168EEA" stroke-linecap="round"/>
<path d="M32 131L54 131" stroke="#168EEA" stroke-linecap="round"/>
</svg>
