<svg width="278" height="136" viewBox="0 0 278 136" fill="none" xmlns="http://www.w3.org/2000/svg">
<g filter="url(#filter0_d_1_195)">
<rect x="36" y="20" width="206" height="64" rx="32" fill="white"/>
<path d="M83.3341 43.6133V56.3867C83.3341 60.0667 80.3474 63.0533 76.6674 63.0533H63.3341C62.7207 63.0533 62.1341 62.9733 61.5607 62.8133C60.7341 62.5867 60.4674 61.5333 61.0807 60.92L75.2541 46.7467C75.5474 46.4533 75.9874 46.3867 76.4007 46.4667C76.8274 46.5467 77.2941 46.4267 77.6274 46.1067L81.0541 42.6667C82.3074 41.4133 83.3341 41.8267 83.3341 43.6133Z" fill="#5627FF"/>
<path d="M73.5203 45.8134L59.5603 59.7734C58.9203 60.4134 57.8537 60.2534 57.427 59.4534C56.9337 58.5467 56.667 57.4934 56.667 56.3867V43.6134C56.667 41.8267 57.6937 41.4134 58.947 42.6667L62.387 46.12C62.907 46.6267 63.7603 46.6267 64.2803 46.12L69.0537 41.3334C69.5737 40.8134 70.427 40.8134 70.947 41.3334L73.5337 43.92C74.0403 44.44 74.0403 45.2934 73.5203 45.8134Z" fill="#5627FF"/>
<path d="M95.8714 45.9091H97.7634L102.212 56.7756H102.366L106.815 45.9091H108.707V59H107.224V49.054H107.096L103.005 59H101.573L97.4822 49.054H97.3543V59H95.8714V45.9091ZM115.797 59.2045C114.851 59.2045 114.035 58.9957 113.349 58.5781C112.667 58.1562 112.141 57.5682 111.77 56.8139C111.403 56.0554 111.22 55.1733 111.22 54.1676C111.22 53.1619 111.403 52.2756 111.77 51.5085C112.141 50.7372 112.656 50.1364 113.317 49.706C113.982 49.2713 114.757 49.054 115.644 49.054C116.155 49.054 116.66 49.1392 117.158 49.3097C117.657 49.4801 118.111 49.7571 118.52 50.1406C118.929 50.5199 119.255 51.0227 119.498 51.6491C119.741 52.2756 119.862 53.0469 119.862 53.9631V54.6023H112.294V53.2983H118.328C118.328 52.7443 118.217 52.25 117.996 51.8153C117.778 51.3807 117.467 51.0376 117.063 50.7862C116.662 50.5348 116.189 50.4091 115.644 50.4091C115.043 50.4091 114.523 50.5582 114.084 50.8565C113.649 51.1506 113.315 51.5341 113.08 52.0071C112.846 52.4801 112.729 52.9872 112.729 53.5284V54.3977C112.729 55.1392 112.857 55.7678 113.112 56.2834C113.372 56.7947 113.732 57.1847 114.193 57.4531C114.653 57.7173 115.188 57.8494 115.797 57.8494C116.193 57.8494 116.551 57.794 116.871 57.6832C117.195 57.5682 117.474 57.3977 117.708 57.1719C117.943 56.9418 118.124 56.6562 118.252 56.3153L119.709 56.7244C119.555 57.2188 119.298 57.6534 118.935 58.0284C118.573 58.3991 118.126 58.6889 117.593 58.8977C117.06 59.1023 116.462 59.2045 115.797 59.2045ZM126.274 59.2045C125.328 59.2045 124.511 58.9957 123.825 58.5781C123.144 58.1562 122.617 57.5682 122.247 56.8139C121.88 56.0554 121.697 55.1733 121.697 54.1676C121.697 53.1619 121.88 52.2756 122.247 51.5085C122.617 50.7372 123.133 50.1364 123.793 49.706C124.458 49.2713 125.234 49.054 126.12 49.054C126.631 49.054 127.136 49.1392 127.635 49.3097C128.134 49.4801 128.587 49.7571 128.997 50.1406C129.406 50.5199 129.732 51.0227 129.975 51.6491C130.217 52.2756 130.339 53.0469 130.339 53.9631V54.6023H122.771V53.2983H128.805C128.805 52.7443 128.694 52.25 128.472 51.8153C128.255 51.3807 127.944 51.0376 127.539 50.7862C127.139 50.5348 126.666 50.4091 126.12 50.4091C125.519 50.4091 124.999 50.5582 124.56 50.8565C124.126 51.1506 123.791 51.5341 123.557 52.0071C123.323 52.4801 123.205 52.9872 123.205 53.5284V54.3977C123.205 55.1392 123.333 55.7678 123.589 56.2834C123.849 56.7947 124.209 57.1847 124.669 57.4531C125.129 57.7173 125.664 57.8494 126.274 57.8494C126.67 57.8494 127.028 57.794 127.347 57.6832C127.671 57.5682 127.95 57.3977 128.185 57.1719C128.419 56.9418 128.6 56.6562 128.728 56.3153L130.185 56.7244C130.032 57.2188 129.774 57.6534 129.412 58.0284C129.05 58.3991 128.602 58.6889 128.07 58.8977C127.537 59.1023 126.938 59.2045 126.274 59.2045ZM136.903 49.1818V50.4602H131.815V49.1818H136.903ZM133.298 46.8295H134.807V56.1875C134.807 56.6136 134.869 56.9332 134.992 57.1463C135.12 57.3551 135.282 57.4957 135.478 57.5682C135.678 57.6364 135.889 57.6705 136.111 57.6705C136.277 57.6705 136.413 57.6619 136.52 57.6449C136.627 57.6236 136.712 57.6065 136.776 57.5938L137.082 58.9489C136.98 58.9872 136.837 59.0256 136.654 59.0639C136.471 59.1065 136.239 59.1278 135.957 59.1278C135.531 59.1278 135.114 59.0362 134.705 58.853C134.3 58.6697 133.963 58.3906 133.695 58.0156C133.43 57.6406 133.298 57.1676 133.298 56.5966V46.8295ZM139.173 59V49.1818H140.681V59H139.173ZM139.94 47.5455C139.646 47.5455 139.392 47.4453 139.179 47.245C138.97 47.0447 138.866 46.804 138.866 46.5227C138.866 46.2415 138.97 46.0007 139.179 45.8004C139.392 45.6001 139.646 45.5 139.94 45.5C140.234 45.5 140.485 45.6001 140.694 45.8004C140.907 46.0007 141.014 46.2415 141.014 46.5227C141.014 46.804 140.907 47.0447 140.694 47.245C140.485 47.4453 140.234 47.5455 139.94 47.5455ZM144.953 53.0938V59H143.444V49.1818H144.902V50.7159H145.029C145.259 50.2173 145.609 49.8168 146.078 49.5142C146.546 49.2074 147.152 49.054 147.893 49.054C148.558 49.054 149.139 49.1903 149.638 49.4631C150.137 49.7315 150.524 50.1406 150.801 50.6903C151.078 51.2358 151.217 51.9261 151.217 52.7614V59H149.708V52.8636C149.708 52.0923 149.508 51.4915 149.108 51.0611C148.707 50.6264 148.157 50.4091 147.458 50.4091C146.977 50.4091 146.546 50.5135 146.167 50.7223C145.792 50.9311 145.496 51.2358 145.279 51.6364C145.061 52.0369 144.953 52.5227 144.953 53.0938ZM157.937 62.8864C157.208 62.8864 156.581 62.7926 156.057 62.6051C155.533 62.4219 155.096 62.179 154.747 61.8764C154.402 61.5781 154.127 61.2585 153.922 60.9176L155.124 60.0739C155.26 60.2528 155.433 60.4574 155.642 60.6875C155.851 60.9219 156.136 61.1243 156.498 61.2947C156.865 61.4695 157.344 61.5568 157.937 61.5568C158.729 61.5568 159.383 61.3651 159.899 60.9815C160.415 60.598 160.672 59.9972 160.672 59.179V57.1847H160.544C160.434 57.3636 160.276 57.5852 160.071 57.8494C159.871 58.1094 159.581 58.3416 159.202 58.5462C158.827 58.7464 158.32 58.8466 157.681 58.8466C156.888 58.8466 156.177 58.6591 155.546 58.2841C154.919 57.9091 154.423 57.3636 154.057 56.6477C153.694 55.9318 153.513 55.0625 153.513 54.0398C153.513 53.0341 153.69 52.1584 154.044 51.4126C154.397 50.6626 154.89 50.0831 155.52 49.674C156.151 49.2607 156.88 49.054 157.706 49.054C158.346 49.054 158.853 49.1605 159.228 49.3736C159.607 49.5824 159.897 49.821 160.097 50.0895C160.302 50.3537 160.459 50.571 160.57 50.7415H160.723V49.1818H162.181V59.2812C162.181 60.125 161.989 60.8111 161.606 61.3395C161.226 61.8722 160.715 62.2621 160.071 62.5092C159.432 62.7607 158.721 62.8864 157.937 62.8864ZM157.885 57.4915C158.491 57.4915 159.002 57.353 159.419 57.076C159.837 56.799 160.155 56.4006 160.372 55.8807C160.589 55.3608 160.698 54.7386 160.698 54.0142C160.698 53.3068 160.591 52.6825 160.378 52.1413C160.165 51.6001 159.85 51.1761 159.432 50.8693C159.015 50.5625 158.499 50.4091 157.885 50.4091C157.246 50.4091 156.714 50.571 156.287 50.8949C155.866 51.2187 155.548 51.6534 155.335 52.1989C155.126 52.7443 155.022 53.3494 155.022 54.0142C155.022 54.696 155.128 55.299 155.341 55.8232C155.559 56.343 155.878 56.7521 156.3 57.0504C156.726 57.3445 157.255 57.4915 157.885 57.4915ZM180.59 45.9091V59H179.056L171.922 48.7216H171.794V59H170.209V45.9091H171.743L178.902 56.2131H179.03V45.9091H180.59ZM187.674 59.2045C186.728 59.2045 185.912 58.9957 185.226 58.5781C184.544 58.1562 184.018 57.5682 183.647 56.8139C183.28 56.0554 183.097 55.1733 183.097 54.1676C183.097 53.1619 183.28 52.2756 183.647 51.5085C184.018 50.7372 184.533 50.1364 185.194 49.706C185.859 49.2713 186.634 49.054 187.521 49.054C188.032 49.054 188.537 49.1392 189.035 49.3097C189.534 49.4801 189.988 49.7571 190.397 50.1406C190.806 50.5199 191.132 51.0227 191.375 51.6491C191.618 52.2756 191.739 53.0469 191.739 53.9631V54.6023H184.171V53.2983H190.205C190.205 52.7443 190.094 52.25 189.873 51.8153C189.655 51.3807 189.344 51.0376 188.94 50.7862C188.539 50.5348 188.066 50.4091 187.521 50.4091C186.92 50.4091 186.4 50.5582 185.961 50.8565C185.526 51.1506 185.192 51.5341 184.957 52.0071C184.723 52.4801 184.606 52.9872 184.606 53.5284V54.3977C184.606 55.1392 184.734 55.7678 184.989 56.2834C185.249 56.7947 185.609 57.1847 186.07 57.4531C186.53 57.7173 187.065 57.8494 187.674 57.8494C188.07 57.8494 188.428 57.794 188.748 57.6832C189.072 57.5682 189.351 57.3977 189.585 57.1719C189.82 56.9418 190.001 56.6562 190.128 56.3153L191.586 56.7244C191.432 57.2188 191.175 57.6534 190.812 58.0284C190.45 58.3991 190.003 58.6889 189.47 58.8977C188.937 59.1023 188.339 59.2045 187.674 59.2045ZM198.15 59.2045C197.204 59.2045 196.388 58.9957 195.702 58.5781C195.021 58.1562 194.494 57.5682 194.123 56.8139C193.757 56.0554 193.574 55.1733 193.574 54.1676C193.574 53.1619 193.757 52.2756 194.123 51.5085C194.494 50.7372 195.01 50.1364 195.67 49.706C196.335 49.2713 197.111 49.054 197.997 49.054C198.508 49.054 199.013 49.1392 199.512 49.3097C200.011 49.4801 200.464 49.7571 200.873 50.1406C201.283 50.5199 201.609 51.0227 201.851 51.6491C202.094 52.2756 202.216 53.0469 202.216 53.9631V54.6023H194.648V53.2983H200.682C200.682 52.7443 200.571 52.25 200.349 51.8153C200.132 51.3807 199.821 51.0376 199.416 50.7862C199.016 50.5348 198.543 50.4091 197.997 50.4091C197.396 50.4091 196.876 50.5582 196.437 50.8565C196.003 51.1506 195.668 51.5341 195.434 52.0071C195.199 52.4801 195.082 52.9872 195.082 53.5284V54.3977C195.082 55.1392 195.21 55.7678 195.466 56.2834C195.726 56.7947 196.086 57.1847 196.546 57.4531C197.006 57.7173 197.541 57.8494 198.15 57.8494C198.547 57.8494 198.905 57.794 199.224 57.6832C199.548 57.5682 199.827 57.3977 200.062 57.1719C200.296 56.9418 200.477 56.6562 200.605 56.3153L202.062 56.7244C201.909 57.2188 201.651 57.6534 201.289 58.0284C200.927 58.3991 200.479 58.6889 199.947 58.8977C199.414 59.1023 198.815 59.2045 198.15 59.2045ZM208.218 59.2045C207.4 59.2045 206.677 58.9979 206.051 58.5845C205.425 58.1669 204.935 57.5788 204.581 56.8203C204.227 56.0575 204.05 55.1562 204.05 54.1165C204.05 53.0852 204.227 52.1903 204.581 51.4318C204.935 50.6733 205.427 50.0874 206.057 49.674C206.688 49.2607 207.417 49.054 208.244 49.054C208.883 49.054 209.388 49.1605 209.758 49.3736C210.133 49.5824 210.419 49.821 210.615 50.0895C210.815 50.3537 210.971 50.571 211.082 50.7415H211.209V45.9091H212.718V59H211.261V57.4915H211.082C210.971 57.6705 210.813 57.8963 210.609 58.169C210.404 58.4375 210.112 58.6783 209.733 58.8913C209.354 59.1001 208.849 59.2045 208.218 59.2045ZM208.422 57.8494C209.028 57.8494 209.539 57.6918 209.957 57.3764C210.374 57.0568 210.692 56.6158 210.909 56.0533C211.126 55.4865 211.235 54.8324 211.235 54.0909C211.235 53.358 211.128 52.7166 210.915 52.1669C210.702 51.6129 210.387 51.1825 209.969 50.8757C209.552 50.5646 209.036 50.4091 208.422 50.4091C207.783 50.4091 207.251 50.5732 206.824 50.9013C206.403 51.2251 206.085 51.6662 205.872 52.2244C205.663 52.7784 205.559 53.4006 205.559 54.0909C205.559 54.7898 205.665 55.4247 205.878 55.9957C206.096 56.5625 206.415 57.0142 206.837 57.3509C207.263 57.6832 207.792 57.8494 208.422 57.8494ZM222.645 51.3807L221.29 51.7642C221.204 51.5384 221.079 51.3189 220.913 51.1058C220.751 50.8885 220.529 50.7095 220.248 50.5689C219.967 50.4283 219.606 50.358 219.168 50.358C218.567 50.358 218.066 50.4964 217.665 50.7734C217.269 51.0462 217.071 51.3935 217.071 51.8153C217.071 52.1903 217.207 52.4865 217.48 52.7038C217.753 52.9212 218.179 53.1023 218.758 53.2472L220.216 53.6051C221.094 53.8182 221.748 54.1442 222.178 54.5831C222.609 55.0178 222.824 55.5781 222.824 56.2642C222.824 56.8267 222.662 57.3295 222.338 57.7727C222.018 58.2159 221.571 58.5653 220.996 58.821C220.42 59.0767 219.751 59.2045 218.989 59.2045C217.987 59.2045 217.158 58.9872 216.502 58.5526C215.846 58.1179 215.43 57.483 215.256 56.6477L216.687 56.2898C216.824 56.8182 217.082 57.2145 217.461 57.4787C217.844 57.7429 218.345 57.875 218.963 57.875C219.666 57.875 220.224 57.7259 220.638 57.4276C221.055 57.125 221.264 56.7628 221.264 56.3409C221.264 56 221.145 55.7145 220.906 55.4844C220.668 55.25 220.301 55.0753 219.807 54.9602L218.17 54.5767C217.271 54.3636 216.611 54.0334 216.189 53.5859C215.771 53.1342 215.562 52.5696 215.562 51.892C215.562 51.3381 215.718 50.848 216.029 50.4219C216.344 49.9957 216.773 49.6612 217.314 49.4183C217.859 49.1754 218.477 49.054 219.168 49.054C220.139 49.054 220.902 49.267 221.456 49.6932C222.014 50.1193 222.41 50.6818 222.645 51.3807Z" fill="#05060F" fill-opacity="0.8"/>
</g>
<defs>
<filter id="filter0_d_1_195" x="0" y="0" width="278" height="136" filterUnits="userSpaceOnUse" color-interpolation-filters="sRGB">
<feFlood flood-opacity="0" result="BackgroundImageFix"/>
<feColorMatrix in="SourceAlpha" type="matrix" values="0 0 0 0 0 0 0 0 0 0 0 0 0 0 0 0 0 0 127 0" result="hardAlpha"/>
<feOffset dy="16"/>
<feGaussianBlur stdDeviation="18"/>
<feComposite in2="hardAlpha" operator="out"/>
<feColorMatrix type="matrix" values="0 0 0 0 0.0196078 0 0 0 0 0.0235294 0 0 0 0 0.0588235 0 0 0 0.04 0"/>
<feBlend mode="normal" in2="BackgroundImageFix" result="effect1_dropShadow_1_195"/>
<feBlend mode="normal" in="SourceGraphic" in2="effect1_dropShadow_1_195" result="shape"/>
</filter>
</defs>
</svg>
