<svg width="310" height="136" viewBox="0 0 310 136" fill="none" xmlns="http://www.w3.org/2000/svg">
<g filter="url(#filter0_d_1_164)">
<rect x="36" y="20" width="238" height="64" rx="32" fill="white"/>
<path d="M76.6663 65.3333H63.333C62.7863 65.3333 62.333 64.8799 62.333 64.3333C62.333 63.7866 62.7863 63.3333 63.333 63.3333H76.6663C77.213 63.3333 77.6663 63.7866 77.6663 64.3333C77.6663 64.8799 77.213 65.3333 76.6663 65.3333Z" fill="#5627FF"/>
<path d="M81.1336 43.3601L75.8003 47.1734C75.0936 47.6801 74.0803 47.3734 73.7736 46.5601L71.2536 39.8401C70.827 38.6801 69.187 38.6801 68.7603 39.8401L66.227 46.5468C65.9203 47.3734 64.9203 47.6801 64.2136 47.1601L58.8803 43.3468C57.8136 42.6001 56.4003 43.6534 56.8403 44.8934L62.387 60.4268C62.5736 60.9601 63.0803 61.3068 63.6403 61.3068H76.347C76.907 61.3068 77.4136 60.9468 77.6003 60.4268L83.147 44.8934C83.6003 43.6534 82.187 42.6001 81.1336 43.3601ZM73.3336 55.6668H66.667C66.1203 55.6668 65.667 55.2134 65.667 54.6668C65.667 54.1201 66.1203 53.6668 66.667 53.6668H73.3336C73.8803 53.6668 74.3336 54.1201 74.3336 54.6668C74.3336 55.2134 73.8803 55.6668 73.3336 55.6668Z" fill="#5627FF"/>
<path d="M95.7083 59V45.9091H100.132C101.159 45.9091 101.998 46.0945 102.65 46.4652C103.306 46.8317 103.792 47.3281 104.107 47.9545C104.423 48.581 104.58 49.2798 104.58 50.0511C104.58 50.8224 104.423 51.5234 104.107 52.1541C103.796 52.7848 103.315 53.2876 102.663 53.6626C102.011 54.0334 101.176 54.2188 100.157 54.2188H96.9867V52.8125H100.106C100.809 52.8125 101.374 52.6911 101.8 52.4482C102.226 52.2053 102.535 51.8771 102.727 51.4638C102.923 51.0462 103.021 50.5753 103.021 50.0511C103.021 49.527 102.923 49.0582 102.727 48.6449C102.535 48.2315 102.224 47.9077 101.794 47.6733C101.363 47.4347 100.792 47.3153 100.08 47.3153H97.2935V59H95.7083ZM110.941 59.2045C109.994 59.2045 109.178 58.9957 108.492 58.5781C107.811 58.1562 107.284 57.5682 106.914 56.8139C106.547 56.0554 106.364 55.1733 106.364 54.1676C106.364 53.1619 106.547 52.2756 106.914 51.5085C107.284 50.7372 107.8 50.1364 108.46 49.706C109.125 49.2713 109.901 49.054 110.787 49.054C111.298 49.054 111.803 49.1392 112.302 49.3097C112.801 49.4801 113.254 49.7571 113.664 50.1406C114.073 50.5199 114.399 51.0227 114.642 51.6491C114.884 52.2756 115.006 53.0469 115.006 53.9631V54.6023H107.438V53.2983H113.472C113.472 52.7443 113.361 52.25 113.139 51.8153C112.922 51.3807 112.611 51.0376 112.206 50.7862C111.806 50.5348 111.333 50.4091 110.787 50.4091C110.186 50.4091 109.666 50.5582 109.227 50.8565C108.793 51.1506 108.458 51.5341 108.224 52.0071C107.99 52.4801 107.872 52.9872 107.872 53.5284V54.3977C107.872 55.1392 108 55.7678 108.256 56.2834C108.516 56.7947 108.876 57.1847 109.336 57.4531C109.796 57.7173 110.331 57.8494 110.941 57.8494C111.337 57.8494 111.695 57.794 112.014 57.6832C112.338 57.5682 112.617 57.3977 112.852 57.1719C113.086 56.9418 113.267 56.6562 113.395 56.3153L114.852 56.7244C114.699 57.2188 114.441 57.6534 114.079 58.0284C113.717 58.3991 113.269 58.6889 112.737 58.8977C112.204 59.1023 111.605 59.2045 110.941 59.2045ZM117.301 59V49.1818H118.758V50.6648H118.86C119.039 50.179 119.363 49.7848 119.832 49.4822C120.301 49.1797 120.829 49.0284 121.417 49.0284C121.528 49.0284 121.666 49.0305 121.833 49.0348C121.999 49.0391 122.124 49.0455 122.21 49.054V50.5881C122.159 50.5753 122.041 50.5561 121.858 50.5305C121.679 50.5007 121.49 50.4858 121.289 50.4858C120.812 50.4858 120.386 50.5859 120.011 50.7862C119.64 50.9822 119.346 51.255 119.129 51.6044C118.916 51.9496 118.809 52.3437 118.809 52.7869V59H117.301ZM128.985 49.1818V50.4602H123.693V49.1818H128.985ZM125.278 59V47.8267C125.278 47.2642 125.41 46.7955 125.674 46.4205C125.938 46.0455 126.281 45.7642 126.703 45.5767C127.125 45.3892 127.57 45.2955 128.039 45.2955C128.41 45.2955 128.713 45.3253 128.947 45.3849C129.181 45.4446 129.356 45.5 129.471 45.5511L129.036 46.8551C128.96 46.8295 128.853 46.7976 128.717 46.7592C128.585 46.7209 128.41 46.7017 128.193 46.7017C127.694 46.7017 127.334 46.8274 127.112 47.0788C126.895 47.3303 126.786 47.6989 126.786 48.1847V59H125.278ZM134.812 59.2045C133.866 59.2045 133.05 58.9957 132.363 58.5781C131.682 58.1562 131.155 57.5682 130.785 56.8139C130.418 56.0554 130.235 55.1733 130.235 54.1676C130.235 53.1619 130.418 52.2756 130.785 51.5085C131.155 50.7372 131.671 50.1364 132.331 49.706C132.996 49.2713 133.772 49.054 134.658 49.054C135.17 49.054 135.675 49.1392 136.173 49.3097C136.672 49.4801 137.126 49.7571 137.535 50.1406C137.944 50.5199 138.27 51.0227 138.513 51.6491C138.756 52.2756 138.877 53.0469 138.877 53.9631V54.6023H131.309V53.2983H137.343C137.343 52.7443 137.232 52.25 137.01 51.8153C136.793 51.3807 136.482 51.0376 136.077 50.7862C135.677 50.5348 135.204 50.4091 134.658 50.4091C134.057 50.4091 133.537 50.5582 133.099 50.8565C132.664 51.1506 132.329 51.5341 132.095 52.0071C131.861 52.4801 131.743 52.9872 131.743 53.5284V54.3977C131.743 55.1392 131.871 55.7678 132.127 56.2834C132.387 56.7947 132.747 57.1847 133.207 57.4531C133.667 57.7173 134.202 57.8494 134.812 57.8494C135.208 57.8494 135.566 57.794 135.885 57.6832C136.209 57.5682 136.488 57.3977 136.723 57.1719C136.957 56.9418 137.138 56.6562 137.266 56.3153L138.724 56.7244C138.57 57.2188 138.312 57.6534 137.95 58.0284C137.588 58.3991 137.14 58.6889 136.608 58.8977C136.075 59.1023 135.476 59.2045 134.812 59.2045ZM145.16 59.2045C144.24 59.2045 143.447 58.9872 142.782 58.5526C142.118 58.1179 141.606 57.5192 141.248 56.7564C140.89 55.9936 140.711 55.1222 140.711 54.142C140.711 53.1449 140.895 52.2649 141.261 51.5021C141.632 50.7351 142.148 50.1364 142.808 49.706C143.473 49.2713 144.248 49.054 145.135 49.054C145.825 49.054 146.447 49.1818 147.001 49.4375C147.555 49.6932 148.009 50.0511 148.363 50.5114C148.716 50.9716 148.936 51.5085 149.021 52.1222H147.513C147.398 51.6747 147.142 51.2784 146.746 50.9332C146.354 50.5838 145.825 50.4091 145.16 50.4091C144.572 50.4091 144.057 50.5625 143.613 50.8693C143.175 51.1719 142.831 51.6001 142.584 52.1541C142.341 52.7038 142.22 53.3494 142.22 54.0909C142.22 54.8494 142.339 55.5099 142.578 56.0724C142.821 56.6349 143.162 57.0717 143.601 57.3828C144.044 57.6939 144.564 57.8494 145.16 57.8494C145.552 57.8494 145.908 57.7812 146.228 57.6449C146.547 57.5085 146.818 57.3125 147.04 57.0568C147.261 56.8011 147.419 56.4943 147.513 56.1364H149.021C148.936 56.7159 148.725 57.2379 148.388 57.7024C148.056 58.1626 147.615 58.5291 147.065 58.8018C146.52 59.0703 145.885 59.2045 145.16 59.2045ZM155.496 49.1818V50.4602H150.408V49.1818H155.496ZM151.891 46.8295H153.4V56.1875C153.4 56.6136 153.461 56.9332 153.585 57.1463C153.713 57.3551 153.875 57.4957 154.071 57.5682C154.271 57.6364 154.482 57.6705 154.704 57.6705C154.87 57.6705 155.006 57.6619 155.113 57.6449C155.219 57.6236 155.305 57.6065 155.368 57.5938L155.675 58.9489C155.573 58.9872 155.43 59.0256 155.247 59.0639C155.064 59.1065 154.831 59.1278 154.55 59.1278C154.124 59.1278 153.706 59.0362 153.297 58.853C152.893 58.6697 152.556 58.3906 152.287 58.0156C152.023 57.6406 151.891 57.1676 151.891 56.5966V46.8295ZM163.032 59V45.9091H170.933V47.3153H164.618V51.7386H170.524V53.1449H164.618V57.5938H171.035V59H163.032ZM174.711 49.1818L177.063 53.196L179.415 49.1818H181.154L177.983 54.0909L181.154 59H179.415L177.063 55.1903L174.711 59H172.972L176.091 54.0909L172.972 49.1818H174.711ZM183.306 62.6818V49.1818H184.764V50.7415H184.943C185.054 50.571 185.207 50.3537 185.403 50.0895C185.603 49.821 185.889 49.5824 186.26 49.3736C186.635 49.1605 187.142 49.054 187.781 49.054C188.608 49.054 189.336 49.2607 189.967 49.674C190.598 50.0874 191.09 50.6733 191.444 51.4318C191.797 52.1903 191.974 53.0852 191.974 54.1165C191.974 55.1562 191.797 56.0575 191.444 56.8203C191.09 57.5788 190.6 58.1669 189.973 58.5845C189.347 58.9979 188.625 59.2045 187.806 59.2045C187.176 59.2045 186.671 59.1001 186.292 58.8913C185.912 58.6783 185.62 58.4375 185.416 58.169C185.211 57.8963 185.054 57.6705 184.943 57.4915H184.815V62.6818H183.306ZM184.789 54.0909C184.789 54.8324 184.898 55.4865 185.115 56.0533C185.333 56.6158 185.65 57.0568 186.068 57.3764C186.485 57.6918 186.997 57.8494 187.602 57.8494C188.233 57.8494 188.759 57.6832 189.181 57.3509C189.607 57.0142 189.926 56.5625 190.14 55.9957C190.357 55.4247 190.466 54.7898 190.466 54.0909C190.466 53.4006 190.359 52.7784 190.146 52.2244C189.937 51.6662 189.62 51.2251 189.194 50.9013C188.772 50.5732 188.241 50.4091 187.602 50.4091C186.988 50.4091 186.473 50.5646 186.055 50.8757C185.637 51.1825 185.322 51.6129 185.109 52.1669C184.896 52.7166 184.789 53.358 184.789 54.0909ZM198.392 59.2045C197.446 59.2045 196.63 58.9957 195.944 58.5781C195.262 58.1562 194.735 57.5682 194.365 56.8139C193.998 56.0554 193.815 55.1733 193.815 54.1676C193.815 53.1619 193.998 52.2756 194.365 51.5085C194.735 50.7372 195.251 50.1364 195.912 49.706C196.576 49.2713 197.352 49.054 198.238 49.054C198.75 49.054 199.255 49.1392 199.753 49.3097C200.252 49.4801 200.706 49.7571 201.115 50.1406C201.524 50.5199 201.85 51.0227 202.093 51.6491C202.336 52.2756 202.457 53.0469 202.457 53.9631V54.6023H194.889V53.2983H200.923C200.923 52.7443 200.812 52.25 200.591 51.8153C200.373 51.3807 200.062 51.0376 199.657 50.7862C199.257 50.5348 198.784 50.4091 198.238 50.4091C197.637 50.4091 197.118 50.5582 196.679 50.8565C196.244 51.1506 195.909 51.5341 195.675 52.0071C195.441 52.4801 195.324 52.9872 195.324 53.5284V54.3977C195.324 55.1392 195.451 55.7678 195.707 56.2834C195.967 56.7947 196.327 57.1847 196.787 57.4531C197.248 57.7173 197.782 57.8494 198.392 57.8494C198.788 57.8494 199.146 57.794 199.466 57.6832C199.789 57.5682 200.069 57.3977 200.303 57.1719C200.537 56.9418 200.718 56.6562 200.846 56.3153L202.304 56.7244C202.15 57.2188 201.892 57.6534 201.53 58.0284C201.168 58.3991 200.721 58.6889 200.188 58.8977C199.655 59.1023 199.056 59.2045 198.392 59.2045ZM204.752 59V49.1818H206.209V50.6648H206.311C206.49 50.179 206.814 49.7848 207.283 49.4822C207.752 49.1797 208.28 49.0284 208.868 49.0284C208.979 49.0284 209.118 49.0305 209.284 49.0348C209.45 49.0391 209.576 49.0455 209.661 49.054V50.5881C209.61 50.5753 209.493 50.5561 209.309 50.5305C209.13 50.5007 208.941 50.4858 208.74 50.4858C208.263 50.4858 207.837 50.5859 207.462 50.7862C207.091 50.9822 206.797 51.255 206.58 51.6044C206.367 51.9496 206.26 52.3437 206.26 52.7869V59H204.752ZM211.449 59V49.1818H212.958V59H211.449ZM212.216 47.5455C211.922 47.5455 211.669 47.4453 211.455 47.245C211.247 47.0447 211.142 46.804 211.142 46.5227C211.142 46.2415 211.247 46.0007 211.455 45.8004C211.669 45.6001 211.922 45.5 212.216 45.5C212.51 45.5 212.762 45.6001 212.97 45.8004C213.183 46.0007 213.29 46.2415 213.29 46.5227C213.29 46.804 213.183 47.0447 212.97 47.245C212.762 47.4453 212.51 47.5455 212.216 47.5455ZM219.837 59.2045C218.891 59.2045 218.075 58.9957 217.389 58.5781C216.707 58.1562 216.181 57.5682 215.81 56.8139C215.444 56.0554 215.26 55.1733 215.26 54.1676C215.26 53.1619 215.444 52.2756 215.81 51.5085C216.181 50.7372 216.696 50.1364 217.357 49.706C218.022 49.2713 218.797 49.054 219.684 49.054C220.195 49.054 220.7 49.1392 221.199 49.3097C221.697 49.4801 222.151 49.7571 222.56 50.1406C222.969 50.5199 223.295 51.0227 223.538 51.6491C223.781 52.2756 223.902 53.0469 223.902 53.9631V54.6023H216.334V53.2983H222.368C222.368 52.7443 222.257 52.25 222.036 51.8153C221.819 51.3807 221.507 51.0376 221.103 50.7862C220.702 50.5348 220.229 50.4091 219.684 50.4091C219.083 50.4091 218.563 50.5582 218.124 50.8565C217.689 51.1506 217.355 51.5341 217.12 52.0071C216.886 52.4801 216.769 52.9872 216.769 53.5284V54.3977C216.769 55.1392 216.897 55.7678 217.152 56.2834C217.412 56.7947 217.772 57.1847 218.233 57.4531C218.693 57.7173 219.228 57.8494 219.837 57.8494C220.233 57.8494 220.591 57.794 220.911 57.6832C221.235 57.5682 221.514 57.3977 221.748 57.1719C221.983 56.9418 222.164 56.6562 222.292 56.3153L223.749 56.7244C223.596 57.2188 223.338 57.6534 222.975 58.0284C222.613 58.3991 222.166 58.6889 221.633 58.8977C221.1 59.1023 220.502 59.2045 219.837 59.2045ZM227.706 53.0938V59H226.197V49.1818H227.654V50.7159H227.782C228.012 50.2173 228.362 49.8168 228.831 49.5142C229.299 49.2074 229.904 49.054 230.646 49.054C231.311 49.054 231.892 49.1903 232.391 49.4631C232.89 49.7315 233.277 50.1406 233.554 50.6903C233.831 51.2358 233.97 51.9261 233.97 52.7614V59H232.461V52.8636C232.461 52.0923 232.261 51.4915 231.86 51.0611C231.46 50.6264 230.91 50.4091 230.211 50.4091C229.73 50.4091 229.299 50.5135 228.92 50.7223C228.545 50.9311 228.249 51.2358 228.032 51.6364C227.814 52.0369 227.706 52.5227 227.706 53.0938ZM240.715 59.2045C239.795 59.2045 239.002 58.9872 238.337 58.5526C237.672 58.1179 237.161 57.5192 236.803 56.7564C236.445 55.9936 236.266 55.1222 236.266 54.142C236.266 53.1449 236.449 52.2649 236.816 51.5021C237.187 50.7351 237.702 50.1364 238.363 49.706C239.028 49.2713 239.803 49.054 240.689 49.054C241.38 49.054 242.002 49.1818 242.556 49.4375C243.11 49.6932 243.564 50.0511 243.917 50.5114C244.271 50.9716 244.491 51.5085 244.576 52.1222H243.067C242.952 51.6747 242.697 51.2784 242.3 50.9332C241.908 50.5838 241.38 50.4091 240.715 50.4091C240.127 50.4091 239.611 50.5625 239.168 50.8693C238.729 51.1719 238.386 51.6001 238.139 52.1541C237.896 52.7038 237.775 53.3494 237.775 54.0909C237.775 54.8494 237.894 55.5099 238.133 56.0724C238.376 56.6349 238.716 57.0717 239.155 57.3828C239.599 57.6939 240.118 57.8494 240.715 57.8494C241.107 57.8494 241.463 57.7812 241.782 57.6449C242.102 57.5085 242.373 57.3125 242.594 57.0568C242.816 56.8011 242.974 56.4943 243.067 56.1364H244.576C244.491 56.7159 244.28 57.2379 243.943 57.7024C243.611 58.1626 243.17 58.5291 242.62 58.8018C242.074 59.0703 241.439 59.2045 240.715 59.2045ZM250.898 59.2045C249.952 59.2045 249.135 58.9957 248.449 58.5781C247.768 58.1562 247.241 57.5682 246.871 56.8139C246.504 56.0554 246.321 55.1733 246.321 54.1676C246.321 53.1619 246.504 52.2756 246.871 51.5085C247.241 50.7372 247.757 50.1364 248.417 49.706C249.082 49.2713 249.858 49.054 250.744 49.054C251.256 49.054 251.76 49.1392 252.259 49.3097C252.758 49.4801 253.211 49.7571 253.621 50.1406C254.03 50.5199 254.356 51.0227 254.599 51.6491C254.841 52.2756 254.963 53.0469 254.963 53.9631V54.6023H247.395V53.2983H253.429C253.429 52.7443 253.318 52.25 253.096 51.8153C252.879 51.3807 252.568 51.0376 252.163 50.7862C251.763 50.5348 251.29 50.4091 250.744 50.4091C250.143 50.4091 249.623 50.5582 249.184 50.8565C248.75 51.1506 248.415 51.5341 248.181 52.0071C247.947 52.4801 247.829 52.9872 247.829 53.5284V54.3977C247.829 55.1392 247.957 55.7678 248.213 56.2834C248.473 56.7947 248.833 57.1847 249.293 57.4531C249.753 57.7173 250.288 57.8494 250.898 57.8494C251.294 57.8494 251.652 57.794 251.971 57.6832C252.295 57.5682 252.574 57.3977 252.809 57.1719C253.043 56.9418 253.224 56.6562 253.352 56.3153L254.809 56.7244C254.656 57.2188 254.398 57.6534 254.036 58.0284C253.674 58.3991 253.226 58.6889 252.694 58.8977C252.161 59.1023 251.562 59.2045 250.898 59.2045Z" fill="#05060F" fill-opacity="0.8"/>
</g>
<defs>
<filter id="filter0_d_1_164" x="0" y="0" width="310" height="136" filterUnits="userSpaceOnUse" color-interpolation-filters="sRGB">
<feFlood flood-opacity="0" result="BackgroundImageFix"/>
<feColorMatrix in="SourceAlpha" type="matrix" values="0 0 0 0 0 0 0 0 0 0 0 0 0 0 0 0 0 0 127 0" result="hardAlpha"/>
<feOffset dy="16"/>
<feGaussianBlur stdDeviation="18"/>
<feComposite in2="hardAlpha" operator="out"/>
<feColorMatrix type="matrix" values="0 0 0 0 0.0196078 0 0 0 0 0.0235294 0 0 0 0 0.0588235 0 0 0 0.04 0"/>
<feBlend mode="normal" in2="BackgroundImageFix" result="effect1_dropShadow_1_164"/>
<feBlend mode="normal" in="SourceGraphic" in2="effect1_dropShadow_1_164" result="shape"/>
</filter>
</defs>
</svg>
