<svg width="252" height="136" viewBox="0 0 252 136" fill="none" xmlns="http://www.w3.org/2000/svg">
<g filter="url(#filter0_d_1_173)">
<rect x="36" y="20" width="180" height="64" rx="32" fill="white"/>
<path d="M69 60.3332H66C64.5333 60.3332 63.3333 61.5332 63.3333 62.9999V63.3332H62C61.4533 63.3332 61 63.7866 61 64.3332C61 64.8799 61.4533 65.3332 62 65.3332H78C78.5467 65.3332 79 64.8799 79 64.3332C79 63.7866 78.5467 63.3332 78 63.3332H76.6667V62.9999C76.6667 61.5332 75.4667 60.3332 74 60.3332H71V57.2799C70.6667 57.3199 70.3333 57.3332 70 57.3332C69.6667 57.3332 69.3333 57.3199 69 57.2799V60.3332Z" fill="#5627FF"/>
<path d="M78.64 51.5201C79.52 51.1867 80.2934 50.6401 80.9067 50.0267C82.1467 48.6534 82.96 47.0134 82.96 45.0934C82.96 43.1734 81.4534 41.6667 79.5334 41.6667H78.7867C77.92 39.8934 76.1067 38.6667 74 38.6667H66C63.8934 38.6667 62.08 39.8934 61.2134 41.6667H60.4667C58.5467 41.6667 57.04 43.1734 57.04 45.0934C57.04 47.0134 57.8534 48.6534 59.0934 50.0267C59.7067 50.6401 60.48 51.1867 61.36 51.5201C62.7467 54.9334 66.08 57.3334 70 57.3334C73.92 57.3334 77.2534 54.9334 78.64 51.5201ZM73.7867 47.2667L72.96 48.2801C72.8267 48.4267 72.7334 48.7201 72.7467 48.9201L72.8267 50.2267C72.88 51.0267 72.3067 51.4401 71.56 51.1467L70.3467 50.6667C70.16 50.6001 69.84 50.6001 69.6534 50.6667L68.44 51.1467C67.6934 51.4401 67.12 51.0267 67.1734 50.2267L67.2534 48.9201C67.2667 48.7201 67.1734 48.4267 67.04 48.2801L66.2134 47.2667C65.6934 46.6534 65.92 45.9734 66.6934 45.7734L67.96 45.4534C68.16 45.4001 68.4 45.2134 68.5067 45.0401L69.2134 43.9467C69.6534 43.2667 70.3467 43.2667 70.7867 43.9467L71.4934 45.0401C71.6 45.2134 71.84 45.4001 72.04 45.4534L73.3067 45.7734C74.08 45.9734 74.3067 46.6534 73.7867 47.2667Z" fill="#5627FF"/>
<path d="M97.2183 45.9091V59H95.7098V45.9091H97.2183ZM103.97 59.2045C103.084 59.2045 102.306 58.9936 101.637 58.5717C100.972 58.1499 100.452 57.5597 100.077 56.8011C99.7064 56.0426 99.521 55.1562 99.521 54.142C99.521 53.1193 99.7064 52.2266 100.077 51.4638C100.452 50.701 100.972 50.1087 101.637 49.6868C102.306 49.2649 103.084 49.054 103.97 49.054C104.856 49.054 105.632 49.2649 106.297 49.6868C106.966 50.1087 107.486 50.701 107.856 51.4638C108.231 52.2266 108.419 53.1193 108.419 54.142C108.419 55.1562 108.231 56.0426 107.856 56.8011C107.486 57.5597 106.966 58.1499 106.297 58.5717C105.632 58.9936 104.856 59.2045 103.97 59.2045ZM103.97 57.8494C104.643 57.8494 105.197 57.6768 105.632 57.3317C106.066 56.9865 106.388 56.5327 106.597 55.9702C106.806 55.4077 106.91 54.7983 106.91 54.142C106.91 53.4858 106.806 52.8743 106.597 52.3075C106.388 51.7408 106.066 51.2827 105.632 50.9332C105.197 50.5838 104.643 50.4091 103.97 50.4091C103.297 50.4091 102.743 50.5838 102.308 50.9332C101.873 51.2827 101.552 51.7408 101.343 52.3075C101.134 52.8743 101.03 53.4858 101.03 54.142C101.03 54.7983 101.134 55.4077 101.343 55.9702C101.552 56.5327 101.873 56.9865 102.308 57.3317C102.743 57.6768 103.297 57.8494 103.97 57.8494ZM110.722 59V49.1818H112.179V50.6648H112.281C112.46 50.179 112.784 49.7848 113.253 49.4822C113.722 49.1797 114.25 49.0284 114.838 49.0284C114.949 49.0284 115.087 49.0305 115.253 49.0348C115.42 49.0391 115.545 49.0455 115.631 49.054V50.5881C115.579 50.5753 115.462 50.5561 115.279 50.5305C115.1 50.5007 114.91 50.4858 114.71 50.4858C114.233 50.4858 113.807 50.5859 113.432 50.7862C113.061 50.9822 112.767 51.255 112.55 51.6044C112.337 51.9496 112.23 52.3437 112.23 52.7869V59H110.722ZM121.236 59.2045C120.29 59.2045 119.474 58.9957 118.788 58.5781C118.106 58.1562 117.58 57.5682 117.209 56.8139C116.843 56.0554 116.66 55.1733 116.66 54.1676C116.66 53.1619 116.843 52.2756 117.209 51.5085C117.58 50.7372 118.096 50.1364 118.756 49.706C119.421 49.2713 120.197 49.054 121.083 49.054C121.594 49.054 122.099 49.1392 122.598 49.3097C123.097 49.4801 123.55 49.7571 123.959 50.1406C124.369 50.5199 124.695 51.0227 124.937 51.6491C125.18 52.2756 125.302 53.0469 125.302 53.9631V54.6023H117.734V53.2983H123.768C123.768 52.7443 123.657 52.25 123.435 51.8153C123.218 51.3807 122.907 51.0376 122.502 50.7862C122.101 50.5348 121.628 50.4091 121.083 50.4091C120.482 50.4091 119.962 50.5582 119.523 50.8565C119.089 51.1506 118.754 51.5341 118.52 52.0071C118.285 52.4801 118.168 52.9872 118.168 53.5284V54.3977C118.168 55.1392 118.296 55.7678 118.552 56.2834C118.812 56.7947 119.172 57.1847 119.632 57.4531C120.092 57.7173 120.627 57.8494 121.236 57.8494C121.633 57.8494 121.991 57.794 122.31 57.6832C122.634 57.5682 122.913 57.3977 123.148 57.1719C123.382 56.9418 123.563 56.6562 123.691 56.3153L125.148 56.7244C124.995 57.2188 124.737 57.6534 124.375 58.0284C124.013 58.3991 123.565 58.6889 123.033 58.8977C122.5 59.1023 121.901 59.2045 121.236 59.2045ZM127.597 59V49.1818H129.054V50.7159H129.182C129.386 50.1918 129.717 49.7848 130.172 49.495C130.628 49.201 131.176 49.054 131.815 49.054C132.463 49.054 133.002 49.201 133.432 49.495C133.867 49.7848 134.206 50.1918 134.449 50.7159H134.551C134.802 50.2088 135.18 49.8061 135.682 49.5078C136.185 49.2053 136.788 49.054 137.491 49.054C138.369 49.054 139.087 49.3288 139.646 49.8786C140.204 50.424 140.483 51.2741 140.483 52.429V59H138.974V52.429C138.974 51.7045 138.776 51.1868 138.38 50.8757C137.984 50.5646 137.517 50.4091 136.98 50.4091C136.29 50.4091 135.755 50.6179 135.376 51.0355C134.996 51.4489 134.807 51.973 134.807 52.608V59H133.273V52.2756C133.273 51.7173 133.092 51.2678 132.729 50.9268C132.367 50.5817 131.9 50.4091 131.329 50.4091C130.937 50.4091 130.571 50.5135 130.23 50.7223C129.893 50.9311 129.621 51.2209 129.412 51.5916C129.207 51.9581 129.105 52.3821 129.105 52.8636V59H127.597ZM148.304 59V49.1818H149.812V59H148.304ZM149.071 47.5455C148.777 47.5455 148.523 47.4453 148.31 47.245C148.101 47.0447 147.997 46.804 147.997 46.5227C147.997 46.2415 148.101 46.0007 148.31 45.8004C148.523 45.6001 148.777 45.5 149.071 45.5C149.365 45.5 149.616 45.6001 149.825 45.8004C150.038 46.0007 150.144 46.2415 150.144 46.5227C150.144 46.804 150.038 47.0447 149.825 47.245C149.616 47.4453 149.365 47.5455 149.071 47.5455ZM152.575 62.6818V49.1818H154.032V50.7415H154.211C154.322 50.571 154.476 50.3537 154.672 50.0895C154.872 49.821 155.157 49.5824 155.528 49.3736C155.903 49.1605 156.41 49.054 157.049 49.054C157.876 49.054 158.605 49.2607 159.236 49.674C159.866 50.0874 160.358 50.6733 160.712 51.4318C161.066 52.1903 161.243 53.0852 161.243 54.1165C161.243 55.1562 161.066 56.0575 160.712 56.8203C160.358 57.5788 159.868 58.1669 159.242 58.5845C158.616 58.9979 157.893 59.2045 157.075 59.2045C156.444 59.2045 155.939 59.1001 155.56 58.8913C155.181 58.6783 154.889 58.4375 154.684 58.169C154.48 57.8963 154.322 57.6705 154.211 57.4915H154.084V62.6818H152.575ZM154.058 54.0909C154.058 54.8324 154.167 55.4865 154.384 56.0533C154.601 56.6158 154.919 57.0568 155.336 57.3764C155.754 57.6918 156.265 57.8494 156.87 57.8494C157.501 57.8494 158.027 57.6832 158.449 57.3509C158.875 57.0142 159.195 56.5625 159.408 55.9957C159.625 55.4247 159.734 54.7898 159.734 54.0909C159.734 53.4006 159.628 52.7784 159.415 52.2244C159.206 51.6662 158.888 51.2251 158.462 50.9013C158.04 50.5732 157.51 50.4091 156.87 50.4091C156.257 50.4091 155.741 50.5646 155.324 50.8757C154.906 51.1825 154.591 51.6129 154.378 52.1669C154.165 52.7166 154.058 53.358 154.058 54.0909ZM170.498 51.3807L169.143 51.7642C169.058 51.5384 168.932 51.3189 168.766 51.1058C168.604 50.8885 168.383 50.7095 168.101 50.5689C167.82 50.4283 167.46 50.358 167.021 50.358C166.42 50.358 165.919 50.4964 165.519 50.7734C165.123 51.0462 164.924 51.3935 164.924 51.8153C164.924 52.1903 165.061 52.4865 165.334 52.7038C165.606 52.9212 166.032 53.1023 166.612 53.2472L168.069 53.6051C168.947 53.8182 169.601 54.1442 170.032 54.5831C170.462 55.0178 170.677 55.5781 170.677 56.2642C170.677 56.8267 170.515 57.3295 170.191 57.7727C169.872 58.2159 169.424 58.5653 168.849 58.821C168.274 59.0767 167.605 59.2045 166.842 59.2045C165.841 59.2045 165.012 58.9872 164.356 58.5526C163.699 58.1179 163.284 57.483 163.109 56.6477L164.541 56.2898C164.677 56.8182 164.935 57.2145 165.314 57.4787C165.698 57.7429 166.199 57.875 166.816 57.875C167.52 57.875 168.078 57.7259 168.491 57.4276C168.909 57.125 169.118 56.7628 169.118 56.3409C169.118 56 168.998 55.7145 168.76 55.4844C168.521 55.25 168.155 55.0753 167.66 54.9602L166.024 54.5767C165.125 54.3636 164.464 54.0334 164.042 53.5859C163.625 53.1342 163.416 52.5696 163.416 51.892C163.416 51.3381 163.571 50.848 163.883 50.4219C164.198 49.9957 164.626 49.6612 165.167 49.4183C165.713 49.1754 166.331 49.054 167.021 49.054C167.993 49.054 168.755 49.267 169.309 49.6932C169.868 50.1193 170.264 50.6818 170.498 51.3807ZM179.136 54.9858V49.1818H180.644V59H179.136V57.3381H179.033C178.803 57.8366 178.445 58.2607 177.959 58.6101C177.474 58.9553 176.86 59.1278 176.119 59.1278C175.505 59.1278 174.959 58.9936 174.482 58.7251C174.005 58.4524 173.63 58.0433 173.357 57.4979C173.084 56.9482 172.948 56.2557 172.948 55.4205V49.1818H174.457V55.3182C174.457 56.0341 174.657 56.6051 175.057 57.0312C175.462 57.4574 175.978 57.6705 176.604 57.6705C176.979 57.6705 177.361 57.5746 177.748 57.3828C178.141 57.1911 178.469 56.897 178.733 56.5007C179.001 56.1044 179.136 55.5994 179.136 54.9858ZM183.407 59V49.1818H184.864V50.7159H184.992C185.197 50.1918 185.527 49.7848 185.983 49.495C186.439 49.201 186.987 49.054 187.626 49.054C188.274 49.054 188.813 49.201 189.243 49.495C189.678 49.7848 190.016 50.1918 190.259 50.7159H190.362C190.613 50.2088 190.99 49.8061 191.493 49.5078C191.996 49.2053 192.599 49.054 193.302 49.054C194.18 49.054 194.898 49.3288 195.456 49.8786C196.014 50.424 196.293 51.2741 196.293 52.429V59H194.785V52.429C194.785 51.7045 194.587 51.1868 194.19 50.8757C193.794 50.5646 193.328 50.4091 192.791 50.4091C192.1 50.4091 191.565 50.6179 191.186 51.0355C190.807 51.4489 190.617 51.973 190.617 52.608V59H189.083V52.2756C189.083 51.7173 188.902 51.2678 188.54 50.9268C188.178 50.5817 187.711 50.4091 187.14 50.4091C186.748 50.4091 186.381 50.5135 186.041 50.7223C185.704 50.9311 185.431 51.2209 185.222 51.5916C185.018 51.9581 184.916 52.3821 184.916 52.8636V59H183.407Z" fill="#05060F" fill-opacity="0.8"/>
</g>
<defs>
<filter id="filter0_d_1_173" x="0" y="0" width="252" height="136" filterUnits="userSpaceOnUse" color-interpolation-filters="sRGB">
<feFlood flood-opacity="0" result="BackgroundImageFix"/>
<feColorMatrix in="SourceAlpha" type="matrix" values="0 0 0 0 0 0 0 0 0 0 0 0 0 0 0 0 0 0 127 0" result="hardAlpha"/>
<feOffset dy="16"/>
<feGaussianBlur stdDeviation="18"/>
<feComposite in2="hardAlpha" operator="out"/>
<feColorMatrix type="matrix" values="0 0 0 0 0.0196078 0 0 0 0 0.0235294 0 0 0 0 0.0588235 0 0 0 0.04 0"/>
<feBlend mode="normal" in2="BackgroundImageFix" result="effect1_dropShadow_1_173"/>
<feBlend mode="normal" in="SourceGraphic" in2="effect1_dropShadow_1_173" result="shape"/>
</filter>
</defs>
</svg>
