<svg width="360" height="86" viewBox="0 0 360 86" fill="none" xmlns="http://www.w3.org/2000/svg">
<path d="M0 84.7261C0.0885806 86.4154 3.39541 79.8079 3.90244 78.0812C4.30866 76.6978 5.35431 76.2932 5.92334 75.1859C6.63728 73.7966 6.89763 71.3447 7.52613 69.7275C9.32478 65.0995 11.8659 58.5207 15.0523 55.8681C18.8591 52.6991 23.2939 50.6256 26.9686 46.9449C29.2268 44.6831 32.3365 44.7627 34.9826 43.3377C38.1655 41.6235 42.7839 42.3337 45.5401 39.4457C47.4783 37.4147 53.3147 35.9416 55.784 35.2688C58.5387 34.5184 61.3502 34.3937 64.0767 33.4652C66.8277 32.5284 71.0163 32.6908 73.3798 30.9022C75.7391 29.1167 79.7078 28.3391 82.3693 28.3391C89.798 28.3391 97.2886 26.6304 104.774 26.6304C114.17 26.6304 123.566 26.6304 132.962 26.6304C143.062 26.6304 151.033 33.8977 159.861 39.8254C163.749 42.4366 167.313 45.0505 171.359 46.9449C176.213 49.218 180.59 47.9358 185.505 49.0333C187.933 49.5756 189.622 51.9717 192.195 52.2134C194.754 52.4538 197.367 52.2609 199.93 52.2609C207.846 52.2609 215.509 51.9005 223.415 50.9319C231.804 49.9039 240.358 46.4907 248.502 43.7174C253.006 42.1835 257.76 42.3848 262.195 40.2525C271.016 36.0116 280.196 33.5965 289.059 29.7156C297.517 26.0125 305.711 21.5958 314.181 18.1344C317.92 16.6066 321.555 14.396 325.47 13.8627C328.6 13.4364 331.574 10.7988 334.948 10.4453C337.263 10.2027 338.729 8.82343 340.906 7.83478C343.083 6.84634 345.402 7.35922 347.491 6.03116C351.363 3.57 355.7 1 360 1" stroke="#168EEA" stroke-width="2" stroke-linecap="round" stroke-dasharray="6 6"/>
</svg>
